<mxfile host="app.diagrams.net" modified="2020-12-21T02:45:47.212Z" agent="5.0 (Windows NT 6.1; Win64; x64) AppleWebKit/537.36 (KHTML, like Gecko) Chrome/87.0.4280.88 Safari/537.36" etag="aisAOnWARwVJGKIOpIiI" version="13.10.0" type="github">
  <diagram id="ziNSpsP4iaIuigR2ymvn" name="Page-1">
    <mxGraphModel dx="1422" dy="802" grid="1" gridSize="10" guides="1" tooltips="1" connect="1" arrows="1" fold="1" page="1" pageScale="1" pageWidth="850" pageHeight="1100" math="0" shadow="0">
      <root>
        <mxCell id="0" />
        <mxCell id="1" parent="0" />
        <mxCell id="WBukCUw7L9f1w4DGZweY-1" value="Pepe el cojo" style="rounded=0;whiteSpace=wrap;html=1;fillColor=#ffe6cc;strokeColor=#d79b00;" vertex="1" parent="1">
          <mxGeometry x="470" y="100" width="120" height="60" as="geometry" />
        </mxCell>
        <mxCell id="WBukCUw7L9f1w4DGZweY-2" value="" style="shape=image;verticalLabelPosition=bottom;labelBackgroundColor=#ffffff;verticalAlign=top;aspect=fixed;imageAspect=0;image=data:image/png,iVBORw0KGgoAAAANSUhEUgAAAggAAAGFCAYAAACYOgv4AAAgAElEQVR4Xux9BZhd5bX2u885c8bdfSYTdyXEDSK4u/a20NKWll7aIm3/2yIt3ItVsRYp0AINlFCIIDGIu088GXe3o//zrr33mTNnzvgMJGF/zwNJZrZ8e32y3m/Ju5SszEw3jGZIwJDAN1ICbrcbERERCA8PQ11d/TdSBl/nR48bOwbr1n8Bk8nUL92YPWsG1q3/sl+eZTzkmyeByMhIKApQXV0jH68YAOGbNwmMLzYkoEvAAAhf71wwAMLXK//uvt1qteK6665FVFQU3nzzLVRVVXX31rPqOgMgnFXDZXTWkMDASsAACAMr366efjYChDGjR+OCCxegob4By5Z9iOKSkq4+s9e/Dw0NRUhISKf3O51OVFZW9vodnd1osVhw5ZVXYPLkSTh58iTKysqRnJSEDRs3YdeuXeC7z6VmAIRzaTSNbzEk0EcJGAChjwLs4+1nA0BISkz0gABFUXDffT/CP//5DhIS4vFf3/oWfvqzn6O5ubmPkmh/e0xMNH720/tRXl7R6bNDQ0PwyaefYcOGjf3eh+ysLEyfMR2bN29GamoqHA4HkpOTMWrUSLz04ssoLCrq93d+nQ80AMLXKX3j3YYEzjAJ9BUgZGRmIjExUb7K5XSisLAQRefYptnVkI0bNw7FxcUo6cVJ+kwGCGlpafje9+6G3WZHUFAQnnn2OZSVlcnP/vSnvyAkJBgvPP8X/PDeH6O6urorMfX495TrokUX4skn/6/TeydMGI/58+fhqaee6fE7Orvhyisux4wZM1BQWChuBb7j9OnT4JqZNXMmXn/97wNqPenXj+nmwwyA0E1BGZcZEvgmSKCvAOGBBx/E/Pnz8b9PPonLLr8c3GB+dO+9X4mP9pJLLsF5U6fiV7/8Zb8N1YgRI3DLrbfK93RX6a1ctQqvvvIK/vGPf/S4H2cyQLjm6quQl5eHbdu2Y86c2QgNC8N//vMR7vrOtxEUHISI8AgcPHQIS5e+J0qzv5s3QLhoyWLEJyS0eUVBQQE+/fQzDBRA+N5378bmLVswc+YMsZgQIBw7dgwtLS244/bb8OvfPIqaGjWY71xpBkA4V0bS+A5DAv0ggf4ACNOnT8dd3/kOUtPS8PTTT+On99+P3NxcZA8aBGtAgICF48ePC3jIysqCyWyG0+GQjZZKmBaIgwcPwhIQgKFDh+LUyZPi283OzkZAQAAqq6pw4vhx8ESbkJAAl8sl933vnntAJXL/f/83Dhw4ALvdLhIJCw9HTk4OAq1W2cDpOx40aBDCw8PlXio9nvbHjBkDh9OJ0JAQeR+tH5deeiluv+MOPPKb38g3xMbGilmZ/eB97GtwcLBcf+LECfF9n6sA4eKLL0KAxYLVa9Zg3rx5sNlsWLt2HSxmMyZNmoiq6mocPnxEZDEQLgZvgDB+/DhERES2mfGU/b59+wYMINx26y3Yu2+fWBHeeeddAQgF+fmoqa3F3Xd9Bz/7+YNoaGjoh1XY/hHZ2VmYN3cuCILWrF0nsh80KBvz5s7B0aPHsf6LL0Tug7KzMW/eXJzOy5Ox4XV9aQZA6Iv0jHsNCZxjEugvgPCDH/wAt992G8aMHSsWhHt/9CPx1e7dswdz582TU/6tt96KxKQkLP/4Y9xxxx3iv12/fj1uvPFG3HH77YiJjcUf//hH/PEPf8CkyZNFOR/Yvx+z58zB7597DnfffTf27NmDhsZG5OfnY8qUKQIQfnLffaLMdYDwm0cewciRI/Hxxx9LQNmRI0fkfe+9955YHKjgfvzjH+O1118HfeqrVq7E9TfcgDfffBMOux13futb+J//9/8EwDz+29+ipLgYzzzzDGbOnImZs2bh3XffFSDBPjz04IP4YNmyc9KCEBUZidtuuxVJSYkoKi7Gfz78CN/97t3tVsDRY8fw0ksv9/vK+LpdDJdffilsLXYkJSfin/94WywYwcFBCAwMxHe+/V94661/Ytbsmdi1azdWrfqkX7//uWefQWJigszp3z3xJE6dOoUHfv4zDB48WIDB//3f09i5axd+/9wzApoJDB7/7RM4dOhQn/phAIQ+ic+42ZDAuSWB/gAIV111FUpLS2XjfODnP0ddXR1efOklrFixAqs//xxU2Js2bZKT2BNPPIHPPv0UTz39tAAAfwDh/fffxxVXXIEPly3D2rVr8cijj2LF8uWYPmMGCgsK8M9//hM7duzAvffei1mzZ+PSSy7xDMro0aPxzLPP4rePP47PP/9cfv7Kq69KjMCDDzyAadOm4dHHHsMvHn4YP/3Zz7Bz50785c9/xl+ef14sAmtWr8b9P/0prr/uOsTFxeGFF1/EG2+8gRdfeAHv//vf8vvnnnsOV119Ne655x5ce801+Ofbb5+TACE9PQ2M4teb3e7Ak0/8FjfdfKvnZ+RvuOuu7+D551/o94XhDRC+e/ddyMzMlHds2LABH/7nI8/7BsrFQIDgcDgl7mDv3n2e9yUnJ+Hxxx7F3n37cfTIEUycOBH/8+vf9Ov3P/vMU0hKSoLNZscTTzyJkxpAGDJksFi0CBB27d6N5559WqxaKkD4HQ4dyu1TPwyA0CfxGTcbEji3JNAfAIEuhp//7Ge47yc/ga2lBc8//zz+8Mc/4oMPPsC6tWtB73RsTAwYr/DoI49g48aNAhBI0LR2zRrcdPPNuPOOOzwWBAKEyy67DEuXLsUX69eLf5vmfwKQiy6+WJTySy+/jIz09HYAgUqFz37kkUfk2TpAoEuB4IUAgYCDVg4Cl61bt+Lll17qFCD87a9/xauvvqoChDVr8Nyzz+Lqq6/GXXffLUDi7XfeOScBwkMPPYD8/AJ1wrvd2LJlK371q198LQCBQZI6mRQVpLcpfaAAwoUXXiAAafnyFW0WPd1NaWmpSE5OwQUL5uNfS5fiwIGD/boxEAzRnZBfUIB169aLJSEriz+bi6NHj+LLDRvFkqD/7PTpPHE7GC6Gfh0G42GGBL7ZEugvgMAYBPr9H3v8cSxbtgw5gwbJCfz111/H1KlT8cILL+AXv/wlwsLCsGrVKjH507/K0/svf/UrARJx8fGYPXs2fv/734sij4mOlvv5988++wwLFy3C/v37cdNNN+GVV15BdFQUbrjxRjz5xBNYvXq1x8Xw1FNPgdkVH/z73/Jn3unTAkL+/f774rrgxvqzn/4Ur772WjuA8P577+HXv/kN3n3nHRzKzcVjjz0GHSDcd999WLBggSiEJUuWSFwFXRHLPvzwnAQIzFb4y19aLQPx8fFyYv2qLAgpKSn4wQ/uwZo1a2WuNDY2ei1WBS6XE6dOnR6wGATGWYwYPhxvvPlWu02CgOWHP/g+Xnn1NZSXl58zm4hhQThnhtL4EEMCfZdAXwECAwdpCeCphi1n8GCxIjA4kBu82WyWADZGf/M65pLznXd/97sSNPjDH/xAgAR/Z7PbJT6AJl3GBvDZvL+pqUkUBE9VPL3x33weN2kGMjLQ8Mjhwx6AwE0uIyNDTn/sB+9lcCQJdwgO+O+KigowY4HuEFoXCG6aW1qQn5cnfl4GIjKlLzomRn5fWlIiP+P7aMngKZZ+4draWowaNUpcLLy+p+1MzmL4ugECZRkfF4fIqCjk5GQjwBIgVia9ZWZkiLuBQawDkebIGAxaTB548OF2J/ObbrxBAlRXrFzV0yE/o683AMIZPTxG5wwJfLUS6CtA6G1v/++ppyS4igDhXEsV64lMzmSA8O3/uhM7duxEcUmpACKe4H/328fw17++ItwABG+pKckYNXo0Xnvt9Z58dr9cSyKlhx56UFwfjJfobx4EdvKGG66XLJhNmzZ7+jxjxnRMmjgRL7708oBkb/SLcHr5EAMg9FJwxm2GBM5FCXxdAEFPYaSZnsrnm9rOZIDAugOzZs1EZmYGggKD8Pc33mQwgriMhg4dIoCBvm/6yGlJ+Tpaeno67v/vn0g64ssv/7Xfu0AZ3HXXt7F69RqUlZYhMioSl116KZ548n/77O/v9872wwMNgNAPQjQeYUjgXJHA1wUQzhX59fU7zmSA0Ndv+yrupysqLi5WaiQMVBs2bCjmzpkr76Fr6vPVq4X/4VxsBkA4F0fV+CZDAr2UgAEQeim4frrNAAj9JEjjMf0iAQMg9IsYjYcYEjg3JGAAhK93HA2A8PXK33h7WwkYAMGYEYYEDAl4JCAAITwcMTExEg1utK9OAszYGD58mOS06zn+fX377FkzsG79l319jHH/N1QCBkD4hg688dmGBPxJgADBbDKB3O9MAzTaVycByr6goBAVlZX9BhDGjB4lDH9GMyTQGwmEhoZCUYD6erXGhJKVmdn/Zbh60zPjHkMChgS+FgmwgJGL1fjc7gGpyve1fNRZ8FIG2PE/Wg/4p9EMCZxpEjAAwpk2IkZ/DAl8xRLgSXYgyvV+xZ9xVr5OBwlnZeeNTp/zEjAAwjk/xMYHGhIwJGBIwJCAIYGeS8AACD2XmXGHIQFDAoYEDAkYEjjnJWAAhHN+iI0PNCRgSMCQgCEBQwI9l4ABEHouM+MOQwKGBAwJGBIwJHDOS8AACOf8EBsfaEjAkIAhAUMChgR6LgEDIPRcZsYdhgQMCRgSMCRgSOCcl4ABEM75ITY+0JCAIQFDAoYEDAn0XAJk5zijiZKmJoThx2OTev5lxh2GBAwJfCMl4NK2NG5sLjegQGn9iRtgcWkXFEAh/4MCp9sNlwI4nU4PYRHvMfM+PkRIjLStUv7N/9pvm/yRP7ojtyIcVFD/5DPdcMrGq17t0kbJzV7yoj403m3RumzSusrXmOQ/BSa+W3HB7FZgNimwOx1ohAlOF68emOamnOGGyW2GW3FBcVO6ra1/FZAbZgUIMitQ1MHTRo5jTZlzkLS3y4C0/WbpqeJCuMUMs6KOkFzdxbhwzjW5nHDJt+my1L6VUw0mGQM2vt7k9WL958/uKcbWUpXB8ExpZzxAmJEUhgcmppwp8jL6YUjAkMAZLgFhhVS3YgEIQgLFXZmEUACcUERB8x92twl2buyaEhfcoCmFAM9G74aimFQtrz4Wiqb0dFHoKk9VSm2bU6CAClKoQFxuF1wK/61qDP5c/Y+d7Zui5hOpfEjAZKZS1t5NGGJWTLCYTDCZAKfLBbebMElBncsNp9s8QKPK7zShxZoEtykCcFYh2FEq79Yl1bcv9u22W747yEQ5qEyVQgSmS1r/t5syMstYtBlbAAEmINTC8SZ0U8dOnxcdCYnD7nQDzU5+l6pWFRMBGb9ffYZZe7c+RjKV2E8NOPxuRxE2ltQP0Dj07rFnPECYmRyOX3QCEGTgCd01ZK/+1bNcvaTCwW7FrfqUaYtltYVqsSIyMRXm0CD9uKA9Rz8+uAGXCy11dWgoK4bi4pbj3fQTi37uaN00/J4PtM1JgG3rp3Q6onpP1A1L393836IfgqQXfk45rdup+tTW7ax3k8q4ayAkoIAnMZ5kFMUlf7bOAXUL4jxQFZTPb2Rjanu6lWfxHtGdXtrR03WepPT54tlevea5/n71Iq+VoW6Pnntbt5jWq3Q9q6+G/j1D6gBBlYSuiNWFxT44CBygwOFyosVlUsGCT1M3ccAidMh+LAPa6VKXTCtA0FW+ehOVE/sjikpR4HSprJV8P0EC+0Rwot/l+UefppBblA5P0hZRzwQFak/5PYQCDpGEW+ZLvQtwuHwAgr6n+rWJdN45dU/mt5thtyaiMXYhnEE5cNO24bbD3HQQEZWrYHZUqracLk7nbWeHrrA72vPcsJjcCJLvVwUrbJValwUYcU7wBy61Dom+h6q/cyPUbEEA15gG23QbhLo3qu/3t48TjLYQdMpzqPgpea1p1pvWueSS3/Md+jWP7SjEhmIDIPRo6s9KDsevJqd2eI86zXUzoktQowwhUaNCLMnfckswCZpTJ646QXiNZzPTxzE0EsPnLUHu1k0wBxJ/m7UJTBOZaop0K05w/jha7EgeNgJ5X34Ok1sFCdIXt4KISdORNW+hulM67YA1GHA04tA/3oCt+KTne+QelxsBAQFITEyAzWZDWXl5h34fFtOIjo6C3eFASXFJh3JJHDwSSZffALejSe2UJQAIDMTu3z7cbnKr0EndSuE2yzeqp6j+3bh7NPDGxW0kwNGpDY9HcFMtbMEhsDY1QXE2wyInMdmORAHpZtWGsBgEOFrgtFhgcroQ3FjnZRbnPHbBabaiKTgGQfXlsLhVReIBkIpLTPHcvFzmAJjFfOqQE6l6LuXV2vwwB8i1cNnhMgciwGGDGNGVINSFxyHIVgtzcyPsEdFwNzcj0NYga7Ft+YH+m2utFgR1+/UGL1TO7KvN4UITlXPrFu71t1bRU6FS2foqBBViqKCMp2FVJ+onVpccDVXc5ZbTulynAxYNIMiOIX/XFWrfLQg60KC659ZDZclvsMApCsntciHAbBLAyPcSQNQ63LDT/K/vgXDBoXC/8zaX92xBUl6N5njYUm9HoyUeICxROFfZMxdCbKcRVPgaAl01nQIE9qkpJApOa5DmGnEiwOGCtb6qdf74gF+ryY1wvo6jr00yk0mBU073tJ6ooMxqUsESG3/f4nTB4QZCza3uANUZ5UZDYASagiJlHkQ0ViDA3uyzPlW94nC7YXdxTFWLkwCCwGCZb0GuRrgCAmU8YLN5ubPURz26vQAbiut6JugBvvqMtyDMTgnH/3QCEIjCBy1YAmeLDafWr5EJ0GwyIyIrG03HD8FuDkBUcBCGfed+7Pv7n9BUUaOhaip5F5yKBSbFDbNbtjjEjJ+F4pOHkTxtPtzWIJSuegfmpka4FDMCU4egoZkDaIbDZIKluhTxY8aj5uRJoKKgFSBAQeTE6XA1NePY0WOIcjQjcfo8lO7eipD4JNiP7/NsOGazGSazCcHBwairrYXFbEFMXCyKS0tbD4JeZkuarRITEtHQ2Ii6ujqYzSbExcahtJRmu9ZNtt4cjPFz5iP/+Ak0JQ9B06GtuPBnv8CXD97jd0rZFRNsJjOsbhfMLv3c1X+b9gDP43P68TIK0QkYuuAytLQ0IjgqCkUHD8DU0ghTUx0qCgoQnZ2F2qJiOFuaEBMbg4J6G6bf9UNsWroUEy6Yj/0vPweTwyZyUk9BboSNnIh6UyAyXI2odQF1RUWw22wIj4oCQkLgqq6CJTIapogYVB/Zh9iR49BUdBrW4GA0VtfBWVWKsXffj7Ld22ALDkXd3m1obmpAVGwCmiorEGANRHVMBjKyUsXK1lx4CmFWK07s2KSCEU/TrR59G0Z5itcaUGdv63v031EJ1DscsMPUJUAgvAjQTpnq/SqwcXnZHfhzE9cxf8u1Q0UspmsVZju1v0tRLAEOKrywU1NpitzT9z66GNyKCUEZQ1BbU41wsxm2qiIEKkCgySlWT+43zpBIBDXWCEgg+GlyArVO9TTL5jQpaEzMQJitBUpFcY8HRcCU4kZ9zAWoiboYoZFW1DeVIMgaBZujESEIR2OzG1FlbyKkdlvnxxBFQWlkssRKBEbFwlVTjkFDhqN+x3pP7IZIWduq+E1hZgWhZre4UgiIFLpVdPO+SYHL6RRFTneLWBkEX6vxA04nEGhm9Im+TlwwRcaiPnU4CvLzMGjSeUhqLkXZxvUiF906JOOoAQTOL6duFXG7YIqIxPCps3Ay9yDiU9NRtGcblKZGdXaKsNR58JttBfjCsCD0bL7NSQnHr6ek+blJM5uGRWD4hZeirrYG9aeOoaKxCY1hcZi4ZBFMp0+goqIctvzTSDtvOg6ufB810RmICbIiKikOMYGBqHIHIyZIwYFl/4TFbUf4iMkoLSnBwj+/C5is2Pk/30f9gW0ISUxEYFoWHE1NsCUORbirHgXb1sJiDoUSGASl7LRmgFK7Gj1xJpTGBqRdcDHMaIElJgk7nnkMSnwSnMcPeL6HNeEzMzPhdDpQUFgEm92G1OQUFBYXyUaSmJCA4uJSz+KlBcHhdMJut8FFROx2wxoYiKCgQNTVtqLPOlMgzps7HyVHj8KeMQTlu7ZgwUO/whcP3dtOlnLqDA2HOywCptpqOJuJjjWLQs+Gy7h6ACTA/SthwnQ4A0MRlZSK2MFDYGpsQGNyOuxlRcjdvANOWwMmjJ+Abdt2YGxGPGpsdtQ1O1BRUopRgwdh/ycfIjI8GMOuug4H//EqbPUNcIaGIuX8hQIqspZcidq927Fj3wFMHD4EMZOmw1Zbie2ffY5gOFC/fzsCc0YjLMgMV2QCYuKScPLdFzHungdRsH0TagICkTp+AsrXfYqsWfOx461XEW12Ivume1Cfuxthg0dgxx8ehQV2mVmiTNv4vfsORn2foCpdDRKJtVA1BTQ7gQYqa81Dr27uahCfb1PtD7r20eIP2l2l/l4PbDS3caorcEBdp2qgokkUERUUFYoOENS/6LaO3k0iqpmozCw0KAEwlRQgYeJsjJo+BUeWf4jhCy/E0S/WY/Cw4fhyw5cIcNiRM248Qs2BCI5NwD9eewULr74Wn/7rHYRYXLCPOh85AW5UnDqOIVNnYO/aTzH1kstxaOtWjJo8FfU1VaipqkLJqZPIHjMGgRYrKguO4/SO7erJGW5Uxt+ApqjpSEgORGlxE9KHJOK889Lx+fI9qCq3I6T8Y0RVr+z8YxUF1WFxCHW2YNjCS1G1ZxOUyARU7tpEqWpyp6tEfQwtYWEBZgQoTnEfOF1OBEdEYeydd6tWHbhw6rPlKD2wB4pbohS096tWZnHTqdELoB2AQC911GhsO5yHCNhx0XOvIveNP6J043p5u7e1imCUINBOgMC/a1Y5sSIkpGHaVdfjs9dfQlBjtbh/JGhUrBxq//8fAUKRYUHo0ewnQPjNee0BAk2HHMTwQYORMv9iBCgK8nftgD0kAqXVtZg063xYlAAU7d6OluoqmEICERcdi9DBo1G5bxeC0zOxb9V/MOGSa1CzawPyt22ACQ5EjZyMovzjGH/FLTClZWP30/8DS3MdTNxMp1+IyqJCOBQzQltqUZV/CpGp2aivKIe7stDzXZw40ZNmoeLQPoSmpMr+0thYD1dxHoIyR8BxYp9fGXATCQoORlBgIGpqatTJryFf/YaIiAg0NjbC4VAtHvo1kZGRqK6u9vzMppgw5ta74HQAyVmDUXIqV+SV++aL7d5tdgPRE6ZgxNV3Yt9rz6Ly6FHNvdD3TbtHg21c3KEELJFxiJwyHy2nD6O0yYkwOJCz8GLYa6pwYMcehEeGIyXUDEt6DvJ3bEezJRD28mI0BIRgyrQpOLz071DcTrQoZgTTVUBLUUIKqsPTcN55U5BbWYN4WwVC03Jw8os1cCakoz7vGMKT0hEfGY6ijZ/CFRELkzUISWOmwGxvQcmn/0LOtXeicP9uNNXWI3nBYpRv+hKNbjdiLW60lOShOjINrpMHMHzOhSgoLUOM2Y7iPVuhnbcHdMQ9G7gWYyGnPZqs3SY0OHXXpKrNufb8l1z2b93QXPpt+0+/NxQEmHQIpP5a9/dLIBstBy5aFfr308WlrgBxg4ejyqHAVFGCmGHjUHBgF8YvuQLR8fGoa3aifv9mFFZW48oHfom8HTuQGB6KA1u34ni9HXMvXoLK3Vux8aP3ET3nEgQ3VOOCK6/F8ZMnERoUhEanDfu3boerqQGhcKGoqhY3P/AwTuzejhCLBStf/QsCaqtB6EXp1sRdj6bI6YhNDkSgJQxBIRaxwDqb3SgvaURo2UcIq10lGRUdNsZMZAxBvNUMV1wiUF6MkOQMnFz/GeBWo0c87lEAVlrGrBYJQ9WDAmEyo8Vk1axLbgS5W2AWcKACMv5fz1hQ+6HOCXW+uJAyYgyKnBaEumwY99+/wr4/PIrag/v8AgS6k2waQNCtSNaIWAyaeD6OHd6PUWPHYf+6T+FsbNBcV8y6UPvy6635BkDo6bKY2wVAcIcEwW6zwxpgVU3kMfForq5CcHg4lMZmOENjoFTkyeQyVZQB8clQaiskkERpbII5Jk6mg6MsHxa6CsOjkXX+DFRWluPIwVy4HFzeVK1OKIGMazbDaXchJCgQkyaPR21FFfJ3b4fJbW9jQYiaPAsluYcx8rIrkLt2FZzmIJgLjiE4Yygcx9sDBE7SwIAAhIaGoaq2RsyB/hpNhJFRUaisrPREVcfGxaGmuroNaCD6pVuk0RSExd/5Hla/8JQsBqufjYm+RpfZhKDkLNQXnpRYizYnp54OmnF9v0tAtrLgEPFdBliD4GhpgSkgQMCnzeGAJcgKR3MTrOYA1RwbGAQXo9M5K102uOyMH3BJhLdL0s3cEsVmtYagxWaD2WqF294Ck8kMh90OS2CQGsXNOB5G3duaAJNFTuCWgAC47E7A3gIlKAhUlg6HExaLBU5nMwKsVthaHHK/02SB4rTLydkaHApbcxMUV4vAe2/zf78LTDv3t41HUIFAo0tBE+M8ZUVokRT9CBAsJtXJbdJcE94xCC0uNxxcb70I/utIRqojQzVUOxUzUsZPQbDFgsL802guOYWUCbMQZjGh0eaEq/A4mp12xA0ZAavTgSCrFZX5J1FmcyE1OwflhfkoO30KGTMWobE0D4FWM2ANQX1VKSLiElBeVIKWulpYzU60OExIyhkmlleL1YqTO7bBZNN98240Rk5FTfz1MAcHICTcCXuzCdZAE5qq7Wi2OxBT+DKCG3lw6RwtuWOTYAkOh8XEueyGw94MZ0kJFKguMz3ShAAv2Mz/OLucmlVBfTZdsbyXJ3yLRc1sUO1YalwGrT6tIbNqLI76ABeUkDA4YlKgEFQrLrgK1D1SB6CtWRJ0LTGeA7CpYSfqDAsJh517anM9zEGhMLmccNpaBJQQxOjpsb/elmcAhJ5uBB0BBEF+XimtMskkr1kP+FFjTUXViQ9QRYacOGqQIqNn1VmhGfokWIaBXgQacZnZiImOVlNgNI+USwJ3VHRpt9tRUlqM5pJCmAg2fPKiwwcNhyV1MCKTk3Fi4xdwhsTA1FIFq8sGx+mj7cTAzZVWAKVEoLsAACAASURBVCp+/aTTkawYrxBERN/YiKCgYHFP1NXV+wR9udBiDsTI2RdAyR4C56G9OLZpDUwMte2gUV6tsERPwurpiBnXD5QE2maXqBHV3ttaa7S1OFW1rVPdQPU0O3VjUzMi5AoqK23utj3HeT9f9ch6b+RaQoUGinWbunriUoNeW8Nc9UAnCXiU4GE9EryTk2M/CFHd3j1+Bk0ebjS7gEanFkimr36vvaTtq/2vFxXg+DY1IDDApO4tqn5gWqMbDmYviHuD0QsMjetKLfZMAN4y1pWmuoJp7DYh0ASxsopCYtC2dmq1mFWzOAMYqcRqHYzC1yEHcY6WVqWlTqpjqMEReUZrGqlvpkyLEoGWpMvQGDIeDpNZ9k5uPxa0ILh2A0LKV8DqbtbmccffKyPgpUhl1itmyYhQp7Bqog+yBCAALlgVlwRnegLsXG7QlStrQFPs3tYDyXLw/FzL6vHMFs2CpKe5CpBU4zX4vTbhkFBtJmrIo8qrwdRWAhKKSl8PXHvqJq0GT6pBlKpW4hN/sy0PXxouhp5N/I4BQs+e09ur9UnWkVr1t03I0JOsIypW/F4yndxMp3LBVlcFONSJ7d3EleCzmXXWZ55O+J8EPnVgbaAKcBF16/45Blb1s2mzt3I17vtmSkAHv/7N+f0rEw9A8I4hEJO/CQ12NUixt8tBT6Frs4bd6onQatYOH9ovGdXOgweD1+wOp7go+xsg6P1oVe2ymXjiJ4LNVMyKmrappaqoSko9EtCi0eICGhy0PFraBHu226f8cD20Hzm1JzZTOJoipsIVNRJmJQQOVwPMVbsR3rAVJmeTKEfvgM+ezABaxHTXkJnWMPI8MJlSQgloLSAwMElcgpzStXRHgc9MOdX2Ww9A0JR/ayhKe/eSquNVCxBTGuttdBm51LRJxY0gLViVsue+LE/QlITqlmrlVNCzY6gfSFr1yNbTBkDoyQTgtV83QGi7zHyUutf5Tf+Nd961WVjL1NOVeh5TESV9/l9FcxKdarNTUhfFdWA0QwJfnwTUqG/dwjCw/dBNwCr41k/C3LrN6ubu4Dmve833IOAvoFGsBxJ8RqXbGtugBiWq5Eg2WhDcKn1Rd9/dvR6qV/kDCPx+EgepHAhM29TyAsVyoN7T7FYkLkPtW8fNNyaqoyupQplmLuRUioIWRMCpBIo7IsBdpUmHJ2eNl6AnH6lda6aaNinielDBAn/Bg5gKxkiCFGpyItIiTBBtLDocP9395A0QODlbx7YtQJB/acGuzTChxu6G22mGU0izBBKIDYFZL+yP2jQ+EU+mhTqTqBZU+7bm6FAUPLbNAAg9ngazc5Lxq0WTe3xflzdo9JddXtfrC/Rl5r21eJuEe/3gbt/Y1gCtn1kG1qzb7c4ZF35DJeBvXQyUKFRSIt9Go7vN6UaLTnDWhabWfcnez/FdRaJkNFIlUQBtcvPVq6ky5LSpcRC0jYAfKBmoJ95gi5q6x3x/NUJSY1sURelCk8MBWx9pntt/gcfI73HT6u5a9dr2jpE2MvYIuS3s0e+0mHlKd6pU2dr3qFTW6vVU9MEmJ0IYc6A9WGQgHBy6C00Fq77/9phdfT5Kkxzq7A40uRQ57OmGAf0danaC+nzVG6GRZXlACsN/vB1xBAwm/HblFmw8UTRwE6EXT/YewV7cPvC3XHH55Xjz768P0IsMZTlAgjUea0jgDJCAf4Cgmpq7v/a74/rzjofy/XDdnaI/p5X+dyBsCO3F7p3CqUag8HxLN4jONqixdPpJ8/xKBlFiE1xwSkC4yhIqTHQe11B7gMB+iRVGF7xGSuXtVhHnrpBFmYSnQpoWUNvqllVjCnxdXv6ApS4LFSSoY8fARc/PdUoFHRx6anjoc03nxlAhDuMiaF3RZ8HNt9yCZR9++JWIvLsvOSsAwt8HDCB0V0zGdYYEDAmcOxJgUJoaUuY/V6jvX+qnDpCcKel2VEP8Wk3PfX9bd57QWphIV0qa21y7WQ3y/lqa24T6+npEx8So4bQe7Na5tamNwcPXOOtlwWlsaIDVonMmKjAz+0e18esxgz36bM+r9Ehd/W69390Qo9B8N7UgIMDiEfuNt9yMZR8u61FfBvriswIgvPn6QFkQBlq8xvMNCRgS6IkEyO9x+vRp4QNJSU7uya3GtWetBEyoratDUkqSSheun/TtLbAEWL2SOHl0p2LXYjz0P/VQAT07UbtfNxIxBVxnw6S1ICg4REz6kvVGS4ogElouyM9MIKVbMfQgM+33XsW7PH4FkbnHZKD+XUcunqw6Le5ANSFJ/+12Fxpq6mC18vvUZgCEXkxgcTH4AQgFBQVYuWoVRo4cgXFjx2H79u2YNWtWlymCvl3gZhQfH4/yinKhLA4OCVb9UYw89p4fWvRqZ6Yn72c3NDQgMChQaizoLGq634/P1qFrbm4ucnJyEMBaCV00muHe+PsbaGlpwZ3fulPyzvW+8tam5ibJYw8OCtLSebygbFeoVgHKyyvw3nvvyTPvvPMOeb5HCGSa07ImKJmqyipJy9TJmWJjYz2FTHgdX0f/YE9MufyGsvIylJL9b9Qoz/tOnjwpbJOtplqt+I0b2LJlCyZNmoj6unpERpErXYPxXgWs9AIrXcmXv6fp8d1//QvZ2VmoqqqSuZWUpJYb/9Of/4Tvf//7nnQpjscnn3wq9TO40BcuXNhK6ar5ONWYcaYzqRknXTWmuS5duhTnTzsfY0aPafWN0jTqdKK5uRlhoaFtfi7P7KJgFy/hnOR4JSQm4uDBg8LSqX+bbF2av97bH9tRf/ldR48dRWZGJiqrqqQ+CLlI2Dinhw4d2pqB2dVHa7+nfFauWImJkyaioaFR/OVZmVmeu9m/ZcuWITQsDBcsWKCx3mmGaL0gkvoh8u4VK1Zi0aKFPZ6D3eyucVm/SUAHCMnanHHBbbdj1/v/QFRyErJnLQRcTpxYtwoVBXnISE9DwswlwtGhjj7rfmh7lSh6dkzKOUrzCxDMJtTu+RLhAQGydBx2GxrCohE5aCTgtGH9ay8jZ9wYpEyYrq4tSXPU55bm8vAACc437ffaqyWf06Sgcv9WRGQOhSUkTIsg5XUK7A67ARD6Y/50BBD27NkjmyXNUhER4di0cROCgoMQHRWNKVOmdMCK1r5H27ZvE06BwoJC2Zi2bd2GiooKDB4yBPn5+aiuYlEQBfPmz8POHTuRmJSI6dOmd/n88vJyREVH4a8v/1WIjSZNmoQDB/Zj0sRJAmYICqqqq7B923ZMnDgRs+fM7joFUQHeffdfWLxoEdhviyUADoddlOnmTZtx4cKFKMjPx/4DB0R519aqfOuLFy/ybN6djQnn/wcf/BuXXXYZXnv1NVx51ZX44osvkJWVhdLSMlSUl2PkyJE4cfIEQoJD0NTUBDI78j6yPxK0jRs3Dnn5eYiLi8PxY8eRPSgbo0eN7vZU2Lp1qzx/7ty5OHDgoBSw+vjjj7Fo0SIcOnRIxopKqbGpCfl5eSgsLMSYMWMQGhaKivIKWAIsmDFjBj5c9qH0myRADBriz7rTKiorcfDgAVHOK1auEAU6dMhQkffGjRtx1VVXobysXOZDS4sNB/bvx5AhQ/DRxx+JzMePG49du3bJmFORN7e0ICkpEeHhEaKQu2qnTp8WOXOOXHf9dVi9ejXGjh2HkJBgmX+jx4zGqZOn0GJrkTGlaXb8+PEwW8xIiO/8+aSdXbNmLSZMmICWlmZZMxwnBsvR1MlvramuQWJiIlJSOy6QJngEwKpPPsGgQdmorKiUtcd+zZw1Cxu+/FJOaAEWC2bPnt3mlNTZ97MAGeuLkH+EfVq3di3mzpvrWRd19XUoKipGQny8rJ0jh4/IuHJcEhIShCiMJE7cF0KCg/Hpp58iZ/BgXHLxxV2u167Gxfj9QEpAQW1dPZJSkqVOQt3po1IAL3PcRIlNiBw0AnYTcGLlv5A+eRYqt65HgzUcsTk5qCksQkttBYbMnY8DX25GXFoCyo6cwLjFlwMR0Z0ChPId6xE3cbq4NewNdagpzkdcVg6OLF+KoQsuBRw25K77VGjtB02dhn2ff4bGqkpEREdh5PmzcHzbJthr6xAUG4WYzGzUVdfD0tSE0toqRIaGIzozC4XrlyNl7BScPJWPIdPmIXLIMAET5NFRLQitB8MbJQbBcDH0aKZ1BhC4CfGUGxoSgk8/+xRhYWFISyV17Hnq6bcbbdv27YiNicHpvDzZZI4cPiy1DUpKinHJxZfgs88/Q0pyCg4fOYLQ0BCxNnDTY1GlzhotEgQrb7/9NtauW4eHHnoIX3yxHqmpqUJwFBISgrS0NJw+dRrnT5smCqCrvCem9Lz7zru45tpr5HS0ccMGzJg5QzbJlStXYvHiJXjvvaW46qqrkZt7CFS25005D6lpqYiPY0W1rtv7/34fV1xxBd5b+h7mzJ0r76iqrsbw4cPR3NyEjPQMUdRFRUW45ZZbUFRcjK1bt4hymjR5Mj755BOMGT1aLCdEyVQek6dM7vLb2DNu8O+8+668h6CHFh2OxWOPPYp77/0R0tPTUVRYKKAlOzsbp/NOizXlumuvw+YtW0Qh8Z1Tp04VcPf556vFqnTq1ClwHnW3lZSW4NixY8g7nSdWoNSUVAFGjz76KObNmyfKmCCUSp8gbN3adSCwIBAjKOLY7tq9CxdddBEO7D+A2rpaTJ40GSkpKV12gQCBoJRKjif9nTt3Ij09DWVl5TL/OEffeusfouRnzJguAIEkWQSc4WFhXT5/y9Ytwjw6bNgwvP7663JfdEw0jrOoV2OjWNBuuummrgGlouCzTz/FqNGjpKro2++8gxnTpwsQ3rBxI0aNGilKmWuAfe6O5Y2WlldffVVkVV5RgdGjRyEuLt6L4c4tACI/Lx/LVyzHsGHDMW7cWOzauQt19fXyTXzvp598isVLluCdt98WgMZ5aqXf2WhnrAR0gEArWdXebQhNSoWjtga7N2/ErNu+LWR3LRWlOPDCE0jOHoL4S29G2doPUFucj8qiEkz6zt0oLarC3jf+hFFTZyN9xmIoqdmdAoSq3N2oPbJbjUkwWRA5dBJCExNRvHY5UhZeDVfRcez4fBVi0rIQjzqUBETg8Ib1GDtrFmJqK1FlsqKuqhxJ2cNw/MvPEB0ehrD4VOzZuQWz774PTacOoamsEpHjpyFv03rEpqchZuoF0icVINT4uBiMIMUeT9COAMLJU6cEGBBh0qR9+PBh1Nc3YNiwoW3Mkl298Njx43JiKikulj83b94sJtMRw4cjMysT+/buA6mM6+pqpWJiVlY2hg8f1qXZkhsZCytRme3bvw+XXnKpnOxzcgaJmTc+PgER4eEoJmWoAowYMdJDndxRn3lSf//99xEeHiaWCCoPAg6a9w8eOihggKf3kpISVFdVC+UtFXtUZKScbrvT+P1UsJs2bZLvP3z4iEQX08TPSU3gVVlVKc+fO2+eAKr6hnpxkdTW1orFgECNlgsqZo7RiJEjhc60q0aAUFBYIN9EuadnpIuSeeftd3DZ5ZchISFRTte7d+9GdHS0fCdlHBcfL5YUgi2egidMnCBjtWPHTjndl5aWYM7sOV29Xn7Pb9m3b78Uv+J8IuhIS08Xs3l+fh4GDx4sVpMRI0aIot27bx9ampsF3IwbP07eu2fPXmRnZYmZnUCluKRYQFygNbDLPpSVlcm47dyxQ6wx+w/sx+TJU2Q8WDOhpqZWwEtCQrwo34bGBgFsCy9cKJX6umocw+UrVuCSSy7G8uXLpYooAXBYeLh8H10h5009r2tAp0DkNGLEcJSVlslYkFGO62bDhg1obGpETHSMAClvP2tn/SMIp7UnKioK4RERCPTyz/I+VjA9cuSwgBcCN1o7MjIzxTLHwmX8e1ZmJnbv2S3zvSC/QNw/c+bM6faBoSv5Gb8fGAmoACEFLqcDxXs2ISgyTlhv927aiNk3fhsuWy2qt6xFXVUFwuMSETlpDmp2f4niA7thCQpFzqIlqKtzoPE45wKQNmMeEBzRKUBg3MGpFUuRueha1R3B0ukKULz1C4Q21SMgPgknDx9EaGAA4qdMR01pCQoPH8KgUWMRXF2G+oAQNDfUIjopDSW5+yQQMioyGqeKijFszgLYy4qFZryqKE9qjwQlJCN8xBRxWaguBgMg9Hk2dQQQ+vxgjeFKvOUamZHfZ3oCETQFJzzqZil84z9S+esLBmb/8/LzsXLFCjnN0/Tc/WSu/pDoN+QZ3fD3f0Mk4fczCfJoMaA1r7uNLgO6iAbl5Pitqtjd5xjXnX0S4B5FK1hCMi1sbjRXV8LpaJG/WwKDEai5CtQv8xdX78u3oMlA+7HEIGglNoU0ikGK8m+v3VEyODxMBp44lnbS9FTc9E2b8Olam4wG73+of6fboqG21rAg9HW6DiRAILtg9WfvIKCxTq3L0GlTAQKDsyIuuBau4BAphtQhqOjrh/fH/Wd8jkp/fGTnzzAA0sDL2O8begiihL6WNVMMSPs1DdjX91ruvIwpCg2P9KnL4C+yuvsrWpIJ3EBzUzMCA1r3apOkPLblVpDiZd1sHV3qj2eK6bT+GuvnMDDSOzhdjUEweBC6OQzqZQMJEJjm4szPBVpaOrciSE9aTeQBaUPgsgb5BRWCQ7s/h3skC+PinktAT5nq+Z3GHYYEDAl8FRJQyQbdcErmmPdp25/S7uog19pjqTlFWigTOS9an8Vg3dY0RfV9LkmZ7F5ry5Lp+762zyBA8Ad6FZOa2eTdDIDQPfm3uWpAAYK4F1oJRDrsnrfC9+SyKghwKXB4kXp0H4P2QhDGLYYEDAkYEjinJdBuo/XztT07fQkpo1cdjvYPVJ83cBYEFaS0bf41hQEQejG5BwQgaLSc3TFnOp1OCYL0W31OTFhtnE29+MIz75Z9+/dj9KhRZ17HzuEeVddUIyoy6hz+wtZP6y4vBQMqufa6E3x5tghO5xI5U/qbl5cn2UGdtq9gi6MFgYG+zH7qj0ZODWY4MQj3bGkGQOjFSHUGEHQcxsnAnHzm5ksxkk4a88eZotih0ve5l5OWG5Q/gFDorERLdT2yYjM19q82FVp68bX+b2Ek9okTJ9qkirE/jJIfiLK5a9asER4Co311EmAWALNozvWml+dltoi6Xjs2GXOD59rzTllm3M++40VgwSU1IkjjxFcURIQGIju+81TP4yeOw2ZrLbeemZHhpUQ6hy48LNTU1GiEVx3vM2FhocLX4dsqKiolA4Vp2F2nififCX5C4/o0ZQ4cOCApvL6tqbkZmzZtlHRmZqIwG6irNOy+dITzgvtcYKD/TB+7W8Hh/Eopl83GtNUhKZFSydFfXUyOFdPJw8PD+9Ktr/ReAyD0QtwdAQS3opcldUs6HXPSm5uakJaa3OlELiktlfTCvXv3agu18075Awgs22p2O5DrKoWjogkjErJgctPLpfKIM2e3w9aLwMH8ggJJ1WMan97qGxpww/XXt7IpdqtGe/cGwAAI3ZNTf171TQAIVL/cuAlqyRjJAC2mNHbU/AGEelMobv3f/2DUlNlCy2txqwqDMUKRShN+MqtzK8yLL76Ia66/3mP2dTltiI2Og9vkAncUl2KCWcj42gMAEqjxMEJuDn+/17+DadKDvBgg+XN+M9krqXBTUlMk3ZnFesj3wN+xXkBaelqXQZr5BflyjdliEYI4gh0qQXMnQKuzeeoXICjAI488ggcffBAhIaFYv26dpL6S04Pp1OTzmHb+tNbDiQJs3bJVuDm6yz/j26euAEKJMwRPflKMUPLFMAugpQk3DHdhVEYcLG5Hu080AEL/7E69UFf98+LuPqUjgFBb3wAqe6LEjIwMyYdnOkt9Xa0oaPIV+KvZbrPbhCBm1sxZQqzSVfMFCAxmOVSeD7urGXnOMjhqHciMTkZzRRPKjucJRTODWDhByQT3zDPPtHnF7j17QLMeSWk6Ov0L++Do0Z68eRICkXyHGxRZ/Mh+R/a4W269FVs2b8aU86bAbnegrrZW2BuZJ065kN+cHAi0rpDpjkyHNGPHJ8RLShlz331zzdlZb4DA57QG9XQlrTPj92ThY55xoEb92+NeKYow8fXFtM33t6PP7iSyvx1A0AKsOio76/1NnnNvDzMHeiyXPt6gA4SW5haQFZFzNi01VSxjZFGk9c9bZv4BQhhu+t2/MWPuhWpdQrcDZsUNM1wIdDbgu9NjwETkjk67L770En54770eBV9WcBDKiX9LkJqZUW0BCYgadyNIEu7byFFBmmfyOrg9vPzthcI0z6z0DM8veOonvwgJxErLylBWWopBOYMQEx0l/BpZ2VnCnElab65Jkl+RP4R/mswkgwuAzdaCiPAIWfdUxDxtc4/hGqfCJg+Iy+UWMq2enPQ7Agg//tGP8Yc//EG+lURvU6ZMxprVazCc/B92G5KTk3Hq1GlkpKfLN7315pv40Y9+1KEFoKup0xlAoIWg0BWBP26oR2QAy1yRssCJaXH1mD0kVvgSfJsBELqSePd+f9YChLLKKuGWJ0GKVE3QggcDA61itiR7m77BK16n6xabHa+99ipmzJiJUSOHdxmk2N6C4EZxfTU+XvERcuaOhrkRGJKUjWBLGIJdmlXD7cSx48fwwvMv4Nlnnm4zErR2bN6yGRMnTBRWODY1jIEV5lQDYoJQ3lYJwRBb3unTQhtM89u6deuEyfHVV17BNddcIxsPAQLziLdv2yZkRosWL8KHH34oGwlPLGRUJAUwTdgkGIpPSMCyZR9gyZIlfmtA6ACBJzQ+T0iWzqIITPaZpmACKb0sq+9y6Cj+hENBNrcGIX9qy5ZJ2mb+jJu2Rx5iMYKQJel1N3iKYl4/iYz0xjQubsaTJ3uzSrYK1RcgkG7aYXcgJiZGamywEfhxXrdrCoRyOikxSYiaHE71REUTPu/3NB8AQQVElky98dvJFKqbeXla9W5UFpSpHn1N4Oh0uoQel8yhMpfdQHqaH/4DqYHjFtnytHvg4EEhHOMa5Rpm/3myNpta09E6Agi3/m4pps9dqJbMddswPNoFU2M5muqqMX1YIhISE7zma9uJqwKEH3ksCKWFBxHfvBwmFVag4lAJYuc+AJvS3hdeWl6OsFAdIPh3MXC+cc1lesmAP2tsbMLJEyeEBCs5KRnBwYFy2uY3suYH61rwUENW18NHDmPQoEGypnnoodxtdruQUJEwi2yVvCYxMUksD8kpyVKymGRu3nOuOyqgHUDQPuutt96SA0pcPAmLFMyaPRtr166RfWv1mjVCPlVZWSHrjGyppL6/5557BgQg8DuKXeECEMKtqnWWc256XD1mDiUgBEw+VlsDIHRn9Lu+5qwFCOWVVaCZnSxw+kmci4jWAypeCfhSIIvLO8XlP7vzMS0nEe+v246rLjgfUYE0LXL38r/gO4pBeOzxx3DpvTfCXtmEjLBkOQ0xtoF0yNwkWRPh9ddfwzNPPdXG33jy1Emh5r3gwgswKHsQnIoJTfS/NfHM4kJYkBUH9u5GU4sNY8eOkRGU6nZBQWhuqBemRFI0s/YCAQI3DJppGaNA5cFNZ8/evRgzZrRs5NyQeQ3rAcydOw/1dXVCr+tRnH4UPwHCnHnzVI5yHSBoHt+up9TXfwX7TOpj1nFQtZYfndpBrAqtPxzzhoY6D0CgoiTtM5Ug2QFpzdEblTetOjGxMairrRMFS6VXUVmB2JhYz3VHjx6XeUr65FZK5FZyFl+AQGsRFXBX9RX4At1kT/CnN4GaPoBA5iaLyGjNU9NeA4JU1AQ53nEBaqEx1SLD+RRA7nitcBnlUVtbB/rx+Xu9L3rRJl+p83sIejhHt27bKjVIeC37yb7x/d6tI4Bwy+/eEwtCsOJEWkAFQisPYNjgYWJJ/PLLL2E2mzBx4gSNhKbtM//4pz9i4YL5aiU/txtJMRYkOL+AGU7YFTNqDuYjfN6DcKK9L5wAITQsvFMaaoIzgrS0lCQP2CFzKtlHCRJYs0Tkq0BqilTX1Iils7SsVNhVLRazAAMCu8LCAomP4H9ms0Vco4dyD0ltEM5JggFSSbN2RW+tXf4sCDxQcE8ZOmyouFTU/VWRuiMjR43Etm3bhAqdSpg1bDgPjh07Li7P3gYZduViKHKF4y8bahGmFT8kQDg/rg6zh0arjAY+a9wACP2zD5/VAIH8695sbeS/Z+Eeb4XATSYyPNQjrQeX5eL7i0bj+ZXbcfv8MciJcMnkUljq00/rCCA8/vjjuOO/70agKRgpEbFCgRsaGiY8/Wykv/3Dc8/hmacJEFqbDhAuXHih1BNocFrw8srtGDlmKKprnQix1yLVXIPmpkYPQKDC4+bpbUqjiTE8LFxcCTwJEghxUVAm/OahQ4egpKQU0VFR8m8+Q06jJCQJbZWHv2/2BQhnQ3Q9XUfczGiOJa0zAUJSD4L+CKRotuQJlpuVDhAIAEgpTKppKn9fGHn8+HF5L/3HQYGtgWneAIFz6MSJU0IDzbFgQSGCDKuVFejUnc0XIJACnKZcvpfjysa+6VHZVMg82VHZ8gnFRUVSU4F916tGErDSGuBR8Kxd4lVDhECaSpt9EQXDAnRmwmX1KzlXeLLnaZbXUVGwWqguA84pKnb2S48t4C+pzGjy5vO8A3xpimbsz7Rp52P9+i9EydDFoCKL9kCuM4Awc96FyAq2wZK/DlddtAjWwFBNlgpO550UpUuKdNUu0NroJqg+uRFmVCIgKAhJseEIVirgNFnk2rKDhUiYex+c8G9B6AggkOTJ1mLDkaNHEBoSikHZmR6ASdceQX6rpZO0K4r48TtrBBXR0eoJWW96kKf+Z1/VgC9AkHLbeXkYlK3WMeiq9Vc/OgMIdKM0hqXgz1+2BQiTo6oxfyTH2AAIXY1Tb39/TgEElv5lhLC3b1/MbpEqJzdbtSUYQY4WtJgDEcxtwNWiZSD0zIJAgPDTB36KkNAIsUDwJMAaBDqSJ0D443PP4el2AOGUxCboAGH9GORopgAAIABJREFUsUqJCcgJN4n1Y/XhYoxIjUbRgd0YM3aMROjS9cCgTMXLjCYleX0CE1U2Orpb1HLIvW1nG0DQDw/Hjx2T+hE8JfcUIHDzZjVCcvlT2ekuBpaapnWApl7fdDBex+JKPMHRhx4fF+cRuQcgKJBS1Lv37JO5wYqOVPIcp5SUpA4BAs3UVMr+6Io5tlR0jIiNY5ltt1viU1jZtKNgNZ5q6SryjhInuGRjJUwqBoJQ9lG3ILCPRUWF4m92OlSA4AlCU9TS2NK0mBu9TDRPkbQsUMF7ZKLtNJ45S6tBFxPUH0BoMIXh1t/9CzPmLEB4TS6WjE5ATg5LQnN9qE90ux345S9/iV/84mG/Ee51R/+DUNNJKUxlVlwoa4iDNX6SADYLzMirhoypbw2JziwIBOwsXMYYAMZYZGWmeQ4q/nIjuqNY/a3x3q7pju7rKItBvLY0dHxFrsXOAMKLL7yAS75zP/68sR4RAa0uhqTa3bht8WQJLvW1EhoWhP6ZKeckQPAWDdOpoiN6n+rSmQXh5w88iGDtNE5fnDdAyBULwrN4+mmfGITTp7F2zRoPQFix+zTGjcpCQgADrtzYcLAA6YNSUbRnq1hDzAIKxMQBd5d00P0zKc42gNDmdGVSpIhSTwGC/gxuyjwZ07fLUygBQs7gQdi3d6+ceL2BFysuslIjTb0sykSLkN68AYJaXCkZdpsNBYWFYmZOTklBGAPKtJ3N14LAWBX2g8Wh/DVdGesbIwPjGB/QUUEof0qKCt7bneDrghDPm6YgfJU5319cXCzxETSVi1y8dhPf/vVmZvoDCC2mYGzIb0RIeCjqj+3D6NRIKeqlVttRe2mCCz/84Q/xv08+2YYBVe9D3ZEPEWpRS5YDTmzOdWHwlDsRHavGa2zfthUZ6WmIjGhb4KwjgEBwkHs4V4AU46IIAFOTE8+KuB1/AEHRAjBditMDunozfj25pzOA8PyLL+HS7/wEv99gQ5RVja9hUafkmu341uJJ6rgbLoaeiLvb154DAIEmSnVj0C0I/gAC+Q+OHT0mfO9Dhw7rdvnXjgDCs889i7vu/p6kPLFJpkBgEFiCmr0pKiqQ+IOnJAahtXFTXfXJJ1iyeLFs6EerHDhRZ8eUrBjY7U58nluCS8el48jOzRg7dqxqQYAL5XVOxISav5JCNmcrQNClrMcg9MTF4D1GHHMChNYgxe7TsLYDCJ4Hm8QyQcBBVwUrQqq7mn8XAxU+v4MxNrqLgcrcX544n1BVVYngoGBR1BI3AEj/O/MJ8zvV2AFN/bvdMp91KwTntHfzfX9zS7NYCRi4RyUpOb4Agv1wAOjPYf9krXRyjX6tP4DAwFk2WtWqa+ukmub8+fOhSF0U9XdVFaor4/zzp0qFPt9Wl/sRlMp1CAwKkGyEHacCMW7RTxCpxYxs27oV6akpEtDr3QQghIZ7LAuUMtM1WdmU1zIQNSU5GYVFRcj2siAwVoqxBbovnyXL6T6YMGFil1aUbu/kvbywoyyGIEcoaspqEZBg6pJbppevbnNbZwBh1WerEZM1HB/sLJPYLFoIw0KCMDGiGpctnAmTGBDaQljDgtAfo+K/NFb/PLmfntJRmiNPiETrLH2s+k7NsllMndrWr0cLQmRkuAQNcoPjddw4qZzBgK0uUsM6Agjrv1iPsDAvy4QP1OJjaVqeOXNmu4Vw5MgRKYcrKZHWAESkD0deAyPjXTC77VJmeEpqCGLDQsV8VuEKwvs7T+HK0XHIO3lcXA1Fp/NkY7RYeIUwMPSTxNumOUqQIjfKLngW6AI5UxqVFSPD/Ub8d9lJFxwOpwAES4CaxSBf1kNTKxUAAxp9W0em5b7yIHTHZN3lpw/gBVT2ZOiMio5BdXUNIiMjxMozauRIMct7Zxp1BhDadFEBjh8/gRMnjmPJRRfJGuDYL1u2DAsXXqiCKT/j5mypg6Ox0mPw2LX/KMZMnIaYGNVFxADKNH8AoaxU1rykOUrWQJ2kDvPfXCeDBuWIi4bBhdmZ6Z53Hz52XKwLBEXkQuCfBP5DcnIkVVv2ivp6CVruqtHKc/TIUcn4ICDUGz+TqZD5efkSM9JdF6MHINBCKcIywQELgh1BqD1cDgRbEJ5lgl2xYMe2Ldi7Zy+uvPLKdvwV69evx7Rp0waEB4FlxJkOyr1Y4qxqa8XtR5Cd4ZVO6i07AyB0NZO69/uz1oLAYLyS4mKPcmTg1/ETJzBmzLg2X85NngCB3ANcpJxkNN8yJZAnpSWLl3RK1tIZk2JXOqNDle0FSqSgCKvYKQyuo5/Xia35dticLszMCIFJceNUkxkvbyjCiJRIhLeUI81ag+2btuK2227Dzp07UFJajCFDhmLY0KFtwQiAhvp6IVXp7FTnO1W8eRC48TE7pFOAQH90J3nh3ZuKZ8JVrSd6Bu7pm2xvAEJPGe/6ChDOBOl11gcC9UCxsJmlJDkzcWqqa4Sfg+Q3vQIIWqYG4zXIL+J0OCSeYsqU84THoruNGUD79u+DSVEBIYNDL7zwgnbBvIzZYLBhSGgoLNZA+TsDkwnOmEHBQFE2Kq6U5NZUSwKE9PQMVFVWCm8BgUtWRjrcbqco+/SMDOzcsQOjx4yWwGMefDj/CEAIOGgFogWUPAi7d+/GyFGjcDg3FzmDB4u7qry8XOZqYFAgGhoahfuEQMkaaJXYEa5/HooIQlTLVWtrY0FQXChqDMDRkmosyEhC8f5ChMVFwppsFkKqVWs+lzgcpjUyZZrP4rv559L3luKG62+QtMeo6GhJ+2W8CvcPZkTomT+U1ZGjR5GclNSG5bDTLAZtv+QBkHFGfObYceMwlOyOHTQDIHR39nd+3VkLEHw/i+iXi8NsptlQS8gGZDEybV0HCDaHXRb+0SNHJP2Pp0Uq2lMnT+I/H32Ea6+9VgLJ9NYZQOjtEHgrDzK3WcQk7ALBgsmtwKm4UdOiIMpKd4Ub+YWFCI9JQmBoBLbuP4Fpw+Lwzj/fxnXXXiu5ybRGMNo9N/eQpNYRPGVnZQlgItqOiIzE5Zdd1u3u9o5J8cyxIHT7Q/1e2HN3Qt/ep959zgOE+noEBgWhpKxcQDoVGqP9eZpmWmJRYb7GD9Cq2P25GPpD1h0/Q5/DrUCxo2sZn0leDKbb8RBitaquRj1bmnEQuvXi8NHjEnBKpc24htTUVFgkW8Qtyo7xKoxTyczMQmxsrChBBtvW1tZqICpYAphpGdi8eQvOmzJFGA1pIeN6J3003Va0kO7csVP4TwgsCJxoJmEmRHR0FJqamoWAyRNcCgg3B6mWha5YcWF/hQlOJRCbD53GzeNTkFvRgJBgE4bFBmP12tVyqGKMBdMtSebGFE7GXnEvHT1qtBA+MSZk8eLFWLVqleyvU887zxOfQyBw+PBhkAzOOx22qzTHno67ARB6KjH/158zAKEzcVDx6gCBC5Jolgtj+PDh+Pvrf8cdt98ut0vEdlJym0cNNEBo8zJtNFRucd2rpuD06TzZOBqabHICYXDb56tXCw/Cli2bERsbg/Jy1e86ZsxYlJQUywbMExozJIYMHiKskb5ZDx3JrHcAoX8m5Df1Kd8EgEBlpZgsYkHgSZRuIGZWcD43Nza2K6zz1QOEfph9utnQy7xIV0pZWanPUlckAJXggCdtcmkIj0mARWIa6AIl5wmtBsI9AQgYYFBsU2OTKH7GPBGkMK2Xa5sndabdkqWRgKWyokLAWGRUZJsUXO+OtFoQFAE39S4LPj5QgUNlNiwYFoXDlQ7cMjwEVrOCQ7n7MWzYcOzevQuFhUWYNHGigAAChZJS1hJJQkFBPtLT0mX/YWYP3S8ca1o1OmsGQACMWgy9WH8dxSDs27dPTsbp5C9nXQZJ7WN0qxaZLcFMavoLAQI34KX/WioK87rrrpOe0HT38ssv4/bbblO5EBjgJceA1tXdEUCgufG999/HLbfcAmYsiALWv499EW709uk35IIn0v+vb39bjRrQGOakypsWUEWULu4GeZ6C4pJSvPK3v6HJ5lC/k1G8bjd++YtfSL55UFCgmA/ZV4IfnhAkR11LSyOaJsrvbjvbAIJKCqSJ2+0W+XYXDHUkE8qMptk2rhXyAGhBcno6aVebXnd9wWcKQGB/9Qqm3Z0v3bmOc5K+5IamZgnU1AuNcQ2aWXDHT4yLL0CgSZ8MoUxl5ik8NU2ladb/0zks1HWopvqSfphjxrWxYuUKXHzxJa3ROtqkkVggbe3zWvHG8z6fecQxp6WR8snKzpZaCmwqlTkDRCH1UlLT0tqkmzL9sbCgoK2YFEUUbGfxQ74VPnud9tjJMVAHCAQH3FmEHM1twsaT1ZiaGY0Pth3DqMQgjMxMhcXdWuRK25qQeyi3W5T1Xc0RX4DADKHnnnsOo0aPEhfGzBkzhaOD84h8E8HaPscYEA+XhtdLDAtCVxLv3u/PWgtC7uHDsnnT7MYoYSJVcrnTjEamOprdWWiEVb9U9m61ceK99/57aGxghLZbqpSRNrSjfN+OAAIVMomZ4uPi5ZncIGhupE+VfrnsrGzxxembiP7+N954Q3yFJEmhX5GBjCNGjMDOXTuFU138jS3NCA4MFESuD5AaBNga1aCCBJUhxN/m2r3h939VRwDBQ9ijbYy+d3PxcqH7Y3XrKohOr/fQU0a4mtpaiaSn6TQkNESIo5i+5k8x9ySYk/5f8uLrEtfT9mgm5vgyWI3Mdp01jm9zU7NKVd1F8wUI7CtZ6rwbaXoT4uPlR+Q94LzzbrQy0WTPcWAfCRK9G5UqG79BeBS8Gkm0aDrmlCLb5kBVwXNrSleCaj27j/857AsQSEfMfhNLsK9c24lJSeLb50mcfnH68CkbYSAMCZZTNxU9LW5U/gQXh3Jz5Z7xEybI3GlsbFDBgIuUyI1Ch0x+CT6T61jnQyB9Nt0inMt04/HkzwJxpC6vr68T2TNIkPTEPPl75qB8avuIpJ6C2F4DhE7mng4QJBZKKItVVlm3iWnXLrhY5UJxaW5Qn6irfqz94Q8g7Nq1S6wftK6cf/75YlFhxgznQFx8PBx2O/7y/F9wxx13Sk0Zzlm9+JcBELracbr3+7MWINCPRb87TWzVVVUIj4iQoEUqWS76iMgIBARY/aYFdqWsvEXXGUDgJkxFQjBSUlyCWbNmyUYUGREhLG4Txo9vNwpL33tPgqkyMjMxevQorF69BvPmzcM/3noLg4cMlnz6K664QpSs5GkLciGyJxFMK0Qgr6JbfucW/oT+bH4BggIsX75C2BgZHOSbAsb3c1GSkCcpObnNdkiFRSpZ0gazSI9vfjlT7bZv2y4b7KjRo9vVQOCzSS2blsbI8NZv5TiyZgFN1eQi4NgzSIrvp9nVt+lpaTExLPDSeaMpN4J58F7v4/cxmpr+XgbdUXl01g4cPCC1LjiuXWWZ+LMg6LU69HcwA4dAiI38Azpg039PszKVJuVCRefta+Y1utLnfXp9h9Z7rR6fsHx7eGswG0/OVK5iNaES6QMJV0/mqS9AoAUiPy8P7/7rXVxzzbX46KOPpC5JXt5pFBQUYsb06TI+CxctlG9nYSMWZSMgf+ihh9DY0IiHHn4Ya1avlmA/xhsRNK1ctVKyjRihz4BcUkczHXnBggUCMvTaEwQIBIY8CBD8MViPymrM2LHCk8EaCUePHpW4JwYt9ncbSIDQ2772B98F3+0LEDj2O3bukL38yJGjWLx4kYA/HsQ4xpwHtCB98O8PJLjzyiuuBNlUdTZTAyD0dkTb3nfWAgQuYFLX8gTJUshUplTmYeFhgvKpOOj7IuJspyjEBcAtW88Z7zhNsCOAwNMbo435e/aBvjci3XHjxkmxGJoayWPg23bv2S2KRyKvd+/GuHFjJR6CdMYsE0t+hI+Xf4ypU6dKgSUCAKfJDbtCSNC2BbgsWh2JrwYgvPvOu8jIzJA4B39R4uRkZ9R0YlJbkhguVn4vyYFqaqrbpf8RIOzbu0943nVufv1LuWFzE6KMaGmhS0WNiFYEaPE0yJ9RWfPkmJKaKqcJ1rPn72nR0emFuYGQR37SxElCiU0wwbnC3H+emjknuAmx+QIEun94ouHYcdxHjRrpeS4VOfvo7cYhJz/phHn6nDxpkoe/gBshwQXBkHflwnYWBLdbCnHpjS4sX1DGwDC9UdExM8DbckJ5MKVWbzyFsbG/+/fvbzOZCGJYb8Lz7RpA4NjpsQI8NVM5SoqwoqC2tkZO0SrhUP83X4BA1wSVOQE1rSUcDwJSArbdu3ZLIBwZShlXxHXIADoWJOM4E8THxsZh7949Gh/FKQmeowzpEiBYL8gvQFFxEfbvP4Cbb74Z7777Lm679VYPsOIqo2Lis/gu+uFpQWAsAecOmTiZOUDrBdeztzWMgI1y5DNoVWRNjp4Cra8KILDQXM6gnG4N6IABBJsNL774Ai666GKJH+Pcff2113D1NVdL2WmCb9by4D7LfZ5zYfGSxcjIyBRQbwCEbg1flxedtQChTRqZ/hUd/Omk71gnpZEwYzodFLy3dKkoCG4iHbUOgxR1p7duJ/XuUHf0tXcwk0Zu4wEAbUbFjfz6MpQGN8PEQvVsbqChqg6TY4fD6mZxnbZFePRv6WmqnX5fRxYEbphTJk+RTdQfjzwjsamkfMl8eJqj/5gLmXz8THHybVSQBE/z55HbQU03o+y/+PILOQ3ytEalQMU7YvgIeRZPlMIGqPnNearTASFBB0EJ+8MTIDcy1jfQaxbQ2sDTHqmMGRxGchvSAuvmZG+AwHv5e9Jn874hQwZLTQI97oXuJvbD+9TNKG8qUn4LXQUEPxKS4narwCQsVCUx0uaKL0AgINnw5YY2YiIAGa9ZpajgybXg3UaOHCXVACm3vfv2oqG+oc3vdU4ORsezoFdrc2PY0GGiaH0BAvtLRa1WFLRJf4XkSIEoYP68uwDBu7JmVxYV9sNvkKKwO6qA3jv2hErEQ4XtvQ9o66U14MfLDOe7ThXWtCiWOcZx1i0HbYSos0tqdOaeNebvndqNXLW0FKoxB8DOnTuRnpaKIYMHC7Mm129tTa0nLkN/n658JUZCO9BwXhF40ApGrg5a5IYPY1Va3sUDj8tTJIrvcrmc/r9De4k/oiRa6/72t1fwi4cfbsO0yfm/fPly3HfffRI7wYJxk6dMUd2omrtBxsbr8NWlBtIu8BukqMnas9X6PKzd/ua1bxoAobuS7/y6sxYg9OTzXQrN8Fw+zbCVn8I/31+FWodVyFAmTpggecgd5fn7AwiqH9QtJ4nEhETZMBsaG4TmtqtqZlzQ3IRYopWUwAzAoemYNeJ1Yh/fiV9VX4MjhSfamKkZkDUxZyRKKyqFdpS+Vu93U2mxX+w/Tazd2ZA7BQiAVMpjDjhPz74V+3gqPniQleaGtPO5U1akouUmSAsEyxJ7N27IrAZXWlKC86ae14YumJYgVrk7ePCAVLGjRSEuLlYUPk9lLJIl1ewsZqmoyWhxOUVwC/PSBbx+x44d4ndmDnl4RLicDFldUE7mPv5Ub4DA95SVl4lypMlZjz2lz1vdllWlpTeeahm4pl9Lhj0SA3lK8erv8lp9/mIQKsorPM/kPGlTG0BRJM5Ab7ToMHDL28pEBevtppCTP/P8HSyHXdtmDMLCQj3mWW8XA4GPznzI2AX+u02xr27uIAQ8NOGzgyzmRNppljCnz1i3evi6/vo9i6EPPnPhA7HZxHrl6a9XMGNn+1FZZbWkcnK+EURT4ZeXlWL69GmSdZCakiIxSGPHjEVoWBiamNGh8SAQPAg4a7HJXrFh4wax4J06dVJAAq0VDFJm39T1rwgHgcSTuN2yB9Cd5Bk3H1DkDyDweoL8lStX4oIFF3j2Fb6blqogEjS53Vi+YgVuuulGFBUVC7gmYKUFbuu2beKeYUAnYwi6U4LayGIwshh6otM913aUxdDuYd4ncp9fkqrY3tKCyi//hOThM9AUNw6fr9uAPTt34P777+8UYfsCBC7Et/7xFi699FI8+eT/4rFHH5VT4s5du5CamiJ+dj2KWj3itA1QoltBUpjy8jBi5AhZUETcb735Fm6+5WZRavrJVFfq9LEy3KC0olVh1DU1Y8b507Bu3RpMmTRJXvX555/hsksvk0hv0uDyxMl6DlRwTJ1iOhL9etOnTUd5RYWciLOyMpGVyWI3rW0gshh02l5/dMHCYVHfIFkD3Oy8wQw3Nr3krB4AKRu0ViyI3BchJNqhy8HllEI5HWVsSGaC2ezxzfO53tUGvWXgDRAYHEVCG+/GPsyZO6cd8OLPV69Z7eP/VwTE6Kd/fwvBXwyCN9WxlC33CQ71/j3noC845fcKBbLW9EqQ/G5aW7wbAZ/+fN8YhF4tXD838Rs5hqwQSUDG0+7IESPlvbRqEMjqLh7e3l2A0O2YIj8AQYBdNwpH8eTOmhNUggSGrBpKFxbXGa2QnoBLP5aEvQcOCuMi5z6tNLw3JTkJsdFRYq0gENS5AQiYGIeUmpommUmk0OZ85vxmXAOV9OTJU4TzhIcTBuYSkHLsKTv+m4HagYFWlJWVi0InYOC85BzyDd71BxAIaEms9rdXXhGXyoMPPij3cjw2bd4sZZ9zBueIK2b+vHliiSOXAmNUBg3KFq4GBn4fPpwrYL07JG3dBQjdHWvDgtA/q7ab+L9/Xtabp3QHIHATLC5hgCIJSPyUbRYLghlNR1ai8dhqROWMxYlyB46WmLDoipukWx15BfxZEOQkHRKCV197FQ8//DA+/uhjWfwzZs7AqlWfYO6cORLMR8rXyy+/vA3lL/2oNHUzmIzsj01NjYLWCRz4Jxc9ffkL5i8Q9jX2jACBm4PVq5zw56s/x/lTzxfF+sknqyQOgr7QPXt24/bbbhcf3eDBQ8B00K1btoi/jj58pk5xM8nJycHyj5eLP1dXHPr4DARA6GzsPdkFPZ2NumumDyfDjvrFOAP9pNxqRvY6n2v1DvwFO+pKpw2g6GLyD0SaY6dZG20CDf8/e9cBH0W1fs9uegIkJITeCb333nuTIh1FxQKogA+7qE+lKEpRaSpIUYoKSO+9994h1CS0QEgC6cnu/3e+zSabsCGbzSSE97/3/XhgMnPnzpk79575yvlSpuPSGmQtdsee99d8DskbZYbpu+fizWqPNJHTBcT5J9LU3ixtnIyorQRh5cqVQn45pzPaKDJ0+NBhdOveLU2tAPZJAkNCRk0Dbtjc6JkJQUtUQECgZLRwvHRNcBOmG46bM4nXw9BQnDh5Ukz/jFGgxcqvTBlxjVFqmZsvrZK0IHJd4DV8fU0fEYxl4DqRkMBqob64dPmyuJE4FpIJ9kcsza4Fkj/+TCwJMdESV2JO4bQ2V60RBIowrVmzRoKuG7AkdaJ1jCSGRIf3TAEkxlS0adNGqtPS1UDXCdeZ8+fOoUHDBskfOzY8FFsJAsXsWGOlTt06T5U/VwTBBtBtOCSjS7INXWp7iC0Ewex/S23qNY/EFI4oggOIPr8EuuBDiHQph7z1XgL0bqKTkBZDSE0QuAgcPHRIUmyWr1iOL7/4En8u+FMsB2TNm7dsFrMcsxQYwMRN35K184Wk2hizHLhQMAPDK68Xzp45K197NLGzFgMXAZocucizPjtrTjwKf2QiM0YjWMyHgYyM6KXpvF69+jh44ABq1qqJE8dPoHyF8mL6Yxon/e70H9erW0/IAU3TVGpL8uOmemTZTRC0nTHa9Gba5K2np2lzhZS9ZAVBsGecQpQzWS48reuaCQs3Zfr3ScJIfLnhcPNMnZVhK0Gg+0LecDuzK0yyxKzbkMZnAjfyu3ckbZQbI8kA41voIpHMisAAIQxMac3rnVcIBN0ISfNHZ9JKYOM4+TFhdhclBR4mrkGWpC5JB4EWDtF0oDZK4jZvjsVIumfTb8TaZk4ltWF1t+piiIoS1yTJAMXkUjcZo2jPmNQiaQE1u92SQ7MsSoHaMBFtJQjsis/banyIxXUUQbABdBsOsWEK2dBLFh5iE0FI5/oMaXKgCZpSxgnhiA44A/fiNWHQuZp81RkgCJaXsjRPJpm+EjcV84tu6ZtOXCGSgqyS4xtNX3DJL5opCMu0gRvli4K52pYkhvEP9Mnbuyg+DTJFELJwQqfRdU4hCNlx57YGK9pKELJnzMkpxnTP3L17T9Ihze93RjQ2smO8tl7DajVHW0/W8LiMEARbLqsIgi0opX/M/wuCkD4MaR+RFVLL6Y3HvNiYCUJ6x2v9e0UQtEY0/f7+PxGE9NEwHZGTCILlmLn5kJjTEvC8N0UQcs4TVFLLdjwLLSwIdlw26RRFEDKDnjrXVgQUQXgSqZxKEGx9ps/DcYog5JynpAiCHc9CEQRbRBXsAPYppygLgrZ42tKbIgiKINgyT7Q+RhEErRG1vz9FEOzA7v8zQbADLk1OUQRBExgz1IkiCIogZGjCaHSwIggaAalBN4og2AFiaoLAYJaFixaJwBFz+rt26SpRw8yh5+9WrFiOnj16mgIBExUGzZHCEhxlhEgaM/iCaVWpG6OTmY5FISMq9mWHi4GRx3///bdIhbKee42aNUSOmNkSlStXhocHBXBMuf9meWg7oLT5lJxOEDZs2CAy29WqV0+SqzVFVutE20GU5XJ4Y1ofo94pnsM/WUkQQkJCsGPnDjRu1FhksDmHzHUVTJISJslxSfSRSH5GzTPpx1SVlOJTFOmhzv0TQbca4sxIf6bOUdyH72ZOcjEwZZkiRg0bNJD0V/NaYk4h5MISGxsHR0cHifBPFDZ8aiqehtDZ3BXXGsrUU5yN7xA1DahhYEvbu2+vaC1UqFhBZMa3bNkiNSwo8kQVy+JMy06MapNMCtZDsTHKLa0gxZWrVkptGtbd6Nyps2S6RERGSkE+NvMan3r8OTZIMREPZrKxdodlUwTBllmY6pjUBIGLBoumUI3v199+RbOmzXDm7FnR36/foD7mzZsvm0bPF3tKKVLmIlPml+lITE9i7vCt27dQv179JGlZy0vT2aIFAAAgAElEQVTeuHlDNmfmPZuV8tIS07Hjdqyewpdj69atqFa9Gg7sPyBKd3nzesP/8mWUK19OZIZZvSw09CFeeOGFLF90cjpBoOQztez5bE8cP45GjRth48ZNoi7HOgut27SxWitCq+elRT8UX6IYDkWscnl4ZClB4KbLVFgKdG3fvh2du3SWuiF37t5FjRrVsXPHTly9dg2vDx4sdSKonVGndh0sW7YM3j7eaNasOa5duyoLmrlegxYYpO6D1+bGw3fV1cVFRISY/miW3s6Ka9ra5549e6RUPMnBzp07Rd2TG+D1GzdEOZTrBQtHbdu2DYUKFRTJ8C1bt8j7/MMPP9h6mSw/jmsLCQzrl1D5lR9DthKEDRs3wtnZSZ4HSe3Vq9dEHO7atWuyRpUsVVLmBzOsWAeExfSYWm0LqUyLIFDQbd++vWjRogW2bNkqpZ157PkLF9CoUSPRYKBeA2uVWLacShD4wblz1y7RAClVuhSqVK6SNGxFEOyY/qkJAhnwosWLUbJECRw9dhTt2rbD6TNnZMK3b98eU6dOReFChWXS7D+wX/TNA24GCPPkC0wVt0uXL6FDh45JpXMth8USr9TZX7hwIV595RX5mslqgsDrb9q8WVgxqx5S/pdfK1yoWVCGX5ucSP/88w8+/vjjLI+ezukEYfmKFVLUilitW7cevXv1wpGjR7F3755EcZcGKRT57Jh2WX4K5xkrA1654o+KFSuJzLSZkGp9cdZ+oOYAF9sVy5ejV+9eYm3hV3Hbtm1Fg4NzbdT7oxAaGoaNGzfIu8JKeVT7ZEVEEmtqb/iV8dN6eEn9RcfEwEGvl/ezdKnSMs/57j1zgqDTYd68uVJ+nbjs2rUT/v5XULxYMZEx5jhZvI06KPzS5d/UOCEZIzGbNHFSlmGW0Y5JvmJjYkDBNr+yZXH50iWbCQKll6nfwD64SZMUFStaFIFBQbh1K0jEqjhXNm/eDBZ8YsGsJo2b2DTEtAgCU0o5T6lc+8cff6JpkyZy3bPnzqFu3bpSmbNnz57ysfC8EITwR4+QJ09ueSelFHximJkiCDZNlZQH2RKDcPr0aSmpK0VkMlR1wI4BqVMUAv9DCJAoXL9xHdev30DzZs2S70wH7N2zV0zItnwB/g9BosmtiLvr4gWEhDwUt8T/p8av5IuXLonabKlSJbPc4vm/gq0iCHY8yfbt2uHHH3+04Uxz6S8bDn1ODzEYjOI+yf68hucUMDVshYBC4BkjYG9N2Wc87Cy+/BOin0ZgxMiRosSbk5qNISTPbsgdOnTAtJ+nPbsB5LArm4Pxctiw1HAUAgoBhYBCwAYEDAkGODk7pVD2Zq2NIUOHSAxLTmo5niB07twZv/3yW7LOaU5CL7vHYoRULExd1S+7h6GupxBQCCgEFAL2IcCaHqxBIo0GFj0QFRmFLl27SNxKTmo5niB06dwFs2bNzkmYPdOxmEsWP9NBqIsrBBQCCgGFgF0IxMXFoljxYrh96zZWr16Nfv37SRE97nWs0puTmiIIOelp2DAWRRBsAEkdohBQCCgEcigCZoIQGBiEhyEPUbhwIbh7uCuCYM/zSmlBsOQz1rlNyiNM4XxG2nCeaKyYaL1ZCwK0dqytx5mvkt7xtgQfKoJgzyxS5ygEFAIKgZyBgJkgWI5GXAxdlAUhw0/IkiBwm2eQngF6UXpjlIdRZ4RO6jWbqIAp8oPacKy4xp/pYICj/G3ZmAvA36Ru/Glq6mD6yZPbt/VjTVe0pV8eo5djTfUbDUZzTfu0qYIiCBmeQuoEhYBCQCGQYxBIiI/H3Xt3UwQpOjk54oMPPlBZDBl9SpYEwbSN6nHq2DFcuHgWvfsOgNFBD33ifsrfx8bqsH5rJCIfxyVdKq2vf2MSsUgelY6EI9UghQhY2bNNMrUpf8H/srXfREpjupoO6NS+KHK5PYSjI6mQ9VKyiiBkdAap4xUCCgGFQM5BgLoiVFK03Giom/Huu+9i/Yb1OWegiZ/Vtli2n9mgUxAE2bmNiI6Iwvp1K9CzZ1/o9I4mXXS5GSOi4pzQqssNXL8emRgimjj0J+6SuglWbivxGil/k1XHWl7FgP07GqNI/rtwdHJMU1xEEYRnNhXVhRUCCgGFQKYREIIQGZGiH6pxvv3O22CdmZzUntsgxRVLl6Bbz54ic2r+5idBiI5zRMvOt3DtWgygSzIt5CTMU42Fj8D0GPbvqoVivrfh6JQyR9byBEUQcvCjVENTCCgEFALpIKAIgoZTJK00x/Xr1kg9BZ0D91b+n8mCoAiChuCrrhQCCgGFgEJAUwQUQdAQzrQIgoH+f5Z01hlSEISYWEe0oAXh+vNkQSBgRhzYVRvF8t2GQyqVLWVB0HBCqa4UAgoBhcAzREARBA3Bz4hQEp0NJAjNzQThuapaYMTBXXWEIOjpYkgDQ+Vi0HByqa4UAgoBhUA2I6AIgoaAWxIEeurv3bsnpUpZcrRq1apSn93cFEHQEHjVlUJAIaAQUAhojoAiCBpCmoIg6IDdu3fj+PHjUkp0wIABcHNzVwRBQ7xVVwoBhYBCQCGQdQgogqAhtpYEwWAwIDYmRgiCi6sLqlerDgdHiiCZmrIgaAi86kohoBBQCCgENEdAEQQNIbUWg2A0Un3QrDqYfDFFEDQEXnWlEFAIKAQUApojoAiChpBmJEgxZZpjdKJQkhHQ6QEj/1CCmf8dDyMkPzJRgoDRDYnyyGbthERtgiRFQ5FS5PEUTaLKoVlOOa2KDhkFQQUpZhQxdbxCQCGgEHjeEFAEQcMnZj9BiIKzSwTKlH6Ex6HuCAl1R0SUM3S6+MStXwejzgFFCkUiIT4GDo7OiHwUi4fhXkkKjA46IFceI+ITEuDgEIvwh66AnvmVVDpMeKK+Q+ZuWxGEzOGnzlYIKAQUAjkfAUUQNHxGdhOE648wfUZN3L7xACdOPMDjsBi80LUELl0Lw4GDJ1GyuB82bAnHP4sa4cH9u7h81Rn7du7D66/3wLx5OwA8xsSJLfDj1APYtSsadev4oLRfCZw+fg9tO5bBex8cAYwMkFQWBA0ft+pKIaAQUAj8TyOgCIKGj9dugnAtEoULP8LBfW2wcDEQG/MQndt54tDxWKxdfQPNm7vj4y8C8MXH5TB9+g6M/rwX7j+4giFv+GHqtAc4fuI45s9pjU9G78LNoLzo0KoU2rX3wIwZoejZ0xude+wGjM6KIGj4rFVXCgGFgELgfx0BRRA0fML2E4QYQEo+PwbgDD+/PHhwLxwPw+Ph6emAWjUKYNv2EHE5AA5SNtrF6TEGv1YFfy68jscRRugRB6NRD6PUjTaXrWAcQzyMRrfEiovKgqDh41ZdKQQUAgqB/2kEFEHQ8PHaTxBiTZu6LkGCE+VvKaGcGFwopZ75bwYrim5zYgVFHsfUSTMhMB/Dv3m+OfaAQYtakQMCpmIQNJw2qiuFgEJAIZAjEVAEQcPHYj9BoAWBe3jixi5ZCGm01Pv8MymArQiChtNGdaUQUAgoBHIkAoogaPhYtCEITE18yqAUQdDwiamuFAIKAYWAQiAtBBRB0HBuaEIQxJ2QuqVyEZgPeSbWA45NWRA0nDaqK4WAQkAhkCMRUARBw8eSNQQhUfRIYgpySlMEIac8CTUOhYBCQCGQVQgogqAhsllDEMwqiIogaPioVFcKAYWAQkAhkA4CiiBoOEUyQhAsazFcv2YKUjRKkKKW2QYa3lyqrg7uqo1i+e5C7+QIYxpBEwmi6sjMC9UUAgoBhYBC4HlDQBEEDZ+YIggpwUyPIDzzUAoNn73qSiGgEFAI/K8hoAiChk80awiC1hoG2txwZi0It2/fQvny5U2DeWbBltpgoXpRCCgEFALPKwJxcXF4GPoQrq6uT1iwFUHQ8KnaSxCuXYuFTpcA6iGKCJLsmEx35N+MPTCLHmk4WLu7Mo0tswQhIOAm6tataxrF8+FVsRsxdaJCQCGgEMipCERHR+N20G24ubNeT8qmCIKGT81egnD9egTatC2OwKAwlCzhgdCQOOTKbcDDCAccO3QfhgQShGf/mZ0rdy5ERkTBYIjHwV11MhWDkEQQFDnQcAaqrhQCCgGFQMYQUAQhY3jZfXRGCIIORsQmOGLoyGAE3YqBTq+D0WAAWEshyavAf3MHpWRyDmi0aIiRQ4c/5lSDl8ddODlR6tk6eXlaDIIQhHqJFoQccGtqCAoBhYBC4P8jAkIQbt2Gm5uyIGTp888QQdABkVHReBASD4PBCJ1kMDwnzWiAhzvg6ZUHDnrrWQo6nQ4kCHq99fRMRRCek2ethqkQUAj8TyNAgnDn9h24urKoX8pmzcXAtf2dd9/Bhg0bchQu5opEOWpQloPJCEHgVzcrL+qNBrDm4vPkiKe9QOiMzijWBGtNEYQcO03VwBQCCgGFQBICiiBk02TIKEGQPfa5jNCzVD5QBCGbppe6jEJAIaAQ0BwBRRA0h9R6hxkjCNk0qGd0GWVBeEbAq8sqBBQCCoEMIKAIQgbAysyhiiAko6cIQmZmkjpXIaAQUAhkDwKKIGQPzsgoQUg2zpu1D5i0QBHmlE2kEcw/NWc5ZNM92XsZRRDsRU6dpxBQCCgEsg8BRRCyCWtrBIH7uSlLgYNI6a8XT74EKhrBtEc2QzpVG+UcnpZN95TWZSQt8ynSDIogPOMHpC6vEFAIKARsQEARBBtA0uIQawQh4OZN3L5zG+XLV4Cnp2fSZbjBRyMBS++cQ1hspGgdmNI0TFSBpMFgYhXSzP/yiXPESzVawEWLAdvbRyIxCA0Ng6MjdRCebIog2AuuOk8hoBBQCGQfAoogZBPWaVkQThw/gTJ+ZZArV+4UG364Ph5tN0zEzbBgU7qg+BISJP1RZ2AaZLKGgDnboUCUM859PBte6VgasvyWDUBgUJAiCFkOtLqAQkAhoBDIOgQUQcg6bFP0nJogGAwGHDp0EN7e3ihXrlwKFwMtAiQIbTb+gJuhwahTohzcDC4ICLuDWGM87kQ8gMFoKUJk+mwvEOmMY8On4erRY/Dyyos7d+7Ay8sL/pf9UbhoYREmio2NhbubO1xcXVCqZCmcOHkC4eHhaNKkKUIePEBQUBCqV68Or7xe9iOjCIL92KkzFQIKAYVADkFAEYRsehCpCcKjR4+wePEiGBIMeKHbCyhcuEgqC0JcEkEY0rgL6nmUgNHJEQHhdzBl7wqEJyQAVFgU/4KJIOSPdMK5D2fDOSIKx44cRekyZeDt442Y6Bg4OTuJroLBaBCiwD8uLi6IjIhEgiEBuXLlQnx8golAuLvD0cEhZTCDOabALEll7W/zHSiCkE2zSl1GIZCIgOX7md2g5MyistmNwv/k9RRByKbHmpEsBkYahOuTCcK7LwxAGQcfHDhyCO4urqhYrjwiY+Jw+MYFrPM/CqMu1kQQopxw7KNZKGR0QYwxHhHGePm56f01wlPvKgGRDkYGPBoRYUiAm4MjHKQ6JBDH6xpjRAkxt94JzhauCgYdhhpj4AQ9cumcEwtKGsB4glijEQlIQG6dkwnNHEYQKOtMkqR30MPVxVXGHhsTi7j4OHh4eAhJi4qKMo1dBznGwdFkoYmPj5dznZ2dhWRFR0XLz13dWP4UQqhYEpWkiliYASfpciDJSqdJ/zExQtbMMRtGgxGRUZEpfpZeP+n9nrKoSWN3dZX6Htnd4mLjBEPLxjGRtLq5uiWNiXgTF49cpmdDjM142z1mo+lZOjo5gtY7joVWNHsan09UdBT4Nxv75PNjv9evXZfSuIWLFLana7vPCQsLw5UrV1CrVq0UfYgcbkQk3Nzd0pQ2N59ArPmOZLRdu3oNxYoVExxU+99CQBGEbHqeTxIEZi+wCJM57cAy6NCCIIQFw9XJDXqDHj5RCXiY2zFRfFmPBEM8IuK4YZlqNXhHOGB4t5fQpWxN7L15GeO2L0Z8AklCAmDQY1S51qhatBQqliiFCAcdvlz7F3r7VUdR99zwLV4cV3RReH32NzA46PBxg+5oVMBPxhh47y7OBgfh10s7UbFgSYxt3R8JEZGIcTYgJDwMUzb8i6aVamFSwz6ywdKwkVNiEILvBaNevXp4/PixjO2H73/AK6++gtGfjcZff/0li+rhw4fRuXNnClxDr9MjT+482LV7l7hZ2rRuI8c4uzjj2NFjmPjDRPyz5B+cP39eNoUP3v9AdMfPnj1rqrwN4MD+A5g+fTr+XPBnurNr8aLFGDFiBD755BO8/8H7cvykiZPw7XffYsa0GejTr0+6faR3QEJ8Akb9ZxQWL14s91itWnVs3rzJrs0gvWul9ftvx3+LbVu3YfPWzUmHkFj169sPu3btkrG1adtGftegfgP4X/HH/eD7GDd+vPxu5coVKFOmjF2X5/1//PHHePjwIX6f8zt2796N3i/2xtnzZ+Hj45PhPkkCunXrhqBbQdBBD2dnJ/z919/I7Zkb3V7ohnlz56FFqxYZ7jczJ9SrWw9VqlbBnDlzUnRz9sxZNG/RHOPGjsdbb71pnRgagePHjuOHH37A3PlzZV7b3AwQKyXfkbzeeW0+TR34fCCgCEI2PafUBCE4OBhnz56RL/eatWrC0zPZ55/CghB2z/RZy6BEyR1MtO0bWTqRxIB/TOTCO8oJxcqWxcmAS6afyBdOIgEx6vB6o84oaHBCBBJwLjgIp+8EoHnhMijukw+T969HHAMhdXRdOKBL5Ubw8zC98I+cgQU71iLBwYAi3oXQtEwV+Li449cDaxEdFwcXvQNerdYKM5u/Ch37MOhyBEEwJhjxYq8Xcf/+fcybNw/r1q3D1KnTcOHieYwcMRJ//vmnbBr79u5Dk6ZN5Av7/IULqFWzJsaOG4fAwACcO3cOa9euxSuDXkG9+vXQpk0bNG7cGHPmzEXTpk3QqFEj/PPPP6hfv748BvY35M0huHDhAkZ/8Tn69u2DkAch2LxlMypWqIhq1aqlcN1wMxk8eLDUWz+wf79YI5o0boKomCj8+cefeOnll+QLcOOmjWJhaNu2rVgzdu3chdg4UzwJrQ2tW7eWL+3Vq1cLqaF1ZMf2HejQsQO2bt6Kd0e8i99//x25PHKhZcuWWPDnAvTt3xenT5/GubPn0KJlCxQsWBCBgYHYs3uPbDb8HfvNnz8/Dhw4gNu376B48WIICAhA+/bt4ebmhvi4eKxdtw4e7u7SB8fIL/U9e/Yg9GEoWrdpLf/dpVMXiYlZtHgR6jeoL/OK99qpYyds3boV7Tu0x/JlyzH+2/EYN26cWBVIntevX49vv/0Oa9ashruHOw4eOIjbt2+jUuVKuHH9BqrXqI6dO3aiadOmuHjpIlq1bIX7D+4LGSlYqKA8q5s3bsp4SQY4D8IfheOD9z/E1q1bxKJx6tRpXDh/Hi1btYSvr6/0v3XLVumT5LFV61YSK2RuV/yvoEWLFhgwYAA+//wLDBs6FHv27sXSpUvQoUNHLFnyj2Ac8jAEW7ZsQb58+dC0SVMhZ+vWroNvfl88fvRYrFccX2prDgOXz547i/r16sPPzw8BgQFyjzz2wMEDco8FChaQgmdbNpv679u3Lxo3aYz58+cnjZO/796tO3bs2AEu9LR68PnQ0rF//37cvXsXHdp3EBfjiOEjwOsOHzlc5hhJW6tWraSvvXv34YUXusq8I5E4f+E86tati7Jly8ryQncl3zEShKNHjiIgMBAdO3TIvNUnm9ZmdZm0EVAEIZtmhyVBoCWaX51k3Vwk+vfrD2cL1p6SINxNHGH6pj/fKBe8UrUlfpkxAy1bt0aTJo0x9pPPULJ8eYwaNQpLli1F00aN5UuM2RBhoeGYNH48XHLlwpARw+Hl6QkjDLI4z531Ox6HhuFReDje//hDuOfxAM2VAdcCsGL5Cty6fRsR0Y9lYe/UqTNKuXqisXfiF14OsSBw88qdKzcOHT6EqtWqIiHegDt3bov5972R78liGhoaKgShcdPGcn90Nbi7e+CzTz/Fvn37cP7cefz999+oW68eXFydpULlV199jYMHD8iGSjfC7N9nJ82iUydPiZmXfXFTIcGoUb0G7t0PhoeHO+b8Pgc9X+yZdPzcufNkg2FfbHXq1MHevXtlQZ86dSpeeOEF1KhRA0FBt6DX6/D9999j6LChMmc2bdokmyhNu//++69smrVr1sbqNavx6PEj9HqxF7Zv34GhQ4eidOlSmP+HafNY/u9yITrcwOrWqSukpkSJEjh+/LhsDD169BSXSURkBN54/XXM/GUm3n77HcydM0c2CRKRZf8uk41k8Guv4+9//oaDXo8e3XtgwcIFmDRpMr7++ishBiQY3377rRComNgYDB0yDDNmTBeSZCYIly9dhpOLE6pXrY7de3bLRrh8xXLBcOaMmZgy5Uds3bYFO3fswrBhQ8UlQ3LCYNovv/gSXbp2Qd68eVGhQgWsXbMWpcuURkhIiFh95s+dLySgZ8+ewq9/+vFHmQvt23dAcPA9bNq4CW+88YaQrIoVKwrBItHg+5o7d27QdM/7Wrh4YZILyEwQXn75ZYwfPx4TJkzA2LHjsGPHdrRr116IQrNmzWQDJeFydHTCzz//hF69eqFhg4a4desWYuJi4eLsjCOHj6Bs+bJJ84H3+9FHH8lmXrRIUbF2HD9xHH379EOuXB4ICw1D9x7dxTr1x/w/MHLkSDg7Ocv4+w/on4Ig3Lt7DzVq1ESnjh2xYsUKbNi4AXXq1sHCPxdi6NvDEBMTjXJly2HlypUyrgchD2Q+L126VMgPf67T6YXAnjh5HBvWbcCQoUMRFWVyWZC01KhZQ6yMD+4/wLZt2/Dmm28iMjISxYoWEyKR2qWUTcutuoxGCCiCoBGQ6XWTkiDoZJGjBcHF2UUWNr2Fv9peguAT4YBtg8bgysHTwt6LFy4qX3LFSxZFw0aNcPb0aVSoUBmeXp5ijeACcub0acQmJKBZ0yZwZZ1mHS3lRuzbdwBhYeHIkycPatWqCRdXk889+N497NqxQxZvB0dHVKlSBeXLlZeYBppaJeDBmDNcDPSpckMLCAhEWFiofKny/gb0H4CvvvoqBUGgBaF8hfISm1C4cGFMmjRJ/n733XflC8zbxwfjxo5D3359EfH4MZo3b45LFy/Jlz2/3Czb2DHjZGHfuHEDvvjiC/zyyy/ikujTuw+KlyiOefPnJR1OC8I777yLmTNnYNiwYfDO6431G9bL1+yUyVPEgrB65WqxCJCo8Gvtjz/+QO8+vRFyP0Q20kKFCmHhwoVo2qypkBF+pT6OeCybIl0lnTt2lnF/N+G75GEaAZqla9epg2+++Rpt2raVjaRJkybo168fVq1aJV+o3ID4NTt06DBs2rgRBw8eQs+ePYS4dOzYUQjNjBkzcOrUKfz773KsWLFcvq5nz56N2rVrY/LkyUJ0uOFcuXIVh48cShqDmSDwa3rAwAEY+d57eLFnT9lI+/XvJ3NsxvQZ8iy2b9+Otu3a4o3X30CnTp0En1UrVwnJIAn54IMPxFVDosVr+3j7YMzYMfIVPHbsWBkTSRDJDC0rdGcEBd5C9+7dULx4ccycOVO+1okxNzzeG91GU6ZMwYmTJ7Fp00YhDGxmghAdHQMvL095h0eMHCH3ayYIHN+G9RuEcBKfokWLYfKUyahfr55kDE2aNFFM8/zirlU7OW6ABGDBgoXIkzs3Xn/jddBFcO7CefTu3Rs7tm/HmtVrsHXbViGHXbp0Rf/+/UCiwveQFpwkC4IRYjEj7pcuXRI3W7t27fDrb7+iZo2aQjAHDByIsWPHYPTo0Vi6dBm2bNks84lYkxSRLHG+DRo0CGfOnIHBaMSGdeuFjIx8b6Q8G7rrzATht99myVyiRa1ChYrwK2ufSyi9tVT9PvsQUAQhm7DOWJCiRZpjGC0I5pLPpliDtFq+KCdsf3Us/PeeRIGCvgi+ew9Bt27J1yO/4Ljg1alT17SRA7h58ybu3bsnvl5ucrnzJGsxHNh3QEybzG6gidXsl6SZmBYEfh0zGIvWiMqVK4vZ0hzYl1OCFOl75pcmN68EgwGrV63C2DFjcfToUVm0+UVttiA0adoU9+7dFb88z2HQHE3CNO/za+7toW+Lm+D69euC07Chw7Bly1b4X74MnUPKgL8x34wxEYRNG+U4LtQ3A26CfvjNm7dg2/atTxAEkgl+mdOE++prr8rXLDdXpsDS3922bTvEx8dJcB3N9H369BGSyb5JgswEoXq16li/br1YEF588UWxCAwZMgQlS5ZMiomYPm26uExKly4tcQ/DRwxH185dUahwYdlwXnrpJWzcuFFiMeiiMROE7du2ydfsgP4Dxb3Cr+QGDRrIFyytThT74hfwy4NeFrcMNyxaOIhp/34D4O9/GYePHLZKEPbs3SNj+uTTT8Q9QwKUmiAcOnhI3A/cDP9dvlw2LbqBxE2xbau4gBgL8Mknn6Jnjx7yM5IHnkOCQHLGzctMEJj+27VrV7Rr307iPog5iQaJRIcOHXD37j2MHz8O+/bvt0oQXuz5Ij7/4nMJdqQlkBaYdm1NFgRaNNg3nx3vh0F8JAj16tZHp84d8f2E72WeHTlyJIkg8NlyM6ZFpUePHvj6m68TCcI59O7VGxfOXxACs2LlCiEINWvVknH5lfETcpPaxcA4m+++mwAfH2+xEpHUctPnnJoxYya6dOkCgzFBrGKTJ03Glq1bhCAQH16fJNGSIPz262+YPmM6+vbpK4Rq2oxpeOWVZIIQGRWFlwYOFLcMSRfJj3su92xaYdVlsgIBRRCyAlUrfWYHQfCJcsLKnh/i/unrcHZ1QoH8+eUlpfuiQ/v2sjjQ/0vTJTc/mj8PHzos0eIkEHnyJKo56oB9YuaOQUTEY/Hf0lxrsiAEY82aNbLgRUREyKJavnx5Mb/m8cxjuvMc4mLgBkMzO0kNA7Do0qG59MzpM08QBHExJAWMUgLbgFdfeVUsCgwgnDR5kgQfnjx5Em4ebnh72NtCEC77X3riaTOQkYF19IvjPbcAACAASURBVPnT18sAuSVLlojpmBvVTz//ZJUgNGzUUAgJiYKZINDfP2nyZPFrjx83Hl6eXmkSBAaj1aldB598/Inc84yZM8SCcOH8Rbz3n/fESsF77NnzRSxatAirV68SUzytBHRDfPjBhyharOjTCcLx4xgwwEQQunfvLjEYv/76G4xGgxCv90e9Lxs1v2ppGfv111+xefNmvDxoEI4fOyZzhy4AtiQLwuPH4s6JY5aBowP+XfbvkwRhx3YMf2c4AoMChezwC7hHzx5yHi0KQhDq1QM37atXr2LipIl45+130blzJyEIjAkg2aX1hhswLQh379zF66+/Lm6Ezz77TCwudP3xq99EEO6KCyEtgvDSwJfw7YRvk0qh8P7NFgS6HcLCw4QI8Lnzi3rylEkSV9Cxk3WCwGfduFFj2YDpLiKxM1kQrBMEukZoKaF1iFYfxpuYLQh8zrQmMTaBFgoSOBK7o0ePYPi7w1GkSBF0SsSG7ilaO36b9Rum/DhFsnZIbHjvATcDsPjvxTIOWpnoDuO7zvk/45eZeOWVQUkWhAsXL2D/vv2SeTL689Hw9/cXUqba84uAIgjZ9OyyiyDsHzoR/ruPo3nLZrLYcrHjV4CHu4d8VZo0DkwWhJCQB3BydJLfc9NLSstjSuPDUDg6O8rLzi9mcwofv3KYEeDk5CSLDr8eaUngYp/kb8whBMFMaGiyPnHihFg7GIi4fPly6wQhgRFXyRPi+tXr6Na9G65cvYrSJUuJb59flyRXTyMI9+7cQ6PGjcT0TCGqoUOGYum/S8XfS19wkaLJmhdmFwMtCHRzsNGfayYINFtz7jCQjK6Ry5cvp0kQ6JumpYMLescOHcVUTAtCufLl5AuRJInPmnj8+NOPYj1hFgG/YgcNegVTfpwsPvmBAwembUGwIAij3h+FqT9PxZgxY+Hq5iImZ4712LFj6NO3Lx4/eoRZs2aJzseSf5ZI7MSbb76F77ipWiEI5mC9pUuWWiUI//3iv6hQsaLEcjBokosXiQ2/ds0EgV+/HD/dAbSIMOB04sSJEpz4n/+MwuTJk8RyQoLwMOShWGFIMC5duiybHY/duXOn7QTh22+T5owQhEQLAudJyxYtxaomwmNeXokuhrQJAi1etGDMnzdfiOSatWvSJgibN+HkiVPo16+vvIskOZyrZoJw/OhxtGrdGqdPnULR4kUF78IFC0sQKAM7Bw4YiODg+/joow/FihQVGSWWQMaNMI6mV+9e4hYjNoxdIEFYtmwZ3nvvPbRt0xabt2zB9OnTMMiCIFy7dk2IG2MZ+vfvj5+n/pxuamU2Lb/qMnYioAiCncBl9LTsIAh0Mazu9QmOr98N73x5UbhQIVns6Etv2rSZLNw0hjOwkGSAFoSzZ8/J1x+tBElFHYwQvzujuRmDQDOtOQ+dAVaLFi5CtarVcO36NXTq3BnFihUVMyWjzHOSBSGjz0gdn7MRaNa0mcxbmshJ+Pz8ymL277PEVK+aQkAhoD0CiiBoj6nVHrODIPhEOmLjwC+R+zHDHA1wcNAjLi5eVBH5dU9zuU6vh6uri6gq0i/J4EP+XlwIiWpsNM3T2qDXO8DJyVF83Obf0VJAnzxjEvhvWib45UfzbVIedA6yIGTT41WXyQYEaA3jH85PWrRoDaP1SjWFgEIgaxBQBCFrcH2i1+wgCBRK2vXGd7iy5wQSjPG4ctlf/MEMNmrYsKGk39EyQP9qocKFcO3KNRw9dgxurq5MbpSgKjamg61ZtVp8qKzTwKA5LsZst4Ju4eeff5YgJC7ONJ/WrlNb8uGTlNSYxRCoijVl09RSl1EIKAQUAlmCgCIIWQLrk51mB0HwiXLE0RFTUcTBEzo9i0Nzs09UbGSJaGYamNMpjZA8+Lx5veVrjNoMPNbcTPUbnCX3PklCmJqMCQmJx5si90UNklLLCQkpcp4DAxRByKappS6jEFAIKASyBAFFELIE1mdDEBiD8Eebobh58Cxi4qLxKCxcIvep3sdgo6XLlgpJKFWqlMQcMKho86bNCL4fjFatWqNBwwZJhZ+2b92Oi5cuyfGvDX4V7q6JFoRbt0Q4h2lcLi6uGDToZXEvMCAvj1diFgMARRCyaWKpyygEFAIKgSxCQBGELAI2dbfZYkGIdMSiDu9g95INcHFxFNnYyZOnoG2bNhg3fpwIoty5fUdU9N4c8ib8/a9g4YIFuH79hkRDt2/XXiL0aRWYPn0G9uzZjWLFiuPrb74SXQA2RjYzMl3cDbduSToUI5ZJJCxV0xRByKaJpS6jEFAIKASyCAFFELII2GdBEGhB2PzyV3hw5gZc3V1EECmvV14EBQWhaNGikq7I/Hiq9eX3zS//pvWAbgcGGBYqWMg0bB1AERmmMTLtiel55kqD1D6gjkCu3LnkZ775fJFXdOqNKarjKYKQTRNLXUYhoBBQCGQRAoogZBGwz4og/Nl2GPb9uxGlSpXErVtBorXPVEeqxfHrn6JGtCxUrlIZN67dwOo1ayTNsVHDRhJsaG6sT0Chk5jYWLz08sCkVDKmPs76dZYUmKLELzMcqlWvBuZwW5Z7VQQhmyaWuoxCQCGgEMgiBBRByCJgnwVBYJrjog7v4uzWg6hevYpYBKjkRylYZigwd5xpj7Vr1ZK0RsYgUC2OUsQUj6HaHK0JDDqkjC0FU1gBr3Xb1nB0MNV6p9WBkrLMaqAmPdXsaH1gmWQWcDE3RRCyaWKpyygEFAIKgSxCQBGELAL2WRAE70hHHBg2Ed4xznBycYSTo6PkjZtzxqmDQLeBuc7AgwchUiEuNjZO3AXuiRs8j2cBHcmA0OvlGHOj9gElmKnSyPOoakeRJLolzHLMPFYRhCyaWOaK31nUvepWIaAQUAiYEVAEIZvmQnYEKeaLdsaFD2fDByYp5XSbebNJzm5MoaaYpKxo2ZHFsQxoNDfLVEhFENJF3r4DjBCrDwWuVFMIKAQUAhlFgBZiljun5LotTREEW1DS4JhMEwQKFSA+KQ0RcEhSNzQPj8WaLn00B95Gx+SNXoOx29OFsiDYg9rTzxGFy/BHpsqaKQtIan8x1aNCQCHwP4dAUGAQfPP7JpUuT+8GFUFIDyGNfp85gsBBkBAYTBuDRdVBy42CMQiXPp6rCIJGzyyndUOCwKI6ZlXLnDY+NR6NEDCTP0vLXlpdWyOK9p6X3vBt6Te9PtTvnykCrM7plddLMtpsaYog2IKSBsdklCCE6ePRduNE3Ay9iyblqiLgYQiK5/FBpCEBXg5OeBDzGKcCr0pMgZkk5It0xMWPn40FgZXxPL08k0xXyoKgwaRJ1UUSQTAXxdL+EqrHLETg9OnTUm6bwmVpWYBu37otlTQpb25r27RhE6pUrYLCRQrbegqOHD6K0NCHUtXS3sbKmZUrVYZvAV97u1DnZTMCgTcDkcczj/yxpSmCYAtKGhyTEYLAy0U6GPDZqTW4F/GQesaJ7gTrFN78U98YZ8zuMwJ5ZPV5hjZoVaxJgxnzZBeKIGQJrFnW6do1a/H2229j7dq1UvJ74EsDwYqUN27eEH0RZgix0iozg5ycnKUk9euDB+Oy/2VJK+bvWU2VqcXFihdDWb+y6N69u5Sknjp1mpS5vnX7lhRP8fPzk7LP1DXJ6+WN8LAwWQJYYZVaJWfPnpVMJZa3JkHZvXs3du7ahTatW8t5DFKuVLESDh85jLlz52Lq1KlyrUWLFkl69KNHj+BX1k/WIY7np59+Qo/uPVC8RHFRVa1br26W4ag61g4BRRC0w1LTnjJGEIxSKTGClevkf09vSb/XGeGk10Nv5HvMeo3PjiS4u3ukGQjDgEbWbkgrUCYg4KZacKw8ckUQNH0ls7wzEoQ9e/ZI1tD1G9dRvFhxNG7SGP/973/xztvvSFXU7j264/sJ3yM4OBjFihVD37598e2336JihYpSEI0BqUwjZnDql//9EnN/n4sTJ09IwTVu8tevX0fHjh3h4eEhxxw7ekwKs/HcI0eP4PDhI/ArUwaBQYGiihoZEYGp06Zi967duHDxAtatXYcXur2AcePGg+/dzh07hRR4+3iDWU5du3YB/dY//fwTPvjgA1FOHf3ZaCni1q17N9StWxd///U3Pvv8M5sD37IceHWBNBFQBCGHTo6MEYTE73+jHkbZ4xOeelc6o+l4HmtIohPPkh5wuGmTE0UQ7JukiiDYh9uzOoubMIuhTZs2FeXLV4Cri4vUQVn8118oW9YPNarXQMNGDTFu3DhRPCVBqFS5ErZu2SqVVCtUqABPT0+pmnr50mWMGDkCVDIdOnSonLNw4ULRMWndujXKlSuPP//8Q2JUuGlTOfXU6dM4cfw4OnXuBFcXV5TxK4Pvv/8e33zzjRALujIodFaoUGHs27cXs2bPwuFDh8VisGDBArzxxpuoUrUyVq9ajbt376FJ48Zo064NJk+ajPv3H6Bxo0Zo0bIFVqxYgSFDhyiC8KwmWgauqwhCBsDKzkMzShCyc2zZfS1FEOxDXBEE+3B7VmcZEkzxQVQZNacBBwYGYtSoUfDy8pINmRoiMbExIjSm0yeTatY2YXPQmTRGaEc0i5XFxsaKW4BuCja9g17Oj42LE1rOPtkX+2CMEv+bmiVOTo5yDgkHf04rJfuka6Ndu3bixpBzDEYYEhJENI1Wvti4WNO1dZDrxCfEy3H8HX9Oa6CliuqzwltdN30EFEFIH6NncoQiCMmwK4Jg3xRUBME+3NRZCgGFgAkBRRBy6ExQBEERhMxOTUUQMougOl8h8P8bAUUQcujzT5sgpK2dm6ROaEwvTDEH3LQIOSU3bmZpNWVBsO95EdPoqOgUNS/s68nyQT3bhJdMj1+rDrJAwpopjZZuA62GqvrRDgFNn1EWzCGLkDJNbpoEgXEtuT2VDoImgGrVSVoEQYILn7iIUXyWpj3WKDURcnrT6WyT7uR9KIJg39PkPDh44CAodqLVjDCRUNMcS55z9o2PZxkMJt91Vk3Z+Li4FDU/7B9p8plmf7+t8rO2XJN4hoWGiTaI+T225bz0jgkLC5P4BfOY0zve1t/zmTH2QKsmmdkMnk78W4t+Y2NiUpSU16JPcyyFFn3x/WGMB7FMLT1va/+p13oGpebyyKVZ1jqDWJk5o4SSbH0i2XScNYLwKDwcV65elTSkXLmTGR2XbC5WVLzSbCfIpvtMpDS4dy9YcqutNUUQ7HsYXDwiH0fC1c3Vvg7SOCsyKgqPwx8hf4H8me43MCAQzi4uyJ8/a8RzSJDqN6if6XFadvDgwQMJ5JP3TcO2YcNGtG/XTlMrAku3N2/eXMNRAqGhoSK9y41Ny3blyhWUKl0a+lTWRXuv4X/ZH6XLlNYsW+LWrVsmcSnteBEuXLgg2Sdate3bd6BlyxZadQcGyVK3QgklaQapNh1ZIwhr1qyWqOD2HdrDIbGcMq9GgsDN1cfXB8ePncDBgwdEUKVgwULgYrZ37x60bt0GMTHRkn7kf/myRBbny5cPRQoXka+W4OD7eBgSgvIVysvix0jne/fuydcHN+hjx46hSZMm8PL0QuWqlTO/OFia15RQkjaTJlUvWeViYMVP1ngQgpBJ6QyaMIUgZJG63qGDh1Cvfj1N8eU75ah3hGdeT0373bB+Izq0bw/YblxL9/rUKRCCkMnnZHmh0IehyJU7V5qEPt1BWTvACJgIQinNNnT/S/4o7acdQaBqZaHChey6vbROOn/uPCpWrKjZ89m+bQdattKQIAQEiviWIgiaPvbMd5aaINAUS+Z69tw5FC5cCD4++ZIuYkkQLly7ig07tiK3pyeKlyyKayH34ObiivxueRDPMs0G4NrNm/AuXgi3HgSjZF5f5M/ni7BH4bgfFgrXPLnhEh2HWINB8rBDoh7hsSEezvy615u0Eph/rWfJ5iea7dS6Qp5CKGq+B0UQMj9hrD2NLIpBEILw6BHy538OCMKBQ6jXQHuCwK9nkmctmxCEDu012yw4tueLIFxFqdIlFUHIxKRSBCET4Fmcat2Vr03fmvSSmiDwa3Dzpk0iqdq4cWPoLcx7lgRh750rOHj/Gi5Eh8GQy4g/tqyCMSoG3au1Qufq9fAg4DbiHIA1987i0IWTaFu+DlqXqYYjF8/ifPRD3A4LQe/6TfFYDzgZjThz6wqOXDmXvlktg07kH2u8hGGN2onPEYogaDJnUneSpRaEx4kEIZMjz3ILgiIIz40F4eqVqyhZqqRYL7VoyoKQeRTpAlQWhMzjqHkPaQYpWgnisSQIyw7vxOZLJ5C7VFE8iAyTyJ+Y8McoVKAIKhUsitt376BQoUI4ev0SHkc/hrubB4x3wmBwcYAhjxsMcZQ0Noq1gBaLeB1FmE3NdvtA+nAMKFIX7SrWEDVHnSII6QNmxxGmNMdo3L8fLMSSLiW6jRgYVaRIETx6/EiU9DIUS2AExIKgCIKyIKQRM2THVJXFRREEu5BLcZKyIGQeQ/bwnFkQTJUS2KhoxjgEy806iSDk88HlK1ckLYXKaRGRkfDN64OQsDB4entCZzQiPiYOri7OoGhbbGw0nN1ccT84BEajQUzGCbExEqEeZzSIrGpsdIz4GskXohkR7uwsfWeWLMRERMHTK4/0owiCNpM6LQtCvbr1RPnu5UEv4+TJk/J8OUdmTJ+BDz/6EO3atrPd760IgsT1KBeD9jEIiiBkfh1QBCHzGD53BIFm+KCgIBw7dly+4xs2bCSV28zN0oJw8cJF0U2PjIrEzZs3MXL4SISGhSZ97bBKW6VKlaUfVmqjjCqLuPj6+or++4MH9/Haa69JwBBbiRIlpORsPl9f5MmTW4qu/PDDDyhYoGCmoq3DwsKFIJhYDxAYFKSyGLSZ20m9mF0MfmX80Kt3b1SsUAFVq1eFj7ePVN8rUqQoPvvs04z5vBVBUAQhi4IUFUHI/AKgCELmMXzuCAI385UrVsom6uXpib79+qXYTC0Jwo3rN+QLn5Xajh49iuHDh+Phw1DkzeslVoit27aiZcuWkpkQHR0DNzdXKcLC/NmePXtKChOjde8F38PVq9fQqlUrOYZ1vlmYhQGK1apXh4urs5gFk/J3MxglHfYwLDkKXBEEbWZ1ql7MBKF6teo4fvI47t29h+3btyPkQYgUAZo0eTLGjh2Dli1aQudg4wNUBEERBEUQNHtfVRaDDu+8+w42bNigGaZadPRcuRi4CcfFxeLy5ctwdHSSOu2WOciWBOHunbsiakEykGBIQK5cuZIEWAgcC7fQTcAWE20SEiE5YGojrQm0Kvz262+oV88U+R106xbKSC6xA/Ll8xFrAoux8Po8nmREorlt3F/MD49pckniG4ogaDGnn+jDTBDiExKQO1cuKeDDmAM2dw93iSXgMe7u7rZfXxEERRAUQbD9fUnnSEUQFEGwazJlpBaDJUGgf9TS/cCLM2/ZmqhLTFQMXNxcksdnhLgQaOo7cuSIfGWGhISgY6eOuHTpkpSWdXF2ETLAynOUhSV5sUcF7FH4Y+TOk0u5GOyaHbadlJTF4OaWYQKX5hUUQVAEQREE215AG45SBEERBBumyZOH2EsQzpw+I7Kqt2/fxp07d9CjRw8RtcnrnVei1/fs2YtGjRrKl79YENxcsWP7drEqNGzYEJRmZUwCzdBFixUVlwPPYwR8gQIFpF590aJF7Lony5NoqeCYpCkLQqbxtNYBCcKD+yEICXkg5XVp6bl//z7KlStn//UUQVAEQREE+9+fVGcqgqAIgl2TyS6CkM8Hq1etxqXLl7Bxw0ZMnDRRggxNGu9e4kp46aWBmDFjhigtkiBERUfh66+/FiIwbdo0PH78WCLd9+3bhwb1G+DAgQMS8U5pZ2Y6VKlSRRQVqcNOSVRmVdhjQYiLj4O3t7ciCHbNDttOMqc5NmvWFG3btoNvvnygTHK7tm1x/sJ5ODk5o2nTJjh75ixuBtxEly5dsGvXLlSvXh0VK1W0fhFFEBRBUATBthfQhqMUQVAEwYZpopEFIZ+PBCbGx8XjzNkz6N69u8QghIaGwSuvp1gF1q5ZKxsBv95Z6Y+xBHv37RXy0L59eyENe/ftk3gD5szzT/78BYQcMACSUswBAQESrBgXF4eoqGjUrVsH3t4+cHFhbINtwQjRMdHw8kqUqlUWBLvmSHonmcs9M8Vx8GuD8ceff6B///6IjIjE/gP70bVLV/z9998YN34c/lr8F06eOikBrKVKlkKvPr0UQUgDYJXmmDVSyyqLIb03Ov3fqyyG9DGy5YjnKkgxvRuyjEGg8hWLa7CZ4gP0CAsNFSuAwWiE0WCAg6ODBDEyM8HF1RUJCfFyLMkCYxC2b9uOufPmijuhfLly8MqbF3v27EFeLy/45veFm5s74hjs6OIsJMP/ir+kPbZr3w6tW7dOb7jy+8jISOVisAkp+w8yxyCsWLECQYFBOHjoELp1ewGzZ8+Gbz5ffDfhO7Rp00ae7cyZM1G/fn1JjWWK6+QpkxVBUATBKgJZVYtBEQT733XzmYogZB5D2Ts1FgbUZlQWvdjlYvD1wZnTZyW7YN/evejQsQPc3dxFB4EEgRvGhQsXUb58OclKYPEmFxcXKQlMVwE3CJIGVvDiz+l2IHGgMBML6rAeBPsrUrSIBCiyD0NCgsg+s6yumZSwsiSvxfOItDUXBGMQfPIlajkoC4Lm84cdKqll4JCSWlZSy3ptpJtVsab0lynuH3du34Grq9sTB0t12ciIFD/n3qDSHNPH9Ykj7CII+Xwwb948LFiwQIjAunXrULVKFYQ8DEFer7zy1T523DiM/uwzSXNjyiNJwMCBAxEbE4vVa1bjwYMQ+crkz9auXSvBjvw3NRGuX78mkr3NmzXHwkWL4OrqgqJFi6JUqdI4cviwWBTKli0LijEVL14c06ZOkziD1DXLxYIQHSka39IUQbBjhqR/ipkgkDAKSUvH+2NIMEJvqYdgWXHTfDkVg6BiEFQMQvovn41HqBgERRBsnCopD7OLIPj6YPeu3bgXHIybN27grSFvwcPdIynNkQGJU6b8iGFDh4obgmxv1apV+OyzzySL4auvvkKrlq3wy2+/oH69+jhz5owELTLdkWTi+o0bQjhKliyJ5cuXwyNXLowe/VnSwLkhJVkLzFrMaWxKdGUogmDX1LD5JDNBOHT4MKpXqyaprimekUVP/Hn3F7rjjTffEK2E2nVqIzg4GB4eHqhatWoyuVAEQREERRBsfgfTO1ARBEUQ0psjVn9vL0F4QgfBaKGDYLlZJy70vXr1EncCyQCJAK0OjFHI6hYeFp5cY1xZELIEbjNBGD9+vLiN3npriGSorF2zBgUKFsDYsWPB+IS//voLv8z8BStXrcLAgQMwePBg9O3XF2VKlcGJkyfw3n/eSx6fIgiKICiCoNn7qgiCIgh2TSZ7CcKJYyeQYDDg3LmzaNK4CVzdXMWC4OnlKdYAyiXXb9AAHh7uIrVshAFHDh+RL3/GIDAzYceOHWIl8PDIhbt37iAsPBwlS5SAq5sbbt68gdq1aku/1lwHtt4sdRgY8KhcDLYilvHjzAThyy++lDiUlwa+hKPHjmHnzh1o0KABypcvjw3rN0hmCrNVPv74Y1Hq7NXrRcydOxdz5swB40lYxKtV61YoU6aMyGurao6qWFOu3KpYU8bfyCfPUARBEQS75pE9BMHbx1uUD/k3lQ65uNPvHB72CJ6eeWRxp4iSTq8H4weZgUDrgVFqKiQOk1WeDcakIEPK85rN0nIcIzxZ2jExS8KumwNEvCm3Z+7sJQjWfOpPuwFDYjhrIibm+7b3nrP7PD43sypm06ZNsW3bNtSsWRO3bt2STZ8lnw8fPiJCShTDeuXVV7B3z174+/ujYsWK8jezUiiQZVnzWxEERRAUQdDmbVYEQREEu2aSPQTBx9dHdAwsg9GYzmgiBSmDAZhhwFoNlhkGUlJapxPNg6xurP1Adb9stSAYIUJAvG9ukJUrs6pl2m3Wb7MwYMAAeOTyEJI0ZfIUtGjZAj7e+VCiZPGshijT/duaxSDBqg9Dkb9A/vSvqSwI9rkYbCCnG9ZvRIcO7dMNJk3/ISUfsXPHTpXFoLIYMjJlUhzLtHnGiuXhB6YNTWUx2ACSFofYSxBoJUgvWl2L8WnaRzbGIPz040949913Qb98njye2LdvLyZNmoRhw4Zh4YKFUndi4sSJmDdvPu7evYNatWpJqW1+RX///fd466230K9fP6xZs0ZcMX379hX5YmZvDHplkKawZLYzWwlChq6jCIJ9BMEGkBVBuIqSpUpC76BNWqL/JX+U9mOhOW36U2mO6U9iRRDSx0iTI+wmCJpcPZs7yUaC8PNPP2P4iOH4dvy3WLz4L4wZOwb16tTFpMmTUK9uPZSWypV6UYucM2cuKlWqiNGjR0v6KP9evHgxcnnkwqFDh0A1SB73zdffYPmK5Rj29rBsBu7plzMThBHDR2Dw64MlvuTq1atCasLCwqUEOINaGbhIV8SLvV7EsWPHcOPGjbTvJR2CcOH8BSxdslQCG5kNwTEwe4IZEdTPSN0CbwaKxkb+AonxKKkOuHjxEv6YPx8jR46U9N22bduK9YeVQB8/eiznMp6GMS3WWno6CCSFTZo2kT65uJFgx8TGSHquuepp6n5tUVJkNhEtd+a4nq5du0rmT1L9ESuDfRpBoNuPxPaTTz6RPhwdHREbG4fHjx6JDkn+/L5WN8KnWRCY9sz7Zw0WVohlnEo+n3x4EBIi1T/pRrDW0hNK8ve/gnNnz4rbqm27tqLcSVfmkiVL8Nrg11KUqk/q3wiZg9YIwsOQhxj92WjJyuK/a9WuJc+eX7VSrTY8DF6eT1aUfRpBWPjnQpmX165ew+tvvG6an0WKSFo3NWOSKs1aAJAeQVi2ZBl6vthTauDwg4J4RjyOQJGiRaFPZcE1d5uWiyEhIQHL/12OqlWqokChAnK/W7ZsQeHCRdCocUO5b2stLaEk1tj5YvQXmPD9BMyfGU28igAAIABJREFUPx+FChVG48aN5P2kQB7dzYWLFn7y/VQWhBy1picNRhGE5OdCNwhfmLS+BAICbqJuvbo2PcixY8bh32XLsGDhAly/fgNjx47B0qXLMGjQy1KTvF3bdpj5yy+4ffsWli5dKmqSly9dQv8B/XH5sj/OnTuH4cOHY9myZeK7ZyAoFSQ3bdyEAS8NsGkM2XUQX366nLhYTZjwPf76azGaNW2GqtWqYe/ePXjxxRcRGBSIvn364r333kOfPn2kWBdrcqxctdL6BpkOQRgxfCTat2+HQoUL4b2R74nCphCS8DAhKRklCNxof5/9O7q+0FUsOx999JEIgbEo2c5dO1GkcBHR9vDNn88ugjDqP6NQu3Ydkf3etGkTSEiGvPUWChcpjPoN6lvt0xaCMH/efMkMYtrwlatX8Mcff2Djxo12EwQW3erXry+++24CDh08iDJ+ZbBq5SqZeyR1X339ldWxPo0gMNWYpJgbxm+//QbGqTAQddGixdi8mVhctJrRlB5BYEYMyebGjZvQsnkLUeV85ZVXhFyPHTc2Ral6WwgCLXjr1q4Tqx1l4u8H30dcfLy8lyT2DKYlcUptOX0aQeBzp/uQdWmYyvv+++/jhx9+EHM6M7uY5pu6pUcQGAw8YsQIHDp0GEuXLhHCQXn7Ue+PkudlrVklCEaAtWq+G/8devXuhUMHDyE2LhanTp2SwPHChQthxMgRGSIIJC29e/WW94dElYT41VdfRZ8+fVG3Th1RV9VZaqAk9q5cDNm1WmfwOpkhCPEAaFTTm90N6WgSZHBo2h+ejRaEjA5+3959aNSoke2n2VaKwvb+MnGkmSAw1oKLIb+y+eXJUt7Bwffx/YQJuHP3Dtw9PMC002rVqkotj3/++QfL/l2W5kKeVpAifz77t9kSp7F//34sXrRYSoR36NABTs5O8nfGCcIerFy5QuSf+/TuI2Jc48eNlyDKF7q9INeZMmVKmm619CwIQ94aIvUnSDr4NU0ry4cffigbY4OGDewmCLN+nSWZIbz/rVu3isUpMwSBGxrHykwT3vf9+w8QGBiAlStX4o033sAXX36RYYJAUbSE+HjBk+4yfv1279Yds2bPwprVa4TYWDP3p0cQFi/6CxUqlBdp765duoCxPG+/+zZovfv6m6/tIgibN27G8RMnUKFCBQQH35OS9hR5O3b8mBBRFpBLHWf1NILwn/f+g27dumHChAnw8/OTL3N3NzexYPC5S2BuqvZUgmAEvvzySwwZMkSE5VxdXNHzxRcl64tEvGatmrYTBEDm4Y9TfhQi8P5/3keJkiUke8jXNz8eP36EDz/6MMMEYdHCRUKymjVrhvDwR7IWLF/+L1q1aoVff/3V6jukCEImFuCsPDUjBIHj4OLvk8+booTYdO4EinrlQ8Dx0zLRaAovWLCQmKY4KXJCY+EnmpxlPDmYIOQErOwdg9nFwDlAnF2cXRCfEC/FvCitzeDLhPgEUdiklcbdnamvzGxxhZNzGvPkKRYEmtTjY+OFDLCIV/du3fDvv/8mpcTy5xklCBwfx8txmzJujJKuy/lOk7T/lSvo+WKPNCF6GkGgVYomYKqDcvF1cnSSAFam8LKl9a6kZ0FgpdPIiAiRJWcRNI6b/dN0Lcw9jfY0FwMzkfJ45hYiRzITH5+AAwf2y0a5efNmDB021KrZ+WkWBGLJ+6dljmZmBquS1EyfNl1idFzdTTikbukRBM6DyMeRQrLcXN3w6PFjuLu7icvJI7eH9eqvRggJZKEwvWNKkAzxBsTExkr1WJIA9k/3Sq7cJhE4Zm1Za08jCHR7EEOSAtaoMcvOc/4TXxLRDBEEQNwAtEbQCifvm4uLWD4dhZhb15Z5WhZDTFSMjINzh+4aznm+Dw6OjnBL49mk5WIQzGJiBTdXFxexUDArjT41vvtcC6w1RRDsXX2z+LyMEgROyHy+ibUNsnhsmnefhQSBAkF0B5hehv9nzWgUgpiWfz4JjYwEtupMXzd0XdBHLZkvFi1JqdEIzP9jvpiWn9YePnwoi2la/u4UQbeWFjEdcNX/qmwYpUqXSvMSN6/fRHErGSepxy0dMA3Ysnx5GtYgbi4sguaWSCSsXjwVpowheFqaLBfp8+fPyxdycs5xCmCTo48TK8lwM1+6ZIlk49BqY3WT9L+CMn6ln3hOKZ4ZN4nE58g0aVqYWAE0rcYNi/EZGQ3+S0vF03wdEi/GfqTGKQk7S0uoDVbR+/fuI59vvvTL0VtW5jH/O5WoHMfIjd/Ty6RG+tRnbpk3niKHPNVZRiPu3r2LggULmvoUNXTmVFtUC7JIsU4PP/6e8R9ly/qlu9AlDSudd58Eh+qqSaq36fSsghTThV6bAzJKEGgqpJ+Kjfybz/252RONkK82LrrWWmZiEOgiaN68hVSs/P/XuOIYNZ8IpmJc3EwTnrrx2I43q47afnRGjpQ0Xytpu1YJgrwztr01kh5s26E2DdfW66buLK37MB/HfjlWaxjYNDArB/Ga7DMzQmmpu5VxJpKU9O7J1nEbdSYNl4xiZm1s/Jn5mdv7rKyNw3zfZjwz0zdxs8TRVpyedlyxYsVw+sxpRRC0AFPLPjJKELS8dk7rK7MEoUWLFmKiU00hoBBQCCgEbEeABIHBttayOqz1oiwItmObqSMVQUiGTxGETE0ldbJCQCGgELALAUUQ7IIt609SBEERhKyfZeoKCgGFgEIgbQQUQcihs0MRBEUQcujUVMNSCCgE/p8goAhCDn3QiiAogpBDp6YalkJAIfD/BAFFEHLog05NECTFBZA8bUaRW0b863RGGAwJSNAlwMGoh4PRlHObXsklnc4AhqPr4CjHMur3WTRzVHxa185sDELTZk1NBaueuyIVz+JpPP2ayVHWOrDgFuddZprWUdeZGUtGzjW9Kdq+L1pnBmTkfjJ6rB56GNJdYTLSqym/0ByJn5Ez01w3NH7fOVcd9Y6yBmvRWDBP1mmNiuNlxbukCIIWTzoL+njCgkBRk8gIUTxr3rw5cuVKLJUsKbNGxDoaMTvwGEKjo5IWrvSWL58EB3zQuCs8YF3HPgtu68kuuS5koQ7CiRMn8O/Sf5PyjLPlnnLIRUgqqVmQVk0Be4YpfTKlNiZGZF8zlZ5ohEgwU6QnLW15e8aYdI4RCAwKQtEiT9aAyEy/kVEmYSmKAGnZ/K/4i9SxVkSWz+pGwA2ULFHSVLJdow0zSsS0nGHe4DTBQAcpVe/l5aVZv9TYoG6BZcXazIyVCoameapNTi7fHWpZ+PqyDok2fV6/cU3EprRqnDNUbVRZDFohqlE/1iwICxcuEFlMViG0XFBJEB45xqP1hkm4GXYPsJGRFoxyx9mPfkVeOGo0Pe28+SwkCP6X/UUHXatFws47fCancVOgep27h7t21zcrKYY/MpWHzuS6dvNGgGw2BQo+KW2rxaAPHDiABg2sSybb2/+D+w+E1LDYj2bNAKzfsB4dO3bMNKbmMVFgaNfOXWjesrlmw2RHoqSYK1dyuXYten+KkqK93fPdNxdfs7cPy/NuBd1C4cKFNXs+7PvsmbOmsvOZfI/M49y+dTtatm6pxe1KH6Kk6OmJPHmSP0if1rlKc9QM+qd3lJogsNrYxYsXRGq1Rs0aoh1u2cId4tB24yTcfHgXjUpUQTEXTwTHRyDSGIejgf6Ii48xHS6WPJNtwTfaFZv6fonvPx0NVtWrXr06Ll26JJKrlN9lCWMqaZHhHjt6TDbZhYsWoniJ4tqikIUE4fLly/Ar4/dUFTttbybn9PY8EISAmwEiAZ2/YP4sAe7ggYNpFl2y94JZQhAAbFi/wVSvQqPNgh6QnTt3onkLRRD4rGmCN0T9Bh3OQi9roEm90PQvs32F/6U3OY8ce0Dv1AyAyWWbgiAYQ2GMngId7sMAB+h0lGaOTVxbLR1Q7JmuBJOoWILRAQ7O/QEHkladFH+rVKlS8jM3Xochej50uGeyDeuM0InL2NxPHIy8HoxIMJaCg/sQGEFFU1NLiyAkPApHxO/T4Bz5KGnaG3UJ0Bkdxbrk9srbQJFiT8w9RRDsXSWy+Ly0ghQjIh7Lgkp97xQEQR+Ptht/wM3QYLQpUgUNvYsj1sMFYYYYLDi4HVGGGCQ4UiwoWVuTBOHCh7PhnfgCpClrm0QsEq+o1QJmvoGsJgh+fsnmVfPY05IYtfx5ah9N4rk00Jg8piaVusT/SCZgifclxyWKQ1qV2mXgBzuyIuuqxSbxTAlCKrnYtF4XKffs7JxxgpDYfwpcRTTSwpSuA2wiCE+T7bVyHZsIguXcsfZ8zYBY/O5ptRjkcKpXJhieqFWQAlvOKQtB0l07dqFZC25yabTU70FqOWMr70uGLAhpvU+mfTi52WJBsNZXootSnjtLKlsc84QFwWiEIbQD9LoTADdgCeoqBIPRG3qHq0iILwSd/hEMej0M8QXhlPs16FxYNdEEQkoLwjUgvCVgvGG6EV1+GOJzQ+90EzDEwJiQGwlgrZmLMMRWhN7hBozwQkJCHjjmHgW4vCFjfZIgHERcyAdw1AVB53BNrh0fXwYOunAYHIwwxBaHk9MpGBKqIkFXCE7es2FEgaT1LS2CEH/nNu53bQZD2D0UjopFoJsr8kdFQefsjGjokXvxeqBuQ0UQLLa49Fz0WUwBnt69dYKQ9qobbkEQejfpgDKuXnCIjUNoaBjyeRdEvCEe18PuYOGpncJm2XyjXXDhw9+TCYItd/y0xdSW860dk5UE4dJl0Tv/+++/8dZbb2HFihWoWrWq1IHfs2cP+vTtg92790glQ2qOjx0zFl/+90tcunhJSiDXqVMXvr75UKVKFTRu0hidO3XBrFmzsGTpP2ChlfLly6NWrVr45ZdfpArgls1bcPvOHXz44QdSmpY/8/f3x5gxY5JePhYfoumb/Q8ePFh82SwQs279OinB+tNPP4nV5tdffoVjWkWTbMD6WRGEA/sPYObMmRg7dqxUt1uwYEGaBXVsJQis/TD83eFSUpvKmNOmTpPiSnSf8CuZga7t27fHjRs3wGJJH3z4viCUHkE4cfyEVC4c+NJAcXPQUsbqg6wNwSJOPXv2lFoeXbu+gBaJpvr0CAJrCnz136/EHP3pZ5+CG9Urg16ROTJ8xAh8//0EsLJe8eLF0aNnj6RaEukRBBZemjRpElatWgVaXqZOm4bhw98FS/lyLn337Xfo3bs3AgIDpGAWW3oEYeiQoWjbth26dO0sxxMPVvN8+eWXsXr1anTq2Alz5s7Fyy+/lFTdMj2CwPs/dvQ4Nm7cgImTJmLpkqVwcXWRd4Pzmu4ZvhO8/3eHvysFp7hZplWsieOiZDrLsfPd3LZ1GxhfEBAQIP+uWbMmWrdpLc+aRYeIMXn7ky4GA8JvDceXn/+JyRP10DtE4b3/xKJTp8KoWEWP2b+HYPPWSLw6KD+CAu6h98DpqFLr7aQ3LSVBuAFjeHPoSBCMegQF5cWsecCgl/KgZPF76PRCJGrXckWXzo7YfyAaZ0/HoXpNPR6G5UP/V75C2UpDoTM+aUEwJBzCid0jMPSdI9iz0xPREY6YOSsMhw7FoEkzZ/jkicPFKy7w8wMcHOtg0LB/YYRvuhaEmLu3MaV+XbjfDUJdd2fEGvV4YIzH0fAE+Djr8c7e/XCpWeeJOiDKgmDDQvssDklNECTC2WCQCFq+YKmpXhJBCAs2DdcIeEcbEOJursyQ7Fow3493hDO2D/wGP309BpUrVsL69RvQoEF92fiov80FeeGiRejcuTNCQh6AC1S//v1RuXIl3Lp1C2fPnhUf1WX/y7Jo86X99bdfZbPLUMtKgkAXQ2k//PjTT7LYs849iQBL3LJ8K0vcjvlmDFq1boXPRn+Gsd+MxZdfmQgCCUXjxo1RuFBhVKxcEZUqVsKSJUtkge7apSvu3ruLa9eu4fXXX8dPP/4km8zlS5exdu1a2Rg+//xzWdjq1K0jXwr//P2P/JvlZVetXoW7d+4iLDRM6s8fPnoYD4IfoHyF8vjvf/8rGK5etRoubi4ZgtLy4GdFEPbs3iPlY6f+PBXfjP0Goz8dDZ80ConZShB4X+vXbZACSSxM1K9fP3z80cdYu2atbJAxcTHiSmLZXxKsf5b8YxNBmDl9Jvbt34eJP0xEgUIFwLHLplOrptzDt99+K6WVSUCaJ36JP5UgGIG9e/ZKqWQWCuOcioqIQo8ePbB6zWoMHz4cb775JiZPnoxChQrhtdcGo3KVSjLWpxEEksrXXntNClvNnTcX94PvSz8kRXw/OZ+nz5gu/uxTJ0/BycU2gjBn9hyZr9//8D1Kly4tJZS//vprKaE9ffp0GffUqVNx+PBhKVft6OSYbgzCw5CH+PTTT8VlOeztYUK4+vbti9atWmP06NG4cOECfp76M+bNn4fixUqgQsXyTyUItBKx3DV3/YmTfsCcOXPQuVNnIaHr1q3HgAH9cfHCRaloOXHiRCxavEjwTE0QjDBAF9oR0385jqFvAjqHB/hjkQHLlwGffNYcRw4dx5djwvHhByXQsM4NxDtPQ+sO7yQZOlIShEAgrCmA60IQ7gS74L33ozDm6yooXew2ipULwYejvBAeGYpmDZwxclQMhrzugAIlysC3wFA0b/UfGWNqC4Ih4SDmT+uD+fOCsG69J6Ii82Lp8iD89U80GtTXY1B/A9542wGL5rpj484yeGv4dhj1nulaEEgQvm5aD8FXg/C+pyMOPIyDm7cTjjyMQ6wDMObgUeSpUVMRhMQF1LJ+l90LcFaemJogXL9+DcePHRczGut5e3unrNz4BEEw2c+eOkSfSGfseHkcjm7eijKlSuPkqVOoWLGilCxldC3rFxQpUhQ1alZHyIMQYfqPHrHsbB44OiSWA9bC3ZDVBKGMH2bPni0LqpSxdXFF46aNZQMuWKCgROjyReVX2Mcff4xRo0ZJaV6WveUX0Lx583H12hXcuXUHLVu1xMyZv6BH9+7y9fPmG29i8OuD8fBhKKZNnSok5OjRo3hryFv46KOPxIpAK0PXF7omPQtWA3zzzbfQunUrKcF6/8EDNG3aBIsXL0adOnUkJZM4cxxPqwCY3vx7VgSBX3JL/lmCV197FRMmTECnTp3Rf0A/q8O1lSAw+Onrr76W4Lh2bdvhzNkzYvKtXae2kIR8+fKhUZNGQmJp6ZFgPxssCJs3bcbp06fFD+zg4IgtW7bg008/kS91VsHkc1u5fKVsjJ9/8bn0mZ4F4dy581i1ciW4URYsVEhKHd+5fQetW7fGjz/+iA4dO8j8YlxR//79kdc7b7oEgRaU5cuXC0ElMaK1Y+XKlfJF7pnHE2XLlRUSQwvCdxO+Q9u2bcX9lZ4F4czpMyZLQadOuHjpIq74X0G37t0ReDMAc+bOwUcffoTbt2+LdYukhpaA9CwIXCvYJy13QUFBaNq0GYICA+Hu4YHLly5J4KCsL3Hx+D/2rgM8imqNnt30hBJ6L6EX6b1IB0GlC4hSFFRAepGOgIBUQaqKIAhSlKIivUuVKkVqqEnoNb1n33f+3Uk2yybZZGfzBOe+zwcks3dn7szce+7//+ecEaNGyHyTXASBaZVVq1bj3r27KOJTROalgDsByJY1mwAXUvHeaP4GVq9eLYCpabOmVgECf/g0oB3GjtuHrp2d8PhpGHLnCccfm7KgxwclsPT7q/DKlBm5c0fg+N/3MWbcIuQr1Cd+L5Y0QHDCg3sZsGJVHCpWzg4P1xis/zVA7k279kH4eS2QM6ezbPDuPXZB/8GzkStfjyQAwgns+q0XNv9xDjWqZUbTJkWxZIkvonQ65MkTjOdP3JE7tw4P7+vhU6oCOnRZBwNyphhBCH9wD1/XrYlCTx6hCCIRbHAGdDEIccmA54ZYfLh9D1CpugYQXk6AYMDWrVslpMaJhZMAJ7OEZoAAhJ2zpAYhoSWvhJA93B1Xhy+Ft8HozvZCSy6Panm4ZX4wNcDBwQChqE9R6JwYgTHlKU152vgaAbNzVyxVzesHOC7xNDFLa1jToFnrK6UFnJOi9MvcKb/DrGYhxc/acIAAhNBweGZwAIshOBg5c1ovLIwfQ4PRTY+aHUnRIf0DAuDm4mpkRCTXTOPOXDN3k7PnzI5/Zg2xZmMornsJEgXHjx9H9erVk+xZGf+v53wtESOrjA/zzB4BwhPbWAyMUBFk0HJY7rVSH2G5PTH9myF0godkmwESqq9Xv15i+qopFx+/Upjev5QAgpKzP3rkqFAMS5Wk3bTxDBLV1yjnrLOBxWAaLy7sjDq0eNMI1uQ+OVnYGcsXGe/XjRs3hKInx1g2U58D+g/AvHnzEup+kplnXqxBABD8NqDbCsR54shhN9Su/Rw6JzPHU2XO4zvpMhMG18HxiyajpgksBn+pQdAZbgBcbJ3dAUMInj/PhD17otC+Q4Rxf2Zew8FrinOGwXMh4NJTCpQuXriEMmVLm0lq/IXYwM5wMvhh3UZXdGing04fkVBaweAx+9UD0XHV4Zx5E4CEd2fvnn1oZIXFEHv/DiJbVIPXowemm2u6Zr0eiImD4dddQLVGLwKEgAB4Z/ZGxswai8GGKTf9DkkcQTAgJiZW8qvOzk6CmPV6Y2Wt8UU2INiJNMcZFgAh+fPNGuqC3Z0n4tSuvShVqiROnTwlPvBE9hcuXhRfce6WIqMiZaILDg5BmTKlheHAEGftOrXx8MFD7NmzB4UKF5IwH3cHDHk6OSecX4qj5kCAcO7cOYSGhKZ4Cq/qAdFR0fH5aDWukYsGd/OhoWHIli2r3V1yl8lnK2tW+/uydjLxIVy7zzShg8DAQImgqUkf1en14CJds0YNFc8U+Pvvv1G5SmVVrZlDQkKkPiMpe/a0XICTkx4BAXeQN28eiYSo0ZjiyZc3XzyQJIugdKkncHd5mGQNsAmqizjL3Qd5cP9hVsSZFnnOedlzZhfdFienMJQu/hCuLpGIMwCxsQa4OFsPTJtjGIJXP/9cePQ8M+IMOty6eQuFCxeOP0dXl6coXToYToiwGIIXS+Yio71x4WJmGHTuJiCuk+glo5CWzSMmCnluXAD/NJiE9Ixrh9ER3r9QUQR5eQuENS4qxj+Ycqpdu7ZEjW1pGs3RllFS4ZjUSC2nFSBkC3PDmf4LsOyrOciRPQe423Jzc5OwO4u0pOjHywshoSEgcn+9/uuyC4iJjZFF59nT58hCLnhqogXWxsaBAEF0EIoWNT7z+gQPe9kdUUiSNCKTtz13k5ycpFKck5TZronRB/m9k/XJS9k1q3DrVeuC58TQtLtHKmtCUjiDsLBwhFAHQQVqImtYyMjJ7SAdhJSKFNMy2BJB0Kusg5BCDUJazpOfYcpFbZojUydMy7EeQq3G90siCEV8VAMITJdIfzrjOy3FBEmxl3ghSbCWlGu8e/eeABhp0o/SmejQAmYLb5LjYoEhWI/BFKSQLO3FRUJrPRBfK2P9HBh+MG3edNTDNLsOKxFjY5FiJmTKpAEEtZ51VfpJD4CQPdwN/wz+Fu5hkXAj3SUiUvLfnp6eRjlRAytlnRAdFYMMGb2MD7HZopms0mxqQIMDAQJ1ENhYST1y1EhMHD8RN27ekJqEW7dvCVOgcGEf2cWuX7dOWARU92MBGQsYWZHPiMm1a9fxxx+bsHbtWmFEMOfpd9tP1C0vnL+AoOBg0acoVrQoSpcprcozYG8nGkBImcWQljHWAMLLBRAePnyEggUKIDYmxqR58CIaIIjg+2IuJU6tAfMj45UoTXMg/zBWesXnJeJRhkRXTFoLiXEH9+hGHQPlf+YKl0oEQ9nJGyEIj2YaOAHEGPs0ysdTtUFJJsdvdhJlN4zU3wQZa53Ug2zdshn16teN132wNmVrACEtM0Q6fCY9AAIjCOcHLcLuXzbAO1NmsLiKu81q1arh+PETstgFBQdJ6I+FQdmzZxN0z8Kmwj6FkT1bdinEiYyKQmhIiNCrypcrjyZNm6ROZc2RAOGqr1Rnf/vNt1JRPWXyFKzfsF6ocaQrFipUSAoXjXUdTlKsyOrq2V/NwZAhg6UiniyDbdu2YcP6DUL1GjZ0GL6Y9IVUY1PZkhRIPz8/zJg+Q5gd9lAT1Xy0HAIQDBDAFBIcokUQ1FRS1CIIDosgMA1KSiXnMGPTYdiwociUMRMmTJyAlStXYufOnVI0ypoJUnObNG4imyQuuO3feSde94TzH3+3Z89edOrUUVge8+bOw7Pnz0RgjvRNsjVYKEk20pdfThX65uuvv47169ehVavW6Na9q3w3Q/fciDBywu88fPiwFLIu+2EZNm/ZLDUxLMJkCqJ1q9ZYsXKFzC8sJGdRKdNyLGb+559/pP/9+/bj199+k+JnFoGy6Hru3Hny50cffSRMNKUxMkz2CmtZkmsaQFBzRlaxr9QChCCnGDRJZQ0CAcLud8dj25qfUbpkKRw5cgQ1atSQtAIXPC6YDCOy0r58hfLInz8/MmbMKHlNHx8fREVHIWuWrGBVfqwhDnqdTlIUrChPKhRvdYgcDBB4zgQGY8aOwcYNG3Ho8CF8+umnUmuxfcd2o2yut3d88VfFihUl98YKcy76deu9josXLmD9+vXyoj4PDJRaDGoqMDzYonkL7Nq9C+Hh4ZKe6dWnl4pPQtq70gCCFkHQUgw+UieVGCBAGEPcGPD95ftOdgTpo9zwcNEldZZ0ZEYM+R6ZNxa9dnm/C/bt3ydsjVEjR+HAwYOIiIzAiePHhY7ap08fHDhwQHxzWFR59aqv1OwwQku1WlLCSaEl2CYtdvPmzahWvRpat26DoUOHCHDg9+TKlUuKYlmfMn7CeGHDsG6Hug+jR42WzQ6pnQQ3bVq3wW0/PxQrVhS/bvxVJJKPHjmCChUroE2bNgI4WCPApgGE5OdV69UkaZ+LVf9kagACY0+BTjFotoNFig9sNpnLHuaGqyOWwtuUk2JKLSgoyOaCFDUvOsD/TpI5TXvcHJPyYli75me827mTmpfwr+uLE1uwoqPNAAAgAElEQVREeAQ8PFU0FVLZi0Fojm5uyJmLhjXqN4fVIJhApZpnnJJQUlq+K0UWQxo6JXgWLwYVaxAUFgMjk2oVKSo1CFw8C+QvYBZBgCz848aNQ906dYWZwAJwLtDc4bdt2wY0eeMGgUCCVfzDRwyXhZk78oEDB8jivWjRIpw4cRITJozHrl27ZCGnhsy7nd8VvQuCBAql/fjjj/J7ghH2Qar0nt170K9fP9SqVVv0Nnbu3CGbM9Kihw4divz5C6B27VoiBsbwBXVT5s+dL1TbL774QlK/3bp1k2juyBEjRYOFBdmsQXjjjWZST0awEBEeLnoU7JebotQChDv+d2Q9cJRZEx8/0sXJ4Pk3tVcUIEyH33OaNdk21DnC3HDy069xes+fsuu/5usrL0u+fPlw6dIl5C9QAMHBQciWLTuOHzuGwj4+uH7tmoTZJf8eGoo8efPAz89f0hF0DiRPOjYmVnLzkZGRgmptKWJMb4Bg2wil/qj4YsXkiqFS322aPqEBBAdGEDSA8FIDBKYGnjx5ikOHDqJ8+fKixsjIKHf2TEVQv4GiUwzpWzb+nJRHzpPOzi4i3uXp4Qm6cVatUhV/nzmD+vXrYcWKFWjVqpVEY9knJcVZ68ToBLUlmPokKGCKIDo6Bs+ePhU9C4IJgi+meplGYIqChdZkUZw8dVJ+TooxBdsYFdi7d68UI5d97TVs375Nrof/JnWYqQYfnyKgRP/BgwfjL8XWCILjAYIO/fr31QBCamf4NEUQtk+HXyAjCLZVCJLmeHXYUgT6BUhq4PnTZ3j67KkoBxLFB4eEwN3dTShdpC9a8wygZDAfWKLXUqVLGS1wzQsZbbxwRwMEhaFA8yk2pZiHfwpzIS5Ofsb/+DLzBeWxyu9tvAzJzXPXLtx3226DrV2n+jgNIGgAQYsg+Ej43TyCYP7OW6YPknrJlDnC/Pf8mRLdtOXnitZMUt+pzD/KXMQ+Uzo/pkeVOY3HG1V2Sbt8USRPmfP4ew0gJD+dvpoRhFQChBzhbjjQ9UtcPXkKhQsVEpngKlWqyMNFhOvq4iqRAEYVKAHsyOZIgFCoYCFR19u/f794H1Cngeh/+fLlonzYpm0bKTTidZLuSSbDyVOnsG/fXtlVTPlyitjmEgSxECk4KBjduncTOd8Wzd/EuXNn5UXmrqNChYrw9b0qyny0GWZ4kQVCS75fIup2VKszV1V05JhqAEEDCBpASAwQuEjWqllLaqrITDp69Ii804wERMdESUifmjOuri7IkDEjXitTFnv37cW8efMlXRAZGSEF2FFR0WjXpq3ULKz9ea3MmYyYcqP1bqd3JZLKCAI3G2Q0sD6pYsUKsvli3VOcIc5ouufkLIXhZcqUlfRur08+QZ++n6JpkybCJqOyp9QSRfIcnQQAKKCBtWGUjWeRpbzrERGi+nrV9yoWf/edFJizf0Z2GXHgdbNmQQMIKc+6GkAAkC3UFddGLkNmEwH3/7nhdRRAIOiheAhftNlfzUbZ18qiYYOG+HHljyhbpixOnjwlIUKCB0rEtn+nvSzuLBwiqKDPwtAhQzFp8iSMGDkCM6fPxJKlS9C3b1/JM1KamYVGFGThZ1mQ1LBhQwlVkg7ZpUsXiaoEhwbjbsBdCTlWq1Et5SdUhSM0gKABBA0gvAgQyELYu28fKlWsiLPnzmLQwEFSYKiIir1e93VMnTZV5LoZol+6dCk2btwoarYE+/RuIcugePHiwhAgm4mmeEFBgcJI4MZg2LBhIvvMFAHTA2RLESTcunVLPDqYjhg7Zqykcum7QnBBMEEWQ48ePbF69Sr5LtYafDHxC/GcqFunDnLnyY0VP66QNC/lwB8/foy2bdpi4MCBaN/hHWz5Y7MAmJ9+WgUnvR6bt25Gjw96SDFl9RrVBbRoACHlyVUDCAIQXHBt5PJXGiCwSHHDxg34c/8B9O7dCxT5+WPTJnT/oLtEBwgAjh07jgsX/hGKIyuQaQS0bNky3Pa7Df/b/pg8ZbK4MSoAgRr19ElgtXPhQoVlh0GAQGc+RiKoXMf6DFdXN3mBCRKY66TCGfUX5i+Yb3xCbawVSflxtn4EedbhYeGqKv7xm9gnoyhqCCXRlZC7rhSlltM4CA4tUszsncazsvIxndGMqgWlllVE6gIQSGVTsU9HFSmKm6OKQkmkHDLPz9w9GVgKzZEGbLVq1ZL0AGsAJEo4ZQr69x+Ab75ZJK6brBvgu1u7Vm3xWqEHBr1w8uTNiw3r1wtriUWHLPwjRZI1XFWqVMXTp08REOAvZlX0zjh8+Ahee62sbEDIfPh90+84f/4fdO78roAHOp3SDZY0xePHjst58bP026E6LdO33NyUL18BUVGRUnzIeYWRDG5AmD7hpoMFl6Q+0liLGxe6j7J+jJ9n3QNBCKX6Se1OFUAIuCMiSY4rUtRqENI0iaRHDUK2UGf4jvwR3q9yBOGKL4oWK/qCV7yyOPPlZiVxxkwZEhbtpOCjhUgU2U/UQ7HaLFXJxHfBNE/bq5hm4xOleDGYsxisem7Y2J9yWFh4mIAjUrDigU4awI6kZe6SveKC3OzL2rgkZSeS0rGmBVEAgsryxSKU5Ky+kuLWLVuFMqvGPVLuFfU+FCXFlPLZtj4GAhAyZpCFR8124/pNFCpUMHUy7cmcADcHpGM/olBS4YJSPK0083w8f5ZQk0TBJD50xpddERcyCigZHyqRJ46XZYSkC+TnZkYYPDIOpH5TMMn4dzbRLuTndTqpe1KaeU1zgtiR8aXid1GK2rx+it+ZWGDJKL3Exv/XQyffqZw/vzdBBCqhBuH1enSkTLqxSJH+P47yYuDVaUWKaXiLNICQMGj20ByvXLkCL0+vRC+i8aVLuSUnnxxvvGPWTYoqriY+dYKimWlSseVkUj7dF44w5i6NeVGbLtiG7+C5h9OLISREdk3mk44NH3/hEDE0cnZBjpw57O7LsnOe6+nTf6NSpYqJJtO0nKf5Z5g+0js5IbON+vS2fB/HkUI3TE+pGVk6+tdR2ZUmKzFsywmaHRMUGCQGYEpBXCo/bv1wA3D71m3RK7DHwdS8c1IXCxYqKH4yDK+bAwRVzvkl7oT1DayPSs7IjJdHcEVmhRZB+JfdbA0gqAMQGGZkDlDNXdm/7FFJ8nSMNQiR8PBU0YvBUgfBzsFgPpbFsJJicABQik8xpCHCkdSlxbs5equYYqCS4vbtIuGt5rMaL5SkXL8KY+zQFIOPT+pE1pJ5/q77XodPUR9hFTFlaL5jT8tjS5OuzJJWUu9hIuUxd+7caTkdq5+hIFOJEsVT7I8srdatWyNvvrzJHnsn4A4yZqIXg2PcHLUIQoq3yvoBGkBQByDQi4GKaDLpWm7xzW18zSdOC3vfeNomTykNFM40PgIvfiw18xIv92UQSvIPkJxqugsl2aFTYTNASMH8x/IGb9u6TQrj1ARKjlBSTBNAsAGgiLCRigBBqUFQS3iJ0S7qvqjWDJC6JxZFq3XP9+3Zh4ZW7J7Tes5MMTC94CizJg0gpPHOaABBXYBw5PBRUSZjJTF9FXLmzCVUTk9PD6EBUeKUUsrvvNMe69dvQJs2rYXJQEtrUpbCQsKwY+cO8Z8gTYnqap+N+CzeZlXhLrOQiaIrgiX0Oinoo4wqbbQZmg4MDEL79u1A4BKfwjCBE/776pWrIC3T3dNo4cocJj/HIqlPen2SqqfJFoBAl7t1v6yT6mgWUbImg1rymbyTcG+zQUmR0rZn/j4jevSHDh1Cjeo14OruavXcqfWeLEAwQHTuSTN98603ceTwEQltk7Z18+ZNCcm7ulnvm1+YVJEiiyM5rqS78d7xXjOnnsU7ixRzsdCUAjRkvGTLni3RBJ4UQGAom/K6XORJXbt44aJUrFNY5+jRoyhXrly8hDmL0uiIat6SAwi8l+fPnkfR4kVlR0xr9qZvNMXBAwdFq5+hdGstJYBAu2FKppcoUQKnTpwSnX9SfKmUWLlyJasLV1IAITY6VuTHyebhgnfN9zpOnTopXiYs0suSJYu4YAaHBMt7ZblwawAhVa+31YM1gGD/GJrvA9XpzQG9pAYgcH0JdIpG0x2z4Pf8EZycnGVxcdLrEB0bI+BUr3NCbJxiVmI84exSpEiaI93F0rlZ7OAcRnP09ZUFl1rkn3/+OU6cPCk6B8yhr1q1SnTY+W9OlO4eHli9apUol5HiOGHCBJFkpejRuLHjhOp44Z8L8rMGDRrg9m0/eHp4oFLlSjh96rQs+vfu38fYcWNkwWnSpIkAkq5duqJ3n94i20qgQGpTx44dRc41S5asyJwpkwhRUemMfXR+t7NwmqnIlid3bhQoWBBHDh/G4KGDU3WTbAEIpHaVKF4CZ86eAUWv6G75YY8Pk9ZqsAEg7N2zF6tXr8GkSV+I3CxpYrLIWmkpAgQYc9PLly0XEzCa3JBNwupv+mrwPiXnnmkNINCDg4Y4N2/dxJdTv8TJkyfx/eIlwiBg1ffPa3+W8yU469S5kwAH87B/UgCB+VqyWMgaaNqkKZj/nzxpMj7++GOpIq9arSq++eYbochmyZrlhVTC9m3b0by5dRYDWTFjRo/B4CGDRV53zuw5wob55ptvBfhS3je1AIHAaOaMmcJyafFGC4wcORLTZ0wXil7g80Ds3rvbquxxUgDh5o2bUn1PgMUJ5dat22Js9Pnn43D69Gm5Nqqybt26RTQF+L3mTQMIqXq9NYBg/3Al2cMrRXNk/arRrIkA4TFqFi+LO08fI5tXZhjcXJBB74KHoYG4fvc24mjjrDdW82YPccXVkcv/LywG7uAYrlP03B0JEGgmdfnyFXTv1g3TZ8xA/wH95Pqpi8DdPuVKr1y+AjcPNzFn4uJN8RFKnv7yyy8CEMhZnjx5suwIqZ1OWiMpRRGRkZg5YwYeP3mM2bNn4+23W2Ly5EnCgeZxNIrixEsthCJFi0oub/r06aKjvmHDBvluCigtXLBQKFCsYufkSWokIxtUpyTt6peff0m1CZQtAEFs7A0GoXsS0NDNjlKtQ4cNtf7y2AAQuAAPHz4CH3zQXQqhRo8enXaAYIDo15N7zgWRgjE0wNm1ayc6d35PqGSubklX01uNIBgg9/vHFT+KKycd8xjp+fXX34TmunDhAqGDnT9/XmRwqXNv3pICCIycDBo0GKtW/wRGZqKiowUoHDx4QAow27Zui99+/01MdgYMHPBCuDolL4afVvwEVp2PG/c5njx5LF4BpOPxPeJ5W2sp6SAQ2NJF8OzZs0KlI9gwegPswvXr16y6siaZYjAAZcu+hn/+OY/omGiJ9FSuWFnEyDp07CDv0qjRozB92nTh7bM63nxnogEE+1c8LYJg/xi+ehEEnQGRTgYsuXcCTyMiTBQcXqYBcaTUGIwMMiP9hf7lxlx69mgnDK/dBp5W+WXqDLStvTgKIJDqxB1X6zZtMGfObKnaZUg2NjZOdjr58+XDvfv3JGT9xx9MBTSVMOu+fftEGZGRHO729v/5J6pVrYr79x/g9u1bkpPjjqlho0YSovb385MdY8kSJYXTfPrv05KO4OTNUDXV2Vq2fFsmYoZbWZgXcCdAvovKjhRYuXv3nlTGv/ZaOdFrL1WqJI6fOIEiPj64wd1Z/eQpSZZjbQtAIDf8yeOn+PvMaQExTJ2Qxlirdq00AwRGT8LDI1ChQnkRqaJwDN0yrYWpbIkg/HPuH/Gvz5DBCyEhIRKd8crgJaIyDIWTcphUswYQDHEGPLj/AOfOn8eWzZtFFZP3g/eAyqEUniEood0vQRpVRG2JINy4fkOiDlSwu3TpsuTTL1++hHbt24nj6cFDB1G/Xn2cOH4C9RvWF6U885YsQIiD6PCzT0Y31q9bj/bt24tID58/CoClGiAYAAJ1/4AAud/nz50XS3c+o0zf9O7TB3r9i7HFJFMMMbFiq05lUvLyx44dKykX5tgZKfO7fRv58ucTXQKyCixTQxpAsHW2TPo4DSDYP4avHEBQCPbctaSqETkoFbni35B+iQbLimInZ+ckq7ftojleviIqZlwU/i2NCzfTFVRnO3DgoM0FQKk9f44xUxwZvLySvbWpHZvwiHCRhaUOgjkXO7Xnx121P2sQXFwSNBVS20kKxx8/cRzVq1VP8ihad3tzJ5tMs9QPiNdBSEIoibtnyuvyupKjgcrYmV45AlY6+jVr2kxVFgNrQOrWrasadZDD9PzZc9Hyp/mQtUbpYtYXpLY4kCkfgne15qEbN1j0WCTV55HUo3D37h3xdLDmc5DWx5bS66VKlkrrxxN9jtoIdHNs2KCBas8QNzE5c+XSWAyq3CEVO0lNDULav5aAQlk4GVtIP4CQmnO2FyBw12LPQpaac7X1WMWYhYuPvVoCSX6nKR1guVO1dryt5yA6COHhIpRE7QJ7G2lULFLMQXMrlRvHmBEYRn6sNuVxtwE7mh/y9MkTqUvI7P0isBCNC5PehYxpcn1bMGd27tiJZs2bqfqssq6l7ut11WTmgXS/lOyek9MQsXYvCGZZs0BPGL2TOkpioszo4wOdXp3+7t8zshhMt9f+p9VgkAgQo4g2PIIpfh8fJ0YnWR+lVqNrJTcCmg6CWiOqUj/pBxCUE07fCEJqhskegJCI5piaL30FjrUlxZCWy6T3RCIlxbR0YvpMgF8AXEVq2X6wYe00HCK1/NikpKimDkIcsHXbVpHLVROnp8RiSMutYwSBSopK/VBa+rD8DKNYTNkxgqB3VmdBV5vmyBRgXkfQHMuWUWMIpQ8WCDdq3Ei1/pgCFCVFTQdBtTFVpaP0AQiqnKrDO3mZAAId1hgqpU57aho11aMjo5E3f/LCJeZ90g+B6nDeWa0L9mgAwUFmTRpAUB0gcAvNGo7/EkDg+0kdBNJg1WoaQFBnJF8pFoM6Q/Lv7UUNgNC6VWuhJ5Ju9eOPK6Q4cd/+fcL/pi7CzZu34OXpKVXhr5V7TSrY33vvPTFEIYthyOAhUtQ4depUqfLn34mqyeuOIZWUQkwAHj96gqlTv8ScOXNkhxUZFSm5WtIJWUzHOhEWZ40dPVaMmxgGrVChglDLypUvh2pVqyHWECvyw6LxboDY0dK5jUVfLJxTRJ+OHTsmBWpixmOlvcwAgaHS4Z+NwJo1qzF37lzQYY+V8Fu2bsVvv/6G9997TwpJqVdAyWcyPcg8sdx9W0YQ6Ng5/LPholjIQrlmTZpJ8R/vJSfXFStWSvEfmQykv9LIh/+RYeLh4SGjTL0D8WJQIggGCIOFUZUSJUpi9+5dyJs3HyZN/kLYF2RMDB8xAn+fPi21AHTia9O6jSwO8edrGUEwQGivpOLyGeP3MRTd86OeUsBKBk3mTJlFy4EFkMOHD8fIUaPw9ddzErEjLCMI1Cog5ZZfTJYJ3QjJNClTugwmfjFRmDULFy7E77//Lt/z2muv4fr1GzIeSlGhtQgCKZqbNm0SFtD4CePlXGlFTPYNzYZIGaYrIQs4W7ZsKe6CgwcPRrXqJmdTDSCoMgFrAEGVYUykjadOjyr3Yi2CkGAwYl0GzjaJVmO2OaEHGpIotiQqX0Qquksur2cXQLjqixw5cmL48M+E78/Fuv+A/rLIzpo1S2iOXAhYtU3PBk701apXx7VrvkJ1+/mXn8XzfcL4CVJ9zvAdKYkDBw0UnwMRrTl9CgUKFEDFChURGhaGEyeOS+GRdxZvodARnJw4eUKAwLlz5wRkkDZJ4Ri6vxFgMKedLVs2AQwU2GGouWKliiALgzazzAOSbkchGrIryAzg+ZYpW+aVBAisaP+0z6f4Y/Mfoj1x/cZ1tG3bVpw2x4wZA+rsEzhxDFhjsnz5csz5es4LT5wlQCBAI+Dg2DN0yntBlombuztGDB8OZydnGc81q9fg076figzu90u+l+OU98sSIPA8en/SG126djEKDp06JYWxvN90AX3w4KE8Y3zeCD5oBrRgwQJhNcQ3aykGA8RlkEqgZ8+cRf0GDVCzZg2pfaB2w4Z1G0Tsi2JPfC7/3PcnOnbqmCxAIJjo0aOHAGACTAKL3r17Sx/jPx+PzX9sxsnTp9C/Xz/RsKBM+cSJEwU8KEWJ1gBC7Zq1MWjwIBlTUiQJtkkhJbWRuh+8bwQdFINq1KgR3unwjlBU6Vwo3gsaQEjFbJn0oRpAUGUYX06A4O/vJ5MUJy064ClNytwMcYiKoSiSATphJBhtxyzLDuMMBsSZSmJ4LJuT1FKpk/dL6+1xcXV1CIvB96qvKCNu37ZNJm7ubnr16iUTEid+CiXNmzcPi79bLGmBfv374dDBQxIluHDxguyuuAB9MXESunfvhlmzvsKunTtFHW74iOFiCTt+/ATRP+ckyB0fd1yk+LEAr2+/vsidKzd+/uUXtG3bBtOmTcPMmTMlGkDu+kcffYwPuncXf3hOrtQQeKN5c+zfv08sqX9c/iMWL16Mbl27yeJy/sJ5ofdtWL9BVP9YKJiUI9vLHEEgvfDNFm9KBGfIkKGYPn0aoqNjMGzoUNEQIN00T97cQlesUbMGZs2cJSI/lnlxS4AgVtUhwejXtz8ePniACxcuYMbMmShatAhGjBgh/X7yyceoU7sO1qxdK0CRoIy0SqVZAwg9PuyB7t27i7b9ku+XYOKEiXjy9IksvvyP0QDu5hlRKvdaObEIX7hooTxH0qwABNIBee1fTp2CBfMXolatmsiTJ4+AxUEDB2Htz2ulwJWCURQo2vT7JrRs3VLAqtJeqEFg4WpEOFq1bIUBAwaIIFKr1rQGDsHcuV/L+PFaCEb/OvYX3n7zbcyaPQulSpWKfz+tAYR6deuJ0ieBLg3SqMhJAMCoCmmTjL7Qqpg/5zUzUvb3mb/lfZOmAYS0Tp2JPqcBBFWG8eUDCJzsV636SRYhhp8TuwnrEOFswFfXD+JhxPNkzUSIHZTP5op0wZRm3ZBBdBL+j0WKOsCROgiU5+32QTeZQKmUt2XLFtnFhISGIFvWbLJzpzIfw7cMB5P3fu7sOfj5+SM8IgwdO3SU1ETZMmVx6fIlUTukp/yWrVtQulRpSR9kzpIZPoV9JAJAcaTAoEBUqlhJAEOdunURGxsjdEb227xFc4ks8LOcTOX4wEBQLe/hw4cCOH5Z9wtKliiBNWvXyDkyisHd8rUb1+Ds5CKaAFQV5IJEmWRr7WUGCJRWJgWsaJGiMqbUqThy5IgI7NDCmNoRXIAImJnD5f3hPWFExbxZAgTWbCxbvgxvvfmW7LQZ/iaAI3WNu38CBkYXmL6geNTmLZslJG7eXkgxsDhs716EhoSKzLKROfA6pk2dhqbNmoDREPbBiBN1HHyK+GDXzl0ikJVkigEA0yEPHz0UbQ2CAOofrPppFYYMGyKS00x98TsZreACzvFgJMDcoe+FFAOvf9kySXHcuHVDIhOkI1KrgNoVjx49lCr4yIhIiVRw109J6HZt24nkOJs1gEAlUqZi3n77bYl4UQuEEuOd3+ssUt6MGPCaqRjKSARBOPUn4qOeGkBQZWXTAIIqw/jyAQTZZMTF4cqVy7KDyJo1QbqWS3uQU6xRSTHwHmCIhc7gBIPOyTgBSQ7BJLMsfzfGFXKEuePS8CXwjDDylsW3PC5O8p2cSBn6i/dJNxjjDbQ3Z3NzVc9CmP05CiAwXM8wrL1Objbb5dphAsRx4M5Zz5yzrVSvZL6PAIHgRTT/1eBRmfwluNCRyUDxG3s7piARnz3WEaSYIkthbCVNpVhqmwR+SCPjAit9q8TipQYEd9oUllKrkdp3/NhxVKpcWa0upZ9/zp83+U2o9AAACA0Ngbu7h6p2z1RdvHvnDvLmzauaZgNTcdKfGfXUnsGl/kXWbFlVu26+n0xtFi5UOJ4aa8/58bNnz51DxQoV7O0m/vOMttFTRTNrUm1I1enIsgaBDxN3OefOnUWhQoVl16s0oxdDLJpunyleDI2LV0BufQbEuTsjOjoKFCFyNugQiTjcCn2KkzfPy0ezh7lh2ztjMLTHxwgLCREk8eDhA0lhPHv6TIrkWIjFnS0XLe5aSUfiYsuculp8ZUcCBN+r11CkqI86N+Vl68UA8XSgcZBajZMtlRbJoBCLZjtX3QB/f7iR5phTJbtnc9dAAySszZoSIzZQByFQ5pgLWnyRogqDy1SB6CA0a6bWacpZ0cyJ6QdbdS5suRSmJZhyUZPmSGGp69euSXSFapRqNIXmKBsdFe49NxrcnKVWACqpa+GczvoMcXNUofHR3793Hxo0Uk8HgWlSRtQ0mqMKN0jNLiwBAqc2P38/Wajz5smTSPwjMUB4jJrZC8MrSg83N3dExcUixtUZIZHBiIqLwaPIUNyLeBIPEC4PX4IsBr2ADz74iishH17+nS8rXzD+jseICZSTE6KjYuDi6mw8Rq9PQMBSz2CcpZXfydSsMwrIKBX4zi7OiYbLUREEFvkVLVY05d2pmjfvX9KXI1MMIcEhJoBg38UyjeMuOggEG+q3l0YHAUBKXgxpGZ2XRQeBU4ZILRf1UW0Blv4IOFQSShK75zx5VAVwF/+5aEyLqYNdsXf3XjRqop4OAu2eGT2g5bMtjRuS+/fuS4TJsnE+CgsLtfixDv3698X27dtt6T7djnlJaY5JsBcSRRAeo12NRvCM0sHL2QUeeidcePYAu3xPGCuhpBkXcEYQzg1aBP2zYGza9DvKlCkrNr2KiQoXeFZoe3tnkR3eqZMnxYGNeXzS0JhvpM+Bs4sLsmfLBmq0c7dKpT2CCKJjSpPy27y9M4s8LyMffGEtqXn/aoBgZ9ogrU91XJzhRS38VJyLBhBeIh0EDSBoACGtE4XZ59QGCBRKypQ5k5ZiUOHeqNpFogiCSY6XEz7NdRiSNacFJoogBD4Q9oIcQB69iZ9v/NMUfzX9QYBwdcQPcA0JF6dC1h3s/3O/VG3nYe7OQgpWycNLJMDcxMU8rGvCH4nWMUt0bGWRcyRAILWLdCtyvplDpJYAAYzUWZgukv8m3ZDFX8wLkrLG60bqgdMAACAASURBVFy9ajVq1aolkq1E+RJliYmDk4uT/H3blm2SbmFlNgvbsmbNKkV1rFwnn5wFdKSKMTz55ltvSoqG3yPfHxsrtDreU4ZrlZ8rkReyUWhHTHdHjjePHzdmnJj/8BkgrdKgM0ZljPbeppoTBQYaDELD9PBUL1fOrll/oEUQ1E0xcFy1CIIWQbB3EdEAgr0jaPz8SxVB4BrGynlas3KhoIWsd5YsiUYi0DkGzbbNhF/gY5PIAT0bE3MdLIeOAOHCkO/gER6F+w/uS36NYTQWyrGx2pia61yYomNiEB0VJZXNPIZFZSxmZLEiqX6KiAw/x8/zs/w5oxE8TtIQcQap5KbRC6vvzZsjAcKZM2dElIYMAdowk/9Nbnn+/PmFD87/Ro4Yibv37uLWrVviwkjaIdUNGVWpWrUKNm/eIra4tGG+ExCAJk2bCLNg9eo14oTHnDx976lf8E77dzBm7FjkzJkD3bt1x4SJE8TGud+Aflj38zoU9jGGPYODg4TjT9naggUKyj0go+GPTX8Ih5xgZtkPy0SwiRXqBBF0MqxcpYrQx/z8bgv4YA4zKDAIrdu0ThSq1CIIWgThpUox0DtBxZTAS5FiuHDRWIPwL00xaBEEdQCH6r0krkEw4PDhI7h48YIsIB06dICTk1kOX2fAc6cYvGEqUrS1sjx7mAuujliOLNBj2NDPULZsGVnAWfnNxY+ULNK2SHXKkCEjcmTPjkKFC8lOmZQwctDr1K0ju1fyy0lLI7WPO1pyrUmhIkQpWbIE8uXNh0OHD6FGjRpCcRo4eKAABWUH72iAsGfPHqGIfv755wKEihQpghHDRwjXfcWKH1G7dm0EBATIOVGE6MmTp2AxGsHR++93weFDhzB+/HhZ7LlIr1qzSkABoy18wffv2y+KjFRDZIpl0aJvpECUior58uUTKlrjJo0xeuRoTPlyCsaOGyuCSPxeOu6RskjRpLfefktUHWn1TC46BXsaNmiITp06SbEZQQP/vHrlKoYMHSKAp1PHTijkUwhVLUyJXhqA4GqqQVBpkjR/GbUahD9Rv0F9VecnR3gxSA2CyVxJreLnlwEgXLpwCaXLlNYAglaDkLp31BwgcBGNiYmWMDUFkrgzZbFifLMDIFwZsRzesRDpU4a9qTTH3TNplHly50ZMbCxCQ0Lw9NlTWQgZsr546SIyZsgouumsaGekgBXdmTJllr8XLlxIFANJMeLunYpy3L2zf4bGGdon0GnxVgsRVmFzFECgUBIXeXd3d+G8V6lSBTly5sTDhw/kei5fuiLAi8VHrNYl6MmTL49cJ0PpXGT5At+9c1ciCDxvNgKl+vXrC1igYiIBklCWChcW4R5GfEiDY10G+2ChDz/DBYuA4czZM1Kfcev2LdFXICWL51isaDHxcmBUgVEOCjgRpF29elXGjpEapjsIZljj0bBhQ2EqsKqcwMe8aQBBiyC8dBEERtdspfimMKVqACF1a461o7UIgv1j6JAekjRrknoEIytADYCgRBCGDBoiizp31pS3pU46c+NUPmvVqhVu3LiJ58+fSVEic+XFixcXnXYK/NSt+zr++usoQkJCUbx4MVy7dl3C4fRj5wLG/H+O7DkkPM/ddf4C+UEb0a7dujocIFy7msBieKF2wuzOMf0RX1dhXiOh/F1KOgyYPWe2LNqn/j4l6Zf4ZlmHwV9Y68fiaZFzUuKLVnbQX8/5WqRxhYes/N6yhoO1p1aYYRpA0ACCBhD+3SwGLYKgsRjSBCBS5eZoRwRBAIJBj+++/U5y8qFhoXj27Dl69fpEtbCXLQPgqAiCAITiGs3Rlntg6zGqFylqKQYZ+v98kaKWYrD1FUzyOK1I0e4hlA5eqiLFFC/ZDoBwZfgyZI6DKO4xKsEKekV5j7EKphy4s1aUCLnb5d8ZIWChXXRMNFxdXCWqwB02m2gqOOmNzoWursIaMNZL6kR8icEPphaYclCaowACUwxUKotDXDxjgIyDr2Z/JaF+sgiUJyImKkYKFVevXi01HmPHjpGIh1Ha2gBaOZPmybSKh4enUBAZ3leug8WZTCtQfYzFiD0/7ik1BIy2UAKX4yEaEjHRUtzJeg8WcCpMBo4TWRN0wVOjvcwRhC+//FJcG+mTQUdApn/GjR8nNSTly1WQVA/VJlnPQkdARrtYvOuZwTPR0FnWIISFhqNy5UoiN8zoF/0dWrRoLs8zHRKZyqlRvYb4BzDSRdOt75csEVdJeS+suTkCYix12+82Puj2gfgtsDi35dstMW36NKkz4TP454E/herL+/LPP/9g4ICBKF22dPz5WgIEGjJREpnnwhQdfTzoAHrj5k1Jea1evQqxsXHiA8Jo3KiRozHu87HyvCnNmhdDxYq8/h/kfadLaJ/efVC7Tm2psWEx7IoVK2Qc6GzKot3Ro0aLLLUSYbNWgzDpi8m4fOmSeJeUfa0sjhw9IpRmelJ4enrhzTdb4K+//pI0X506dUWN8bVy5fDWW28aT1WrQVDjlVddB0FLMahyW9TvJL0iCGcHfgvDk2fYuWMXPD09ERMdLcJCrHegYuPjx4+keO7u3XvInDmTTNRMD9DYqGDBgsIIqFqlKi5fuQIPD3eZdM6ePYfs2bPJcZysOMn4+BSBi7Mz/Pz9UbxYMVSoWEEm4PQACCwCvHfvvghMhYSG4uyZM1JMSEDDxZzFlL1698LDBw9Fee+qr69oybdr1xa///Y7rt+4gXLlXhOwQ22CgAB/DBg4UK7x142/YefOHWJvS+BE3wSyH6KiozFq9EhMmTRFwBJrNGif+/x5oDhIsq9HDx8KwODCExoaJgyIjRs3YMqXXyammKbx8XqpAELuxEJJLJBt37a90G9pikUvAxZlkr1Ba2HWYnAxI9WTxbGs32A6i0We5s2amyOZJ8WKFcU333wjdRvdunUTi2/6YtDNkDbKV32vircA/RLon7H4+8UCDpMCCFQbfa/ze2KXzMJVgsq3W74tnh/0NmCajoCEAIFpO5oVsW6E7otK27Z1u4AVZftCIFm3Tl0cPXpU6lvo7MhzpicCmS4sJua7liWLtzxT9PcYPGSwFBAnCRAALFq4SHwrxJL5o4+FfcN6l379+sk1sx5p6dKlqFC+gtS60POB9tisgWGzBhB4bTOmz8T48Z8LqKMRGb0jCKoXLVok48h7x+8mWOY4sCB4+PARRvl2BSD8x1gMWopBSzGkaXpPL4DAFINHWCRGjxmDwoV9cM3XVxwCuUPjLosTG8WSKleuLEImdDYkCKBpDndFNM2hOBKP4WcYiaAIEieJ5s1pSnQS8+bNja81kECCIcHTweEAwdcXO7btkB0QtdRZfMidHBeWAgULSB3FnNlzRM2MEtM02uF10BGPzAP+vX///vj440/Q5f338dOqn2RnxJqAtu3aou+nfWVSbd/+HTRu3AhjRo/Bt99+i33790kk4PvF3wsVURgO5coLY+Hb776ROga6Mh44cEBACI2iVq1aLeBpytQpaXpmLD/0MgMERgRat2wtiyyBKxdDFoVykcmTJ688p4zA0GqbixujWQSs5gsux8MSIHBMaHzEe33y5Cncv3dPds8sUqWxFpktfP5/++13ARE01CJ4pPW3ov5pzayJ0aPO73ZGv779kNnbGwcPHpD36fvvF8sinCtnTixYuADffvetOE8SGHbu3FmAcgJA2CYFqUqtCQFngwYNsXHDBonSzZs/HwUK5Eee3HkENIweM1qiEazx4RixiJa03J49e8T3Ya0GgYZPpUqVhr+fH7KRmVSooFB9CWbkGvr3k00B/813nc8zLdIVPX5rAIHXz2jB5+M/l2eezqM0cNq9Z7c8/7ly5pKiZTJzjh0/Js887wFZUPERhP+gkqIGEDSAkKbJPr0AwvnBi6F/FojHj58gW7bssjt2d3MX9E/mAkWGxMTJECcLI3dK3GHRZS6DVwYJmfNnVNsiOGCqgf8uULCgTOKsymddg2gpREeLkBBz2NT25gThcIBw1Vcc71hQGB4ZLnbK/gH+uHnjpggg0YWPLAtGRrj4cKJVTF4IikjpVNgBpUqXkn/z+snX5oS3ZfNWRESES4SEE+2N6zfEz4LjV7duXfk3NeG9MmSQeZ8pi0aNG0mxJ1McTGlQDprfQTe9I0cOCwVSjfYyA4Tbt2+DCzEXfUqMkx3y89qfBQBQh4ORKUZmyBKhy+X1G9dRrly5F4bNEiDwGeXYM7XDglxGCrJmySoLNp9LAg0+l2Tj8Pei51+0iDzrysJtDSAwlcXUE8+TNFUCvfXr16Ndu3bw9w+QhZ3MFkY62D+jTHQNVZoiysXFtGatmvJjalvwunh+fKf4bP608icBnozoeXl5GpVOM3sL2GXtkKeXh4AJJR1gLcVA50s2Upl5HnzuCYqYPuRzSHDGyAEptRwXps0IlpXrtwYQbly7geeBz1G8RHFwLBghY9SuTt3asrFgtILXz+/hO0CKcCLnzf+o1LIGEDSAkKa5Pn0Agt6kg+CCzZt+xc0bfvD2zoTw6FhkzZYR16/dhLd3Vly+dA3Fi5F+5AIvD3fRQ+DERYU+TojMt5LDzJ1BieIlhEr47Nkzsepl6PGW3y0BCgzhE1hwd0Ixog6dOsTrpDuqBoH2vbTNtXQKJEVw29ZtsovjQv9vaBSjomENgUiKzoY2nLAABJo1uatn1sQ+FTdHc8MwG07nhUNY10FaqaurmwBHR7Tz589J5EbNRlDi7OQkVFQ124L5C8C6A1p9CzBXoZ08dRJVq1aLd7lUoUsEBQcJKKMJnGrNYEDAnTvIkye3at4JzJ9TkE0tL4bHjx4L8KexlDrNYEq/+tgqXZP81+qM5mSsoVGrEfQxHcUNoC1N82KwZZRUOCZ9AIIbzvRfAMOza/jr6HLcvv4EsXFxiI50QvXqeXHhwl2Q9u/pmVF2GRkyVcXT50DBgj6iAshdBScLaiJwIeaLmCVrFvDF5ITPIic+XMy9czfif9tf8u1hYeH4tG+fRKPkKIDAYivuNtVYcFW4rbZ1kQq/heQ6lMU8IlJVN0d+Hxcv1gioYbAU4BcAVzdXVfqyNha0UK5eo7pt427jUUxVOeudkTlLZhs/kfxhrIVhSo7W16wt2LJ1i+zmGRWwt0kEoaEDhJIyZIhPudh7jvw8n1VG9ZiW0Tupo5hFunURk2qpGucoZk15VTRrMkAUXlVVUtyzVyKUajUpUsyUSQMIag2oWv2kD0BwlgiCN57gwpmVMERFwcvLA9Dxzyx48IAAITNiYqMkzOjp1RR3HsfB08MN27fvkPoEQl8+QJRgVnj/rLBm6oEGT4n1GoxhUxaXde/ePRGNUgMIaj05Cf04HCCoYNEsAMHVFTktihTVGg2HKCmqDBD+/PNPtGrZStIpfIeYeuDCQUEye5sAhPr1VaUsO0JJkSBJERpTSyhJAIKKRY+c1ywl4u26PxpAEGab5uaYhqcofQCC0awpC3Q4euSAqAvqdTrkzJVL8p4MT7q7U73PU/LrBoMLTpw4JVdTvXp1KQ5j5IApBsXMKA2XKh/5twAEhaqp5HANsQYRIUr3CEQc4o2Y0jqmGkBwkFCSygCB95fsCVIA9+zeg7379wpLI5EQVxofgpcFIBAY3bhxQ6KSrA9Ro2kAwf5R1CII9o+hQ3pIP4CwTADC/7s5CiCwYIoV2qRwsfKbBWJR0VFSiMkCLy78lH728PKQQjAaYrHI7N13O0mxFgvNmCZhlTtBAwvAWGRFyhv/PmHCRPFyIJVr9uw5IjNNJsSWLVvRpHFjtGrdCrVr1ZbdIH0cGPKPiIwUDQU99HB1d5WQPQvQWMTJ8+F5kT5KdF2/fj0JwbPQUjQYQsOE5hYbHQt3z+RrCzSA8PIABC6Qn302HIcOHsTRY0dVex01gKCekqIWQUj5sdRqEFIeI1WO0ABCwjDKIk7xJb314iB/fz8Ry7HWWDn99+m/hWbIXB/rJUg1pA4Cq9RPn/5bJuUVP63A7l27RacgR47sImTDCvYG9RuI2Q355/v3/4lBgwZKf90/6C70rTVr1shCXqpUKeGpv/3WW2LrTFocAUevXr0w6YtJeLtlS/Tu0wtfTJwk/VPWmrz7Dz74ABERkQgMfC5V34zYkFrJHaSIUen0ItLE3dVbb70tmgu5cuWW3Gqbdm2SfdY0gPASAQRGETZtRsNGDUUfQa2mAQQNINjzLGkRBHtGz4Gf1QCCugDh8qXLUijp63sNTZs1FdW3nj16Ys3aNVixYiVq1aqJhg0b4ddfNyZycyQXnXbLNGUaP2G86BewH+Z1Wc2/fPlyodcdOXxEQAg1IJo1ayYUSorBUEuCNDTSIsXNcdRoDBs2TH6+ePFi6btateqiLEd3RypM8vx++OEHyUvTOGvTpk3o3au3ABrfa76oU7sOJk+ZLPz05II/GkB4uQACWTXmOghqTC8aQNAAgj3PkQYQ7Bk9B35WAwgqAYSrvqKYSDGnnbt2onLlKqJgSN0D6h9wF08Rnly5cwmPPEMGLxGioV01RZWo/1CyRElRlmTYn3nhvHnyilwyF3ICB9I2Kayk5FCrVqsq9CVaMlPVTnQfKL5UsACOHDmKypUq4dLFS5J2YOSB1tK5c+VCRGSEpDEK5i8ov2PEhJ+j1fZV3yuoUrmKsAeERRAakiAyk8RzqAEEDSBoAEEDCPYsUxpAsGf0HPjZ1AKEQKcYNNs+E37PH5qdlXltgWI3mPDrHGFuuCJFimrxetM+II6rQbgminhSdGjprqicbnIlGOafiQMOHjooXGOqK7I2IFGzpCeaOUHKcYoDiKUro7kTZEoOkOZ9plA6ogGElwsgUEKa6qNqlgS9VADh+g0U9imsmt2zVqSY9vlY+aQGEOwfQ4f0kBqAwHUi0DkaTQUgPICnqyei42Lh4eKC0KgIuOqcAL0e4dERxnM1LUgECGQxeL/KAMHXVwSbqG7IQkNeOwtpqCCXJM/cYhGm2BMLGZlaMB8/c/tl9seohCLHmyJwMAcnBohWRO48JmVJS+toa6CA9tMwIPB5ILyzeFt9Bl9ZgJCUToQVy+1ENEdrltyWI5ecBoXpd2rrICinkGo3Rxuu5wWAkNJnkgLRCsBNwoshfhgtQPELFuvJANzr124IG0pVHQSN5mjX+qQBBLuGz3EfTgtAaLbNGEEoXaAIHgY+QxbPTICLM9ygR3BYCPyfPoDBEBd/0jnCjRGE/wdAeP4sEJkyZ3S4kqIi+7p582Z07dpVFvA+vfqg2RvNwJ8x10/WAFUhaSxDhgA1HBjKd9I7iQETUxBUz2MhJGsEyCBwdnWOl5auU6sOJk2eJGZBTGXQFdLNw01knWlww3SFp4enUSQqNEy+jz9nmoIqh2RFzP5qDiZOnIA9e/ZIhGLAgAHCoqBGAI/judDtkQWbTJnwHDn50oFw5IiR0FkRl3lZAQINmlgxPnjQYPT86CNMmTJZUjMxMdHidcFUzpixY6RW5NSpU2KERYdO/m7ChAlo3LRx/DNuDhBu3riFIYMHo1OnTpJuYkHq5MmTpC6Evga8vz/99JM44vXo2VNMjCZNmiR1J/v/3I9Tp04jR87s4umhCCUROH7xxRdyX3g+8+fNFyOvn1auFFnhWbNm4cTxE5gxcyY6dHgHBw8cRGhYGD4bNgxTp07Fom8XxXscmAOEDes3YtWqn8S/YeuWrfIcXrl8RTRENmzcgEqVK0ldShbvLKhdpw5mz56NGTOm4+uvv5YCV5pLMUVlDhA4pqNGjZJaFjqI3rh5A1WrVhWDqWrVqmHqtKniPrp27c8YNWok6KjJ76UPCa+HfecrkO8Fs6aFC3gNGaXuhkyMBg3qg3LOBM30ifD385fxpWEThavCIyIwYEB/MWqiS2bBQgXlfmkAwf71ZK8mlGT/IL5yds8AopzjsO7hVTyLCoHBYFpIYIiPauuhUwIHpp8C2WOc8XGlRnA3GH9H9bb0bIq2ACehBw8eStW+tWYvi4HqdHT5YyEhawN27NiBevXqCe2RDorKYnv/3n0M+2wYDAbIwksGBHc0rVq1FHMZmvDExsaIHTTd7kifpCb+jz8uxycffyI+AZwQOSm/Xq8eypQuLbULlM6lDS5dMuma+fFHH4nbXfESJfDo0UNxC2S6gkWLXKDIhad2PcEKfQMovcw6h7Jl6Th4WRYM6lA0aNhAHPyGfzYc2XNmf2HoXlaAsOyHZbhy5SqmTZ2KefPnic8F/S5YLzJ27FhZZFmDQatianGUKFESZLJ06dJFLIX79utrFSDwIV+3bp3Uf1Bem0WmK1auEMdIeoPQuGvokKHo8n4XAR2Lvlkkgl5cwJZ8v1QAA18RywgCF16CCHooEHRyIeTYHzlyRM6X7BcK9nR4p4OYGdERNFu2rMKm+Wz4Z6IjwmYZQZg3d74stmTQsM82bdpIESO/g2Bz7py5AmRJka37el28++67Anx27tgpDpVkQySKIBgg6qZ8tmfMmCH2zsOHD5fiWtbjsF6G4HTNmrUYN26sjCVZP9u2b0eF8uXFxpmul5ZCSfPnL0DWLFkE0NaoQavsc2LjzPtDe27aR/N9W7r0B4QEBwvgJUj77rvvsGDBAlFf1QCCOjOvBhDUGUclG6xObw7oJVURBEmvx1HNR5Z4nUFZ6OVfFmdHKGCMM3JhBj8nP7F2rAMuzNQlJ1A2BSQY6XzWmz0AgVTFlStWovkbzfH7pt9l4j9+/AS6d+8mFEXuoHr06CG7nF27d2Po0CEICLiDXbt2YuXKlWjSpInoIFAnf9ny5WLDTBvsCRPGo3bt2gI2CBgGDhooRYQHDh7A/n37pbBxxMgRwlagsx2PYwRj7dq1GDd2HN57/z3ZzU2ZPAWRUZHiTUGdBC4qu3buQsFChdC6dSs5nufISZyOesxTjxkzRhwkK1asiI4dO8qiRiVCSzGnlxIgGCDFooMGDcKnffpgy5Yt+GzEZzh08DAOHz4kPydwu3PnLtauWYMlS5Zg/Yb1oj1BXw3KFZOCqjTzCILfbT+JCHDhYhRm0x9/YOPGjfIsMIrDHfD06dPxxhtvCIDg+0GARjorwevr9V+Xbs0BAoW0uMsnE6VSxYrYs3eP0GO7duuKxd8uloWaUQ5Kjw8dNhS9PuklEaTGTZtg0cKFGDV6tNiGWwIELvIEEAQtw4YOk0gTwRLtxMma4b2m30nHTp3w3nud4VPYB5MmT8aCBfPlWRswcICon1KlUVFSpCcJr42GY7O/mo1SZUrjnXfaY/SoMQJ+SCVm44L+9ttvCxDp0rULZkybIS6uVHqku2YigGAAfv3tVzx6+BjOzk5iULZu3Xq4ubqKZToNmX779TexeCZIphEaz4cA4fr1G2J9PXbcGA0gqLQ30wCCOmvWKwUQjAs+M9KmOjiuYjY0OcpgkAqEuHQGCDacXvwh9gAEphjoI0HpWrpKlipZShYD6vOvXfMzqlevJoqRZcuUFcYA7Xe5K/P395eQLidFiisRLDDkzUmOUrDcvVM3oWatWrjjHyDgrF691+Ptojmhly9fHpevXBbLYe4AqRJHxTymOQhU6BZJr4grV6/C3c0NLVu2lHOj7TDDwDTAKlK0KF4rWxa3/W5Lf9wBHj1yVM6LUQUqWY4YMRJu7hYFkyZ9e4d6MThAapkL9x+bN4s9Mu8HFzgaggWHBEt6hkySGdNn4Pfff5fFijoWT58+EWrpzz//LPLfZKRYAwh8FnjPKJdLhgojAxxTRhUI9hhpatCogdgUN2rUGOvW/SL3JDAwCHnz5onXozcHCEwjUfOCBj5vvNFMFjyKY9FinFbG3K0T0G3eslmslPfv3y9vaa5cOeVaWJRIt0hLgEDgQnMzfj8jBLzXBCwEGjRKU/xP6DNCI519e/cJGGEEi4ya1+sZwYx5BIGsGqo1lihZQlI4ZNe89977+Pvv07JoEzg1btRY+uf3Eqzy53xGaSJFSi6LfS0Bwob1G8SErUmTpjhw4E+5JoIQRmJavNlCImOMbLDvs+fOSqShWdNmAn67de0m6Tg2LcWQmlnR+rEaQLB/DGXjmlCqp06HaveSmgiC2t/9b+vPHoBw6uQpqSGgfW/27DnSfGmRERFiO5w9e3aHOQ+m9uQYIQgODkFGk6tg4giCESQyjO7ioqLrHoDo6BiEh4dJUaa9jQ55DJcrYXZ7+zP/PONp1JFgBEDNFhIcIhEFVzfjwqZK0wHnzp4VwKKW+yCfD7qWkkorEuI629OISoTP2rURxHp4eooaqFqNtRyPnzwWC2q13BIfPLgvfjCMTqrRWIdEYM/NgHF8kop52v5ttNXOny8/dEmIwNneE/d6cbIRYipSrcbUHut7NDdHtUZUpX40gJAwkPYABIajaTWteCuodHv+fd1YmasYU+JOmQWYajbuPLlIquHmeMf/jkRUzHf9qp2rwWh/y3oNaSqtZ08ePxG/AFksVGyq0xwNSJRiUOtUuVBm8FLXzZFrLd0cCxUupBrNkSkMH9ImVVh8OXbi5pg7j3izqNUuXriEMmVLq9WdRJKoxqlWExZD5kzxhbQp9atJLac0Qir9PvUAIaEg0WxpteFslM+pNHva8I2pPUQDCKkdMePx3OX82wECJyAyQxwCEACpmheAoOLjzRQDC1vVBgj/eSVFlXUQrl+7LgqmqgIEUqVVfJaonso6DbXavr370bBRA7W6gwYQVBtKdTtKHUDgIq/QF1nsZ67Ek9x5GcQxUC+cesJiFZ98FYfDLoBw1VfQL30RmNd/+OgRcuZMSDUw9bB61Wp8+umn8RoGLOBi7r9Rw4YvhNaoiUDjJHPbV1LP6tZ9XTwWuCiP/3y85MSrVK0ihWIM8zKPrvZOPqUhdjhAUKMGwQaAQO+LXLlygSyTwKBAFC1aDH5+t1G9WnWRs7bG4FDGRgBCDVMEwWLASLVl/p0MAKahoqNipAiVkRHWFnA3a60lBxDuBNwRtgVrBUhzvH3LDyVKFJdzZ80DGF++CgAAIABJREFUCwGVqn3LvpMCCEwTnTxxUnL3pCMeO35MQA9rCugvwh199hzZBbRYtuSEklgsSRZM4UKFcfu2nzAr+K4x2pY7V275ewZT+sq83+TsnkkV/uvYX6hVsxaY3qtYqSJu374t7wt/R1Bl1a2Rbo4aQEjplU7x9xpASHGIbDrgpaxBYN6Xiw0nBXf3hLCxXmdAVFQkwqIiYaxDVlryi76TwQA3vQ5xggvSl8WQ6Cz1enFGTCoPZw9AuOZ7DYMHDxZKFxf+75d8L/QvFl2xQp25ZBauLf9xuVSns+hv1KjRGD/+c9SuXQcHDx5AgQK0uo4TWiMn4X379qNnjx5SONeocSMMGzJMKGY3b92SSZaUSlLaWBVPmhxNlkgnCws1AouaNWvh2LG/pFCMizjdJVlUdvjgYZQsWRJ3792Fl5eX7Cwo5dyyVUurk39KT/qrABDOnzsvTBAu2HPnz8XwYcPRtl07jBgxHBPGTxDxqkqVKiWJbZMECAbg99834dy5syKfzXoKMlZ27dqN06dOIX+B/HLPrKWmko0gGCAsCz5TNWrWFHOvuXPnCcNi/vx5KFu2bCJwaX4Pk40gGCCaHTT5Ijhg1IUFaSxM/OfCP/joo4+snmtyAIGFnvny5pMd9oEDBwREb9++XVRCWZTLQknWh1i25ABC927dhdrJIt0VP67Atu3bUKVKFTRo0ACPHz9Bj54fWn+WNYCQ0uts0+81gGDTMKV40EsHEFjBvGXLZll0uDvR6xN2C7yYcKc4jD6/BQ/CA018BiUpbYDOEAdDokId4++yR7hg6TuD4BWnSyg4SknqN8WhTcMBBgi10CE6CFd9ZfdGUZitW7ehZ88eIpI0a+YsUVhkJTnD24MGDhJFQgIEUrAaN24s1dhfz/laJk4u4JyYWYWeN28+cV08fPgwvv3mW4wYMQLPnj9D8WLFkTVbNgwbOhQjRo7Ee507S4iTmgeMKHBnyRzdtGnTpLKd30MaH8+B1EkKJVEHgdbR/fr2w9x5c1GuXHmh3hUtZqx0T017FQDCg/sPMGTIELkHP/ywTMSAuHDPmTMH2bJlg5ubO/p82jvJYUkugrDix5X4es4ccdRk/9zpvvf++6Jr0bp1a1k4yZSwbCmlGNauWStURNpz8/mhEBPPmT9jVKJDxw5Wzzc5gMBizpEjRwqjYPq06QJWmRs+e+asAA4yDLKZ6JLmnScHEFatXCXAinnrmNgYAUqNGjUSVU8XZxeJqH3Y48NUAQTSewmGSMF99vQZxn3+OVauWIHde3YLMOjxYQ8ULlL4xev/LwOEMmVUC95qACE1M2TSx750AIHUO05c9es3EPoXKXNK48UE6WPQZMcM+AU+gh5OgEGHOH2M8RCDkciYUHVrTEdkD3PDmX4LEfWAOVW9vMCsUCY1jtXEDN2qlb9L9rbFAQF3HAcQWCW88qeVQgH7+KOP0alzJ6HKMdzL0HVUVLRYMbdr1w6dOnaKF3YhBYsce+oYcGfF3d+xY8cRHR2FevXqY9q0qeLmOOurr4SmyImR96ZmjZoigEOxIwILWjxXq1ZVdoDc7TJCMXXql3j//fdF34AAIX/+AmjRornw+EmxZFU/aWbk/VPAxmpYNoV34VUACNFR0bIYUluAoXCqUtauU1tohMVLFJf00MRJE1MPEAzA3LlzBWQwzcTQ98VLl1C/Xj1ZKPm+kWb4QY8PJe1g3lICCGPHjMXo0aMF6FELoGCBgrh1+5Y8b1zQ+/ZPEHIy7zc5gDBqxCgRgDp08JBQXuvWqSvnSFBAJUQqb+bJm+eFcUgKIFBQdfOWPyTsz+evSJGiskkg3ZPRNapM0oKckTfLzGNyEYT+/frL3MR36atZXwlALlG8hGiJTJs+DT179hThrxeaAhCKqFdU+K+vQTBAIsKcJ9TK7mpFiv9RgBAdHY3169cJMucixAXFKkB4/hBvFK6IcjmLIMbVCcGxYVh9eg/Co6JMhzNEYExEZA9zx5l+C+B74rQxfx5nkJ0UdykUVGH4NqldvTq3wdSLAwECUwykub3yLAYrNyQeIHiozGIID0NIkInFYGfZCougmF6i0JNV1lha+zcF0CSCUNN6DUJan2EBCHonsfFWrekhCplU9lRrseC5UbSLmh2pbtZYfKYsJAECU2DW0g+p/h6zD0gNQmEVzZp8r0ndkVqbnLt374qAVqKJ154LBuIdX+OffTszvUxtMVVmtaXhXaKJHmW0NZqjnTda7Y9bK1IkSKDUr3n9Ab83UQTh+UMUd8mO13OUQoinHs4eLjhw5QxYnRCpj0FQRBigM0YQxKxp+DJ4k9crpY0Jf8ZfTzx9zqjUaHyQhVCtXnMgQGCVMIux/otNlBQjI8X3Qc0WHh4hOghZs1IB0D4uOCMmBAhZstIIy76+rF0j60zKlS9n4q2rMwosCnRyco7Xn1CjV5FmPnxECiYVzQI1+mVxY9XqVdMgo27tBTfIOFJ4jH4Pai28vE7KCty/f08WYKXf5LQYrI2NogOifI6FlwULFlDtPOktkSNHzkR+NvbcI6aN6SvC1KRR5s7+RnlseoJYa6kdT/ZBtU56lLDQ25am0RxtGSUVjrEGEBgC5OSRoJlo/CJLgFCnREWUyJAbdctWwIHTJ0X21NmgwzNDONaePQCDTokguMJ3xDJkNugTwqjynJq2D6xbeMHdLjm7uzReuAMBAtXzqNf/n44gqKmDYADCw8KlQDNHzpx240R/RhBcXSTVY3dnlo+fARI+pz+Amn3HRxDU1EHQ0YthO5q3aJ7Gl8jKx0QH4QDqN6inHvbS4QUvBrVOWFIC4uZoEhpI7ZppQd66RiVStWmOVtI49lw/fUFUSzEYgL1790rhtFqNEvRMv9GrxJamAQRbRkmFYywBQkx0NOIMBsTGxIj0qvm7YwQIsWiyY7rUICizoUu0AdGupnILWdeVmgRjgWOusEjMrlQKWWPicO0KVQI5+Ucjg5c3nj5/BA/3vAgK1iMyKhheni5Ske+RkejURdUJl+URjqxBYIohftJR4d68LF04qgYhPDQcwaHBolJnb3O0DoJ4MTgCIDhAByHerElB/fYOLoAD+w+gHgGCik2EkjJkUD39eM3XtKArAMHOc2Z6kTLWakU6aLwmlvEqNtFBULFIkU6kAhBUivDy/WQ9lAYQVLzpanSVCCAYDLhy9YqowrEmgHnKzGb5T6YGgp1i0Hi7GUBgGuEFBK78wPj05A4Pxd6u9ZEp5ilcnd0QFhoLZ2c3OLuEwdPTAyEhkQgPp+WwC+LiYuGduQoyZX0b0L1IfbLrmh0MEEi54o63TOkyQiE0zyM+fPgQG9dvxMeffGxzIeCTR08QcCdAfBuSbAZg5syZUlhGQBcWFo45s2eLJTSL7NhoysR/s1rcEe1VAAhULTzw5wHh45cvVx4nTp6Qgjc6cXIipAGRuSaF5TiamzVZ/o4aCnSGrFixkughsDCXKZn8+fML9ZQSxdZackWKjK6Q2le6VGn4+fuLeyHZC/wMd4pMdyWlQGnp5qh8N4sb9+7dBxdnZ7l21ghxoaKsLrU2Hj16jLx58lh9jpIDCDROohU1zcBYCJovXz6xFGexMv0cGLK3JgZlDSDwZ38d/UvYPywoJSNEiYb8uuFXeebJ4qHjJRUJSSO11G247nsdPkXVEzbSAIL9s4omlGT/GDqkB3OAwNT/mb/PiKkQCxRZVc8cqNKsAoR44aSkTy9rmAeujliKbIr7YzLcjnhooRIyTXRWDgQInEwHDxwsNrt0TqSDo1dGLyneOnHiJLJmzSIMhXXr1wkljfl6To5enl5SIU7XxObNW+CXX34WmdXIqCip9F60aCE6dOgg6Z7Tp05L8SitpL28MohfQ+06tVC7Zm3MnTcPJ04ch7ubO+YvmC8V3m3btpV7yNwj2RUU6alQvoIwHrgQnD93DnGGOKOD4OuvC5uB58QJnKY9pLlevnwF773fOdln71UACAS51Oj/ZtE3IjpFW2xeP62CaSVMF8xKlZPWQUgOIJAJQdEivj+3/fwkFL/p9004ffq0VN73H9jf6u4zOYDAHeHu3XvQt++n0u+7nd8V105aUc+aNUvuc978ZoVuZncwKYBAaevWrVoLJZZslqpVqopB1JIlS/Huu0ZXxB5kW1jxRkgOINA4rHSZ0iKbTeYCawvWr1+Pfv36CeOHZkocb8tmDSCQLeHre00MqxYv/h4DBvYXwOV/21/SPG3btRV9BV7Hvfv38YHiuGk2n/znAIIBAvL+7REETWrZIUu8fZ0mAggma2ZxkXN2RqbMmRNNXGkFCGQxXB3xA7LE20ObztmqECPNXoxFipKtUMCE+Z/8uLUShXibSTObLHOg4UCAwBoE0tguX7os9r6kWb3d8i3RQWBtAnc9ufPkwaDBA1GyeEmJJDAkTTEkskZoX/tB9w9w8NBBEVr64MMPxIGOi/bUaVOF7eHm6gaGHydNmYQ9u/fI7yjuU6tWbdSqVVNAAemjdGEkxWv6jOky0IxokHZZtVo1HD1yRKiRdGbk4kLK25QpU9Crd298+mkfcdqjRgNdIRcuXCiFSD8s++HVBwgmR0KqCNJJ8/33u4iKIoEfAVNcnAFDhg5OchySAwjTpk6T6A45/1T8471jxf/SJUvR4s03xeSKC5tlSw4gkPtPgECKIHfTXGSps0AdhAoVKsrO//0u71k936QAAkWiaL1M+jHtxFkwRpdFngcXGIaAaVlONUXLlhxAuHnzJq5dvSZOk3RaVMzIWK3v7OQMdw93fPLJJy/SHK2kGIKDguWZZ5TnxxUrxJr7qu9VoWLS7jlzpswICQ2RZ5jmSaPHjhYxJfP2nwMIAF6GFIMGEOxbyx3y6dRILacVIJDFcLz/V4i5Ewi6dvE/LmacfLkLZgsKCpaJkuFGTlDc2XInx8YJhBXtoSEhshPjTidTxkyy62ColZMhF06KB7FM+f6D+/HWtSxGig+1OhggUDaWegacrLt27SqLzFdfzRLJ5KLFigm1s1fvT1C7Vm2RXK5QoQJ27NiBmzdvoWOHDsidJzcOHz6ChQsXoGPHjmjXrr38nZNo0WJFJUTL6uE+n/bBoQOHMGnyJFHka9OmNerXqy+2v5xlv/vuW9lB1qtfD5WrVEb7du3FnpjyvJzcP/74YxFR4p9bt27FvHnz0KZ1G6kijouNk+hHx3c7ii0xlfP48+TaKxFBADBh/ET07t1LrIppp7z4+8XYu2cfihUtitVrVmPCxAnWgSkgVts1atZ4cZgMEJVKfp6CVWwbN2xE/Qb15bmlrTarzBkBSA1AYDSJoe3ngc9Fl4D1L9RauHXztqQvLl68gN59rAs7JWXWxHeJfHmKdFG4iBGOHNlziF4G0yFUPRw2bJg8p6kBCAwfE3gw7fHo4SM533r16uHCPxdw89ZNKYgeNXqUTQCBls8UJKMI2YoVK0DwwUgbr5/zCf90dXVDxYoVMHnyZHw59UuZR8yjHhpAsH8pcUQNggYQ7L8vqveQLgAh3A3Hes/C9p/WS3gwd66cImxCahQXdor6UD64bNkyoty4c+cOCb1zF/vH5j+E8kTBFqqwMa/I6EaBggURFBgI5vaLFS8mix/BAymaxYuXwKlTJ5ErV26ZKBs3boKOnTqIhpMjixRz5cwlACfe5NsyTWIZ4UjibpKKZSmaY/XQpPqzjK5Yi6ywQ8uoTFqfLgMQERnxwk4trd0ZP6cTIMndIBeptDRzW2oqaLq6uIhvQZItcelM4sOS+x2AU6dOidSvmo1pHha+qW3WtGfPHjRqmIoCMxueW1InjQA1hWbeVwrPIEWUPL08JHIW35IhN3GeML/nwsKSdynhReQxt27eEr+KxLblKZ140r8nSBFdBZXsnknJVcPBVDljXicjm1aFo9J42ZTMZlpSrcZ5nRHWTJk1FoNaY6pKP+kFEK4MXwL3sFhZSFycncSL/fnzZxK+jW8KEYIvOvOcZpMBzYuuXL4Sb6nLB5Q5NeqwUyI33uLBfCK3nEwcCBC4C/ovUhyVe+eQ6ze/f4pHWGqeenMxGAewZlNzKvYca4hNLQ8v6W8jQ4k0ZtWfVa7Fyntrz8WafzYFUJbWr3HIs5rWk7H2OeVZTcszb6U/RXtGLftomzcwqRwTS4CX3Mc1mmMqBzeth6cHQMgZ4YYrny3F/cvXcePGdWTw8pKK66Tc5tJ6LSl+zoEAIcXv1g7QRkAbAW0EtBFQZQQ0gKDKMKbcSXoBhBN9vkYuFw+EhYZJzpF1BbzJLCBiTQGdD2NjYiXsp1TWM2fJY0nPY/0DaViMFHh6eEromeFXFn4xKkFJWldXV0RGRiHOECuqeUw38HgWV0k4UQMIKT8Q2hHaCGgjoI3Av3wENICQTjcoPQBC9nAXrGnaD94xztiwYR18CvuI29y+fftAgyPyuFmwR5tihsNYyMS6AnKmKZJDHjkpZyxAYuFUyZKlcO/eXQQFBkkRHo9jq1a1Go4cPYpMGTMKv5wV6Rm8MiBDpozo2rWLBhDS6ZnSvkYbAW0EtBFw5AhoAMGRo2vWd3oAhBzhrrgyfClO7T4gYkjBQUHCtyf1i1X8LCZky5gxg0QBGBkgbYkGKFeuXMXTJ0/ExIPUJnrSk0ddrVo1UICFzAFGECiaQmYE+2SkIfB5INzc3REVFSnufBRG0SII6fRQaV+jjYA2AtoIOHAENIDgwME17zo9AIJSg3Bm3yG4e7hJVToV0OhjzwWdNCou9GQnUBwlOiZaIgtc6EllpJsdK3vJYogIjwDNTCjBSqc3siAIDGj24eHpIRSvbFmzyb8pQEThIMqgStNSDOn0VGlfo42ANgLaCDhuBDSA4LixTdRzegKENd8sEalZTw8PSRdQipgpgyI+RXDh4gVhI1Aa1WFNAwgOG1qtY20EtBHQRiC9RkADCOk00ukJELxhNG+y1uj9LsYsDvIL0CII6fRAaV+jjYA2AtoIOHgENIDg4AFWuv+3AIR0uVwtgpAuw6x9iTYC2ghoI+DIEdAAgiNH16xvDSAkDAapkKx7SMq21d/fL0XZ4XS6bdrXaCOgjYA2Av/ZEdAAQjrdeg0gaAAhnR417Wu0EdBGQBsBVUZAAwiqDGPKnaQOIACBTrFoun06/AIfmcT8qQdKwXPFYVFv/FKRSTVqpSoshuRqEFI+UxWO0FIMKgyi1oU2AtoIaCPw/x0BDSCk0/inBiDwlAL1MWi2Ywb8gh4BYt8cB+jMtOIN5oWIRjFxDSCk083UvkYbAW0EtBH4D4yABhDS6SanGSAEPoa3ZyZExUYho7snnoeGwk3vDDjpEBQeYjp7DSCk023UvkYbAW0EtBH4z4yABhDS6VanBiDQD4Ephje2zYDf84cokDM3AsOCkcHVC3HOTnDX6RESFYHHQc+AuITIQo4wN1we8QO8JQ+Rvi00OBQeXh7GwkMtxZC+g699mzYC2ghoI+CAEUgtQGABet9+fbF9+3YHnE3au1Qy82nvwcGfTA1A4KlE6uPw25PzCKaREqsMdAboJNXwYlN+minaGV1fqw83lir8H213aSf69OkzUWy0er4ai8HBT5vWvTYC2ghoI2D/CCQHEOjB8+jRw0Rfws3tZ8M/w+49u+3/chV7eKUAgviK6/Qw6CKhN7jwX8YahCSMxhWAEKuLgx5OEB9x06dUHOPUdUXf+iQ+odEcUzeU2tHaCGgjoI3A/2MEkgMI0dFRKJC/QKJlKTw8HNwM79239/9xukl+5ysFEOKvkmEARg1SyhgoK7FynBI9SGqF/j/fOg0gpPcNCEVMRCScXZ4DTnqEhmSBmxv//UwYMgZDRkREZIReHws3t6cwxLojzqCHXh+OiHBvwOAGF5cYOLs9BuCM8HBvuDhFwck5CFERGeHmGQbACZGRPC4Ien0MABfERmVBTIwebp6BAMJNIFcBu4wuxZoGggW3BMDmIFh5mHW44x+O2LgQFCyYFdDxWH7O/JW3/Du7NQ+hmb8I/Lzyb+UYft4dMPAc2TX75+/IFOI56QCDHtCZ/h7fN3/P4+JMhynvqumzBh2io7Lg9OlDqFGrjMU58bMuACLMvkc5b+X5UL6f//bApYv34FMkC25de4w8+T2R2TtjwvfLR8yP1yE2JqOct5NLkOk4a2FFfka5J8r3uzGGieiorHB2iYBOx/ubcD8Sj43SpzI2yj10weWLj1GshJcpkqj8nmPLe69HdHRWxES7wMPjCaDjMyODb7q/7Nf8XvFz/Hf8dsj0d/NjlOdAOSc9IiMy4dq10yj7mo/pXirfwWN5XzMiMswLbl7BAEIAgxciw7PI+en0EXB1J4tMuSYDosLccebsGVSvVdrs+VXuF7/XCxHhGeHuwTELgyEqK2INOuO7Y8iI8NCMcHGNhrPrA9M9cQVAD5uUJvn0njOM35ciQChYINGJESC89dZb4iD8b2qvJkD4N42wiueiAQQVBzOlrgwGRIRswDvt3sWwAXGIi8uAtp1CMfPLTPjkwxBEx2TGB72e4MARV+h00VjzQyY8C8qGk+d0eK99JKrWCUC2bO4IfB6N/dsyYuvuUMxZFAdXF+DgrhL4oKc/FszPi9i4OHT/8Da2/54BuXOE4fK1zKjV8DGcoMfXM13QpXM0DAYGIE0ToSEG0HFx4sLABYN/8nf8u2nRhQ6xyIxefZ+ia+ecqF+XC4kJTBh4HOtvlAXcyfR3ZSFSJlz2y+8x0YJlsudXmFhAuhg8C/LElKnRmPUl+yBI4ELPSJwTdLJwxQL8PgHrps+zP4bqZL0xUZAVUCGpQP7nhFbvxKBVCyd81NN4rowG8jeBz/Nh5Oj7+GY+fx4Lg8EZOgEmykLJjp1Nx8chJq4qWrY9g7U/5kPH7jew/DtP5MlNcMGvMl2LnJ/pnAxxWPqDDsdO67B4kQLAeLByrsp4KAux8V4YYj3x2+ZYvPlGJIaM0KNV82i80ZyX6gydXK9Z/lLWYY4N++XYKfftf+ydB3iURf7HP+/uZje9J0BCgvQmXTqCUiw0UVFExO7Zezt7Q1RUPPU8y9lAuVNBioiANEGUXqW30BNI79vf/zPz7iabECQJoPH+Mz6YZHfa+515Z77za2NC1xsx4ppjfDNFx2YVY21ssjoCU/GcJi4eLm6HDWPh9y4aN/IaeOoCD3/f/FzOT86McrKdMi8uP1n0zxuBrjGXPN4EYpMy+OIzjeFD/GRO1Gkz+qPrvP2+hfGvulm9JJZGTbPYtLUVFwzaTlxsEOekelk4V5A/8TxCqhvEE8+XEBVu4e+PCnLhb7v8JczI60jLNuv4+vNk+p7vpXnHdPr3jWDSRxp3PWhh7gI7xUVO9m5NJCoyHfR6EHXIN+9P9TL/8d/XmCCUlDJkqCIINR6pijYIBsM1lgqhUJArVp1lkTV9WKHeMNQiVT+TIgg1RfQ08utuSounMnLEtdx5h4VZM8OYPa+EmVMS6NHjKNOm23jyeQ8/fp/E9p0uUpLsHDpkZd3mYK4ZWUznPlmkbW3OUy9k4SjKZf9heOC++hQVWOnWKZt1W8L56OMiGtQLYcilDkaPKkHDxCOPm9mxx8Ij98Zz6HABo0fbeeI5nZIiCwmxOvfdU8Irb4by4D06b76t89C9XrZscTHtu1CSGnh45AE7GzYG8+XXVnbvzOO5p2O4oF+unFIH9kfwyls65yR7uf+eEhYuCmLmD6E0bw6P3G9n/KsmCkvM6B6dhx90s3mLjXUbTOxPc/PQfcFERxcy8W0zXreJRx8q5sPPLHz0uYu3XozgqmtK5Kl78mQry1ZpXDPSQdduOv9410xmuoXHHgkmK8/NnDlBHD9mx2rzUFpqomlTF3f9zc2rr4VSUKhLwvTWa6FccW0+gy/RGD40hJdf9eDxwmMPW7j/8RJ27DAxf2Y069dn8/3CMPp0s3PTdQ6Ena9If38yhKx8K/37ORl5ZRuGXr6JqV/W46rrjjDpYxsN6jnw6iH8/UlN7pslRSZswV6cHhPPP2Nnw9oIcvJ1OnV0yP7Ljc7rZMx19Vi5KpfiYie33eJhwhtB5BRZGHu1hzVrwvhgUgH/GGclKz+Yi/rmkl8K731go2GCl8ce8TJ/cRzr1ueQmWXikQetFBc6+ddHZnqc52Hs9SWYTDpub3069simZ+cQevV0cMMYB9NnhTFvgYlLLzbTuEkwA4dmcMXwxtxxo5ePP8+RGD50r4sZM6PAHI3XVUhSw2wmTwkjIsLL+BdLsVm96JqJf7xrYcs2K21b2rluTARPP28nOtKE2+7ltfFm5i12MGdeBJOm5PD1ZBg+xMB080YT730cRsMGHm67NYwe/TKJi4/l18VWbNYMftvWkpdezuKTjxpgMYtTfzHPPOehoFTjofvcTP7CwfIVVlq3CObO24vp2N4vBTPqz87vSJ9BB3AV53PZkChmzHHSr4/O+OeiuXTEURYvTGXiO3l0aFXKVSNdoMVBZIZBQOugEEERhNNYe2tSNJAg6JoXTTehSRas4RUnCM2DSYgxy6hDHZwt1XpgQQ3ceOXpx8f4K5VTBKFaQJ6hTB7sRd9w+eXX8tDdZlatDmPWrGIWfB9CdEwx417WWLvRwu232HhlYiHXj7HQoEEMGzaG+QhCJu1bw4F0jVeeghK7xjvvweWX6Tz2iI3wMDMdetiJT9BZMDsSM3lyoUs7EMWQKwqJj9WZ8kkCS37O4cU3Tdx7axSfTMpk3jTocwn8MD2aSy7L44cZIQTZ4ti8LYnxr67mi3+ncNvdh7j+ug688OIm/js5hn59BUEwc/2tHtqem8Bvm7J54lEvTm88W7Yn8eL4zSz6LpKLhhdw09h2fP/Db7z5ehI//1rMz8tK6XheKi2ahpAQk8V/p0F4WCEpyUU0bhTOq28XMfPzaBqek8+hw0FcNEzn7jtTmD0njcceac/zL21i0IA2bFi/jVuvr8/oWzN44ZnGPPtyGi89XZ+J7x9n268avQd46XpeNKs/65L8AAAgAElEQVRXOnjsITPTZjoZfImVVetdaHoyWVmFtG9fgtPl5rffzPzn81QuHHqcu29px5dfLWPqF17i44TQQmP5qmZs2ZXEgoVr+eLT1owYuZGpUxIYOSadLz62Ub++A68nnnPaZPHyi+2Z8OZmrhvdgAULs3ljvIsVKzSOZ3iplxSOw+4mNLw1iQkHpfrojnsymfqfpnTulMUP80L4YaGJYEs+d/8tnrsezmfy+8G8/m4GN4+Gad+HkJAYw5JlLt5+LZKvpmnsTztKiSuRC3tnknU8CKztSIjZxo1j8zBrHrx6PZp2Os4n7zbh70/vZeGcIPpcZOahe7oz8Z2lzJ3ejPMv2sNXkxrxzw/z6NHjHL7+dgffTmnDy2+ksW61nckf1aPvJYe46+4+vP3+Kr752MH5veFwRixtuuTy3sSR3HHPNJYuTKH3wIP8/aFUXnvjIEt/TKbfRUd46fmmPPH8Xr6dDJcNEQIDEy27e7nqsljeejeHr/8dw4tv5NLzvBDeeV0IJ0rZuK0tffpvJzLCxISXovF6Svhx6TmkpkYTZNmCq6SA7XvDad3Mg9NVyhsvVzzX5ea3Z+wtm2l3bjAzZzh4ZVwfZs7ewCMPxfL+xy7eeyPdp9rwBb3DRxCk5KzunREVQThDy/CpqqlMEORRSIithNBPM6QJgjSIZC7MpnTr6jrJKE/1nP7nMMfEYWrZCb0Kw0pFEE6F4pn8vpwgPH4fbNkO06dbWDzf0H//832Nz6dY+PzDYP71ESTVs9K5i4n1G0MYPbKIzudn886rGimNzPTt5eGnnzTatYvgoaeLCQ/W+fA9E++8F4/DWcKj9wtbA2ORS0uDvbttFLtiGPdqEYMH2li+Kpu3XoUxt8H8by30udjND9PjuHh4Nj/MiGPG7DxatqjPm28e4eMPW3H12B18NTmCt/9ZyNhrfRIEbwgDhpTy6kvgcltokgoffqrTpnU0z72QzdxZkVx5QwEfTkzi1beO8vj9jfh1VRFJDRPRyKHEnoLHtZugIBP1khzMnl3CFSNg/Gsw/zuhD3aybj0MvxK2r09l5boj5Be3ZunSrYy6ogH3PnyUl59LZvzEI7z2oo1b7nQw/b8al1+nsX6Zmd4DPHzxkZlHnnTTtXMUv+1wMPTicKbPKqVx02Lattbp3iWCNatKWbcxiE/eT6Zjn8Pce4dH6uFHX60TGgLHjoXw4admUhsl8cOcI0z69FwuG7meaV/WY+R1h5n87xDq1y9F9ybSpM1xFs+1ctdDTt4erzH+HXjoDp2VKyDjGLQ6N5jX3rLTtFkCzz1ayq69Icyak8nnH9hYudrJLytj2H+wAFxBvP12Pa68JpuvPi/lgSfc3HidhU8+D2Xcs+F89qWZ/n015i+20rNrPhvXW4mMyeX8niamTnfh9jp58jEdm01oCuox/JpCpn3p4NobPbz8UhijrivmgTstON1ubr4umE497KxYmsLI0YeYNqUTjz+3hxtvTOGbb9N55IF2xESsp35KMc8+E4bHVcSokRopKTrr1gdzyXA7E1+LISsrl0sGxdKzXw4/LTyHvoP2M2dGAwZcls7+rW1p02ErX34MQ4eAy6kRWl/n10UaN9yq88RDNiZ94+CiCyN57EFhpwGbt7XkmRf28+6bFqKjNR5+rAiny8qAfh7atA5j+swCwiNh9Ch4aRx8+oEgFuW2H4Ig3HDzZv47uR4bNubhKI1kytRinnksnuv/dpyfF7uZP8+Cx2ln8FCx2MdBeEa5iqGOnQsVQTiTa/Hv1BVIEFyaRnBxLnnrfybcpBPSsjMl8cnSjVHMj9B9G8j+4ClMkcJYpo7NmFPgJbXIHhemeimYbnsZr1kYPFVMiiD8QZNONuPBUTSVsWNG88DtsH2XxnffmZg1Q5xYHORkJ9B/UCat2gaxc4+LUSPjOa+DJsXyIy4rov+leez8DWxBUFwC194k9OeQngmXXRLEhPE6H38Wi8Nh5+7bCwy7L93CW29a+GCyiyZNTdhLLTz3mJWxdxTQ/TzYtVdj0Syd9n3g/O5xbN6exbdftmH02O20aB3K1p3FTJ+SwEvjcnC6olmxKpepX0TRu7eI+2Hm2XFe1m7Uyc2Bcc+HctudJZzXLYw9e4uZNSWCG+4o5PVXGvDOe+ncd2cDVq0rpkFSfXTycNgTaZh8lMefLMZidnD7LdC4Gdx8O7z6hMaIkZCTF8ywK73ExLrxuHWeeaoJd927l/r1Ijivo4MLekfwxr+yePHxcO54pIgpn8ANt8HiHyz0GeDBGmzl+BEPkz8N5qNPnAwaaGbPAS/z5kOQ1cOdt5owW2D8K07mTG/M5aPTaHcuFBbBpI8gIgJ+nB/HY8/lyFNv+45WPnynFdfdsJnPP4rnxr8d44N3rCTWc+L1xtChey7fTzXz2JMeXn7GzJsfebjrFli7Co5lQlxiNPv2QVRUASlJXqIik1i89CgTJ4Tx5LNOFv1sIvOYm5HDzbwyPp7OfTJ4+UkLP/3qZOxVMH+pjYU/OcjKtjL7mwZ8PU2jS6ciNm4KIioqm8zjwazfYmPvzkwWzosmMiIPvDE075TLRX1h6w6Y9x30HqDR+TyN/FydKZ+a6DvIw4IfUnjl1Vy27YTD6UX89GMrXn8zgwcebE902Br6DrATGamzZTf8OANaNIPc/Cjan1fABf0iWL6yiHnfNuCiIUf4fmYyl1xxhPkz6zP88gzatLWycoOTLz6ESy8y3rlh10BJIWzaAku+N/HseC8Xnh/BfXcVyrm7fUcz3vnHft7/wLAFWbY0nudfcRETV8KAvhbyMkv5dgGEWWHIpSaGDgpl8lceXhsn7EF08gpbc9c92/nPJGHn4GDp0limzijljVc1hl5VSqPUCDZvLmD8i9EMukAYDSuC8Eeshn8xI0XDVEno6p2bVxLcrAPe0DCECZNIIXvXk712AU3umwBa3dRN/e6glhxjz+vPEn7zM2ARJ1VFEP6Il6DqNnR0+1fs234tiYngLIW8PGjaXO7kclHcsw/WrNVo2ECneTMTIWEa9mITUTEedu/w0q5DOU89cgSWLNWIjIKhg22YNDuZxw2PhITEcm8BhyOIRYtdZOdCr+7QtJmFefM87N4Pn35q4qcfPfy2xYzD6ZXlmje1sGath/x8jSaNvTRtDMczbfy60kXzVjZaNC4lItzoR36BmQWLNBITvfTp6UUYTDs9kNoQmjfRSDugk5ocREami4REC6XFXoKCzFKN59VthIY4WPyTjselMai/0GlrLFyo0TAJOp9nPMO27bDpN52+vYKoV8/D8hUa2dk6gwZawesmI8NNcrKZAwc9NG4s7CIguaHY9HRuudlGw/pOhg2zkJbmJDoSQkOtzF/gJDgYLr4oGKfTzLfTi+XvmZl21m2AHt2gWVNjFF0OMzN+gCapZmJj3ZzTKJi0fSU0TrWw/4Cb1EYaliAxfia2bPXSvBkcPgzJySBc0+MSoahIw+3UWb4ykllzvHjdDooK3XzyfgwORw4NUzVyMm3MX+igVWuNhDgvKSnCkM5Dcj0LsTEu4mLA7oH5P2okJMIFfUxkZpoIDQcRyNUc5JYkZuFiL8n1TfTpLW5pNcT5Gzd72bFDo0VLjc4dvWzZZmLTJi/n9zHTKNXD9u3QoqWVnCwPCxZ7SE010buHl4x0E4kNQjGbiiTBWbJYo2kznfM6g+Y7L23ajKyv7/ka9RJg53YPzZqb2b3bQ8uWGhkZsHyliZYtPTRvAlGRvrmTC/MXmmmY7KFnT420vTrhkSYSEwzjU0dpEMeOuUgVTg9CuusOYv6PLvIK4PLLzeRledixB9LTgxjQ383B/SFs2+Pi+jEuaf/p8Vg5dNDJOWIcdSgsNJGbo5OaqnPwiImflkFSfS8DB/gdZeIgQqgdTlwn/7w1o7zlU0oQKrs5KiPF2g1bRRWDIReIcpWw5acFNOl/JW6ToAfGJA0kCMLq1+V2GXRC12WkQv9POYG9XkxmEyJohSQdJg1xQjdO6V7DVFAHs0W8tUZ+aaSNhtlixuVyyTaDgoLkFcxlVuYamM2B9z3U4LlLj7H39ecJv+kpdEUQagDcWcrq3oju+NxnZS7mgclnSS7aCwxY4ZdWBVq463j9VuW++Bp+A1uv5Bhihvot2wPni9+i3f9MhhX5wcMlbNhoY9gQKybNmHtG8otp/a69gj6Xi26NbdvkU8WJ90TY7chZHOCS6EFEAvEbyQpjSU1YxQvq7YscJn4IlZ7Rnt9GxrB8N8lGNFmv7zdpbCv7IdWBxrsjTXB1YTtkkq0Z33kMC309HLQSdM0ty8l4JLrA0Ie1T9ds0kX/jdqlKa/0yjACovmNlk2+wGjl8dEMjwPjmUSdIq+BiWEQ7K/L71FglvZAmm7FRQgWXdgFOcAkXPrE2iB7b7hwouOWGAm/E799sUDTt4BIrMzymY1nCnDxlF4FgeMoavVjKzwXvD41qt9TxSgr8Bb9F0aH8lkFgfN9LscMkyxnls9rjJdHxofxYhbSVtkHY6y80ktCPJMYD+PwJdmEzCPUNz7PFWHvJdW5oqgYV1+fyjwn/O62AUbW0nvD8GwR1Xrk+inWW1FnqPwdOZeFp4sx74VdmcRS4iKew5i90ktDzBa/N4wWhjnkpZPGuDlLK0K1q1UEodpQnV7Gil4MwtVHR9u6Aj0xFS1eiD/llJapsgThvffeo1WrVuzZvYdevXrxy6+/0rJFC7nBHzlyhKysLPmzZ4+ecok4ePAgnTp1IjY2juPHj1OvXiK5ubn89tsW2rdvR2xsLOvXradfv37MmDmDw4cOc+2Ya/nll1/kdyEhIURFRdHvgn61e2hFEGqH29kqpeeQl5NOeEQeJs1KVnY0ifWFH7bfpU7MvACff8MyplJvhFuYz8Ws7BszeTkxFOalkdI4slwbZux4vlzip9Dti7Z87XiDwORA91rJyUkkLl7EVxAn0yjMZjcOe7jMGRRkJy4u04iroHtwuWLIzgynfoPjPq9Ff/8t5GVF4faEEhufia47yc2OIz7RAZqT3KwwwsI1rMHZuOxh5BZGEx93HJPJS1ZWfcwmDzGxPuMx3zYrF31JPkyUFEVLCURpSSlbt+yk83lt+PrrhVx/Yw+5GblcZr6ftYnLrxK+8ZVjJRhUQ27AbhvFBeFExQpbDb/1u5+s+AmL301PfC9w849FoEdQYPwIvyTIHx/CHy/AF29A11izKo+27ZoTGiaOtYH1ic1b/B043sbfvm3X52bp/16yIzm2fhmojy4Z5CnAK8tYzQIIp5RWGZu+37tJRob1uX4GqlLLVkL/PCqLBWMQGC/iIONvrbIKttxDzKBL/nkY8AyyrHh2QXSMaWqQsHIJmIGB/xkC576vnFHKIJRl7ZQdrwJiJ1Qk2ye428p6TlTDnq2loKb1KoJQU8RqmT+QIEhvBc2LTffilAbLAX6/lQmCYKX+t8HftmTefo/qSh2S7rl+C1lBkiu+QIY/r/GZyKeZfd/734XKP2vzvIog1Aa1s1bGXjSDyy8bxeP3WYmIbMB1tx5l29okQJwkxSLtNvz9deH7LxYrr5QwyFO37pGnW10TOlYRmEe4MYoUhIsIxt5QzCP3htDlPGHkJcSk4hRnnMrEZrB5WxPmz9vEYw8Gy8OVlxDMeqlckJ1uK8OvKubpv8dybrsmDLhoFQP6W5gxx0terou2Lc3MnBpJVKQDL3Fcc90Blv4M/3g9mWuvKpIqA7FhrF1jZdTNmbg9Vu69M5Whl+QyZHgmG9d0IsTmpWOXTVw5sikvPZPHN9NLuf6uEuZNb0DjFC8Dh2fTu7sw0gyVTyXcBjVTqcRCw4WOjedetNOiZTi618auvcV06xzChIn7WbYwHi8u1q418cLLucz+NhmzqdinujHh0W1C/meQIy2IFauCeeXNXGb9Nxav5ijDydiIxHtux6tbDR9/zSPjUhjSCyMGgRgjY88M8h2ONfampfDOP/bwzj8seMX3epgIQSSJka5bKSqxccHAw/z440TiU24HPdg35n7+VnmDPWvTsO5XHHhbbjlrODv9/ovArgjC2Rn+E2oNJAhmXZcLpJ9NB/JWUbAmNgjFRcWEhhqLW02Swy78rU1SfSEW7rCwUIqLi7FYgigpKSYmRhhI1iwJ9YWQaqAIQs2AO6u5PZQWfM0VV47hiXshLCqRa2/OZ8eaeB54yE6hUyMu1sVTj3v4cb6L+YtjsJjd3HxjJJO+yCMkxE3nDhpaUBELfmxAclI+Lz1v55PPg1i+KpoVK3OZ8u8gQkIdvPVOBOYgD2+8aiIiLJu8/GCGjfBIQ9VJ7+tM+srDoUNx3DD6CBdeaBzAXppgY/t2L716hjB3noNZ34SQXxDE9bcV8fxTsXTtctQ40+sJ0gCwa3czcdGZPPN4OWi33GGjb58Q+vezMWFiDrfeauOyq4rYvKYRmzZk8vdnNIKCYPHcUGbMyuaW+7x07xJOiyZOZi/20q+Hl0kf6lL6+8qrcVwyuJgp/w3hmmts7N9fgokYUhtZ2LazkL377HTtbOO1icdZvsDow+o1GtfdrnN+jwS6d8nj5hstvPa6md1poQy+KJ+rrxCE3cnevbFMnRnOzWPzmfiOhZwCNx6XBVOQE5PbyhsT8vnivxFs2GDC69G4755szm2TxF33leJ0mXjo/nySkyJ44ikhPdd54bkwrr0xnSPpVhbOjmTu/HyWr4mlX69cbhrrZNybIaTtN7FhfQELfnyZ+OT7ZKQ/I53lHaryouYfrpo0W1UdNSl/Jt6r/5XnqCUWiiDUEriaFgskCOI0YHc65EsqBiDKb0Hjq7S6BEH36lJ1IDbzMolCVRK3yp3VhCFTplygxYVKXl1E2DNEyoaNA8TGxmAKlGyUy/RkPuO+CL/I0afK9urSHgK7zwbh5qfQzX+SkaLUNcPm7IOkxtUnxKuxPmsfraIbEmy2sjM/g86xFcOE+mESthgiZGh4uLCKM/TshYWFhIdFYPJLXKo5AYoKiwiPCDfGKTqG/Px8+S8+Ib5WxK6azQZk82Av+JorrxjDY/dDRGR9rr85R26eDZvt5pmnW/HJpzt4dVxr/v7UDl55tTN3/G0jc2Ym0/OCgzz2cDy33ezi8OFSMjLjeeSJbFb+ZOHyUR4euDeVV944zluvBPPhZ6Ukp/Rhw8Yd9O21l0fuBbfLytVjzDRubuGay73ceLuTUVdZmDO3lJ/mQ0gwHElvxKgbxMZn5fprcxhyiYdvv2vAd98fZ9KHQrRr6P1LS6K45W4zS3/NYdPKJli0TKJjCqVEv2VnmPxhJN27FkuJws7dTi69DDasbsFzzx2g1Gli/RadCeOiyT5+nPc+iqRBfS8HDhTTph24nV4+e9+Y1Y/83URhsZepM8w891Rb6sUdZccuBx06JFBYVMLefQ66dbYwfmImv4j7aHRYtdbCFdd6+McbcTzzXDZTp4Qz7Koinn7iRsa9MpUta0S8iGxWrY7kmXEFvP92AoOGZ/HWhHO5/9FdPHZ/DK+/nc2Mr2DiW+L0H4mmeYmI8PDWhBC++87DPz8u5YI+IRQWlZKXK0IUF9Ctq4Udu8S4WPn0/SQuvtLJQ/cP4oN/fsoLz+nc+yC8/EJTnnh2DwsXvEJc0n1SZ362uUHN56gqUVcROCVBSEmpMJ+EGk5FUqzFaFYgCJrG9u3bWbHiV7lBXzb8MiKjospqrS5BEIvT1i1bSUlJkSf3IGsQZlNFw0JBIsrUCGVnB43SUjshIcFlcRwN4x7weD3GJl9lEoaSQvysSaNIi9mC2+PBYhY2FYZRZJDVUi5B+JMJwjFcDPrgCWbe/jwrd2/jsR8+ZuHt4/nv+p/ZkZ/B14PvrHKxPHjgIDdcfwOfff4Z55xzDhs2bOSeu+9m7ry5RAoyF6herUo14zugedxennrqKca/8jJTvpzCNddcw4MPPUTHDh24+OKLSRFxzM+ESud356NOaeEUrho5losutJGQ0IDXJhxl/YpU2py3j+n/iee1N44z8spWTPpyB0XFiSTGZ/PuxDiatz3O55+YuLCvzrvvR1CvXhgvv1nA6iVBjBxTytyZLbjupgwevDuY198ulbEIEhN0enWz06XLEWljcPV1Zjp0LKVZisbEf5n45F+hjLm5iKXzdYSQyu2x0L2vmbxCM6t/iSY2ophBg/N57NEkLup/1KcWtvDEM7DsFwvBYcKa3sy1I+wMH27YIAwdaeKxB5Pp0DGTSZ+b6NfbyeWj3Sye35yrrt1P2gEXpQ64fHgowwfrfPhvnY8/MHHosJV5Cws4kq4z6QPjqLh5SxMuGryPwYNbsG9fOm+9GsrMH4ro0D6RIkEQ0gRBMDN+Yja/CAmCDqvXmnlmnJVJH5sZdKmTf04M5err83j9lXY4nW7GjjqAzVbCqjURPDeukPffjmPE6ByW/diWXv13Mnd6Iy65Io3/fhbEhLftdGprpmPntnwzdR+dOoDTGczUWUX07xPOvr1F9OploUtHF6FhQfz3m1KyckxMfDmO84c6eeD2CIl7k9T9vPeJiY/fiWDAkCzm/ziemOT7DYLgm5+1WMZUkf9nCJySIFS+i0ERhNrNkApGirrO3r17+Xn5z0SERzBixAjMAVcjV5sgAL/8/As7d+6UrC0+Pt7wPAiQIng9hpdD5SSYXoiIyBKYBEHweAw1wUmSJBwmYZjlxmIxlxEF8VmZTYNfxfAnEgSx3O/VS+j25t2sePgdZqz/mZeWfs2qO97g6bmTcNiC+GHI/QZUlaQue/fspf+F/eWYfDdrFgMHDZS4bt68mdWrVjPt22mkpqTy9yf+zsMPPSzJ3b69e/ngww+YMOF1xo9/mU8//YykBg344ssv5L+Jb77FTTfdSI/uPejbry+XXTaCGTOm43F7eObZZ2jeonntJlZ1Sjn+w4fvXW+E+gVuviaIF5+Pp17TdFq3EKd4mPJ5E554Zj+tW0QQbPMw+up4xty4n3+9De3OtTL4CidJDWDDbxp7N4Yz5lY7hXku0o7Cfz6L57vZdmbPLsJshddeNNO/vwc8Qdx5j5lNW+1MfCOM624pJjpcuLaZ+PIjHZPF2JQ//29jlvy0n88+CKWkuAH9Bu3hqy/NNG/qsz7HzLiXLXz2hYPGTa1s3eNi9AiYOMGwnp8+O4KnnyskOQlCrWZefzWMUTcV8K+32jPulc1M/6Ybe/a7eOzxNMaO8vLNdAdfTdax2pyMfx3Sj2m8KyLpaTqu0hjads3lH2/24tWJvzLtCxOTvgimbdt4iotLSNvvpHMHM2+9n8ucbw2CsH6jxugboFGKTl6xxqyvYhg6soDERDdOu4Ufv9Mwm12s2xDGq28W88Yr0Yy9LY/vp7Xi0sv38vWkBlx9w2E++qeFV193sn492F0w9tpgli3z4HR6OJapcdMNISTGunn3X05cHp1XXrKRftjDG++5WDgniauuzSA1yUtEuMaEcRq9LtZp3USn1KEx/duXiEp6UBGE6rwvf/E8DocDoUIWEtCTH/aq95CKIFQPp9POVUGCIAwTvV6p8xcn77CwsDLDQdFQVQTBLTfkE2MirF2zln379tG1azd5IjWbhQubhiAGfhVAoKGiIABCjSAmkdVqlb+L5HQ6sQZZsTvs8jPxndPllD9Fku0HWfC4DAIh3COF1EFIHEQeoaaQTl9CBF8HCIJYuPdip8ubd7Di4X8wa/0Knl/2Datvn8Cz8yZRag1i7pD7qWTDKZ9VEIT777+fG2+8ib8//jj//vjfUhLw3Xff8c0333Do0CFmz57N6tWrGThgoPQEGTduHH/729946KGHWbDwR5544kmaN2vGokWLmPzFZG6+6Rb+9a/3GDNmjMz76KOP0qRJE3JycinIz2fOD3POkujXi+78GkpuYu8+YRKr06yJDV0P4dxO+dxzTxzNGrvp3cvKdTfmERnehFK7g/vvLiK+XqYkBaHBsHJNLBnHwmjb5ggtm+uk7bexYU0M57TIonVrj1QnLFoUSUJ8Kb16udCEUaOuSZ/55csS6dM3h6PpsHtnAhcMOkZ8dLmLY3FJCKWlTuJjxWZo5vARDykNRVCh8tdO94bw09Ig0jOjaNM6XXoD9OqdJ7mdw6GxaEksJSU2LuyXR0RECQcPQ/3EEPLyS2mYLKRbZtL2u4mJgpJSjYYNDT1+VpaIyAgN6vva0mHffmiYHE7GsWIaJiMDMtlsZry6jtOpS9VIVo6XRqlGGbsdDh4ys2Nzfdq0z6JpMw9btoWwY3so/S6wkxgnAkjplJZqZGXr1K9n4vARUd7K/oMuUpLNHDrslgTnjnsgOCScARdGctHADIqKraz4JYIWLQqon+wkNiqEHxfZEOeAQf3tss5Z34dxyUWFHE0PYvPmSPr2ySC5oZdVq8JJT7fRoUMujZo+jCn8WRGG7ezbH5z2aqkqOB0EsrOz+c+U/3DHHXdIqfLpJEUQTge9GpSt6OZoFBTiemODNmIc+FMZQbh3Anfd8wArVvxCUVExAwcOoEGDpLJgISJ/SUmJdEuUJ3+zmV9/XUG3bl1JT09n967dXDigPw67nY0bN9KzZ0/27NlDcnKyJA/iM3ESrt+gPitXrqRbt25S175//346dezEb7/9Rlh4GM2aNWPlipV06NSRosJC6W7Z5bzzJDFxu120bt2aOd/PYeiwofI0XHcIgoPuE+9k9UP/YOr65YxfNo0Vt7/Gk3Mn4bJZ+X7IfYYRf6Vx3Lc3jYcffojpM6ZTWFBESGgwgwYO4osvvuSJJ55g3MsvcfvfbpfEYMTwEcybP4+nn36aa68dwwMP3M/bb7/DG2+8Tr++/Vjy0xI+/fRTbrvtNv75z39y6623MvHNiTz77LNcM/oaSQ5F6t6jew1mU02y6uiereD8NiD2gZh8NlyexliC0tG8YgPT0L3xuPUUTFopZvZJV0S/M1lZi/IWPP9m6vtF3iZY7gJXlsHvwC9YmMzqv63P75pX+W7tLYAAACAASURBVNa+33muMgtzMVo+Nz9hI1PmjRmg9/HfdnQqmLwns0A7VcFK3/viQfh8g3yQ+fpT5j5XHes6DbenGZpWhNkkLgoSEhS/e57/1kq/h5L4Kfzyfd8LjGV4BD8OAddTSxfDXmATlqE+l7rqdKeGMKjsdQMBIR3OzcslKUl4Kp1eUgTh9PCrdumqCMLJCpcRhHsmMOmL/xq+wiLYiteQCoifwcHCbUynuKSY8LBw6Y0g7A9k4BqzCF2j43IIgycj4JE48dtsNllWSBeEC5s/v5AMCJGUCJYkv5feCEbQDyECt9rceJyHMAUlontycbuL0UzJ4DmCl0iswam4Dx8mtFEKV187xkcQniP85qf/VCPFdJy8//N0Hu97OTM2ryYnyM71Lfsy/ocv6dauM1emdqqSIAjJzpbfttCtW3cZS0Xg8evyX+nStQsrfl0hsRY2GJdccolUOfTs1ZNtW7eRmprK7t27ZRwKMT6t27QmKzOLTp07sWHDBtq3b1/2Uxgtrlm9RkplOnfqTL369ao9l2qUUe4X/it+A3cF/6bt27j9lYosga7j/g1IEIiTnD3LHG79JKBCB30Vyo3Ot7FLN77abM7iOcSmGOCf7r/r4wQ/9hqhdAYy+zZqv8++3JQDMKv8uCfboAOx98UVqGjzEnils+AHfgLh88GvMEjiD/HPBG5h7Cmi9fivuT4Dj6yqqJMIiENjbTzbqnoYRRD+oCGuFUG4dwJPPv0CnTt1ICcnR4rxxWldGBj26dNbEoOcvBwZ3EgMpNjgxem+WfNmUmWwZPESacDYpElT1qw2NrJDBw+xes1qhg0bxpo1a2jUqBFNmzVlyaIltGzVUhKMTZs20bZtW6lzzcrKpGuXBsyZ/hjnD7yPzIxVbNy4gI5dHmDPto8ICWtH9z6P8Mltt3DPp59gi4qF0gz2vvEc4TcJghAgJ/Zhre5i+IMmnWpGIaAQUAicBgKKIJwGeDUpWluC8K/3PyYiMowtW7bIU37/Af0ZPHiwPHkKkWJlglAWHtl3eBA2AhUMF30nFDHw4pRbQb7uN1L0hViWhxENtmzexOEDB9i5Zx8NGybjdrkoKS4hPiGG7OwcaWh58Gg69953r/RsoDSdvW+IUMuKINRkjqi8CgGFgEKgLiGgCMIfNBq1Igj3TSA3r1CqC8TJXoi1/bEJbMHi0plQ6V9vtYm49ib501AJWHE5XTgdToJDgqWxoUjCVkEGQzKLmOy6NFQMCwuX3ghFRUVSIiHKCLWFDJTkD7Lo1bHbHdI32+sxSUNIu8uJzWLCLe92MGENsmGymAmWbo6KIPxB00o1oxBQCCgEzhoCiiCcNWgrVlwrgnDvBFasXCdvRxM2AYWFBYSGhWIvtZPUIInkhsmSIAidU3R0tJQIFBYVyt8z0jM4evQoHTp0kIaJIkJi48bnSPVBYmKiNI7bsWMHLVq0kMRB6M5btWxFQUEBW7ZupVevntI7wR+W2f80ZW6OTpeUYvjjIWg+wzBh0KdUDH/QpFLNKAQUAgqBs4iAIghnEdzAqmtFEO6bwJatu/F6XNL+QJz4Q4JDOHb8GNFR0TKIj1AhCBsEEflPbOh+FYOI1ifyx8XFSbe84OAQeWnT8cxMdK9XSh+KiouIEJfP6+Jq2CLi4uOkF4MwyhMSBOlWWSn5b5IUNg7C5kEQBNGmuFVPuG6GhFoVQfiD5pRqRiGgEFAInE0EFEE4m+gG1F0rgnDPBL74zzccyzgqJQdRUdFSvC8kBt2798BqDZKn/6oIwoEDB8jMzJQShGXLlkmi0KZNW3bu3CE39YYNG5KRkSFvbRTRAQ8fOiIlDMJFRkR5FJb3fhe8QIjKCYKLIL8EwWIpi70QHikuij8WYKT4J4Va/oPGVTWjEFAIKAT+VxFQBOEPGtlaEYT7J3DgQAahocGYTSZpPyCiYwlPKo/bLTf9/Lx8YmJjZIAjcaL3SxBEYCNhQyBtFuQ15Ib7o7BREF5P/suaZCANn3GiUBkIGwRRj4jPUFm9IPLJgEiaSbpNVlAxyFDLHsxBAZc1/YmRFP+gYVXNKAQUAgqB/1kEFEH4g4a2VgTh3gl8O+N7dK+b/Qf2y9N+fFw8JaUl0lZg7Nix0p0xNq7czdFPELb+tlWqEJo2acrOXTulX+y57c5l3dp1khCIIBoimEZkRKR0kRSGiQ2TG8rP8nLzpMujkExUSPK6XiO4k4ixYLH6bBBMFhlB0ev2YrKY6kagpD9oXFUzCgGFgELgfxUBRRD+oJGtFUG4ZwI//7IKp8tO/Xr1pWohIjJCBjiKjokhMiJCbujCXkAGOgq4rEnYKRw5fIQOHTuwc+cuTCaNli1byjsghBGjzWpj565dtGjRXHoyrFmzmi6duyDCdIp/bdq2qRIZYZ8gCYKQIFh8BMGnYhDEwxZiO22CkH70KI0bN/6DRkY1oxBQCCgEFAJVISCCwgnJtbB9qxzry+VyGhfOBSR1m2Mt51GtCMJ9E/jqq+kEB1vJzMqUbogOp1NKEsTg9O7dW96RIGwIhEGi2LD9EoTjx46zY+cOmUfEUAgNFSGTm5KWlialCeJvEUpZkAZBGFauFCGau3H48BEOHzpE9x49CLb5wrIGPLPb40bTTHg8hnGiUFkYd0QYNz0KQ8fTDbVcS4hVMYWAQkAhoBA4CwgIdXPgdQCiCUUQziDQtSUIaBUvaBKD5L+EqSwSq7hhUYZRraLD/mirIrStb5DLbAt84d1lqcDQr78XBdefr4orj/0ukIognMGJo6pSCCgEFAJ1EAFFEM7goJwpglBll3QRrMjui7sudvDy+Oy+G1wCGEDg7u+Pj+9nFsKtUbAG/z/Rmu8iHtmwv6yfWYi/I2TQJU331SGqPM3bHM8g7KoqhYBCQCGgEDgLCCiCcAZBPasEwZvDh+9dx+GDGWzfdoAOHZuRmXmc6KgUPN58MrNKSE2NpbTERFS0ztYtu4mNjQNvEgMvTibY5mbixNlExyVhNrlpUL8+ScnR/PbbUTRTAZdfOZjZM3+mUVMTXpeFI4dNXHChjcmfHeODj2eSnNq2ogRCEYQzOHNUVQoBhYBCoO4hoAjCGRyTmhCE0L0byFqzgCb3v4auWTiQn0WIxcrxtAPyxkARLVHcyCguYpJ3uOnpvD7+fKIivGzZbCGxvoe83CxSUoOJjgrhu1kOBg6ykdzQzfZtXiKjNA6mFZKYGM3RdI28bDPx9aO579HxWII8BNuCcbkceLwmTCavL96BuE3SCM1cVGjHbPHg9YoYDD0wmcNPJAhvPE/oTU+hmWseB+EMwq6qUggoBBQCCoGzgIAgCCKejiauGvclEbBP7HWLlyw+Cy3WvsrAS2prX8tZLFkTghC2dx3ZaxZyzv0T0E0mDuTnEhUciiMnH6/HI6MnirDK8QkJPnuEUrIz17J7x0Z6dO8pVQS65kQ35YEeDuJ6XRxgsoM3As3kAG84kM++fXaaNDkHzLFo5lRDFVGLm3iFF4W4A0JOltIM9rzxLGE3PYcmLm+qlE51m+NZHAZVtUJAIaAQUAicAQREwL1Dhw7KQ6pQM4skPNyefvppFi5aeAZaOHNV/M8RhLwfp5Aw/GZ0zYRJN/ZsESDphKTr0jZRF4OkeTHJTP4d3vjGON57jHvhfUnkF9+Z0PFiRhdGjOJvcY99WZ5Kxou/M166aFf2TyPYmc/BhbOx3fQ81OK65zM3LVRNCgGFgEJAIXA2EBCB8ZIbJpVvMeIY6nAwbOgwFixccDaarHWd/1MEIejILg59+RZe/2bt27OrIgiCuwlS4BVEQPOiVchUFUEwDBgNWiEog1dKGEQxXfMgeUJtkvCi8NVoNkFY4zaEXXEHKBVDbdBUZRQCCgGFQJ1GwE8Qdu3cJS8GbNasGQkJCQwbpghCjQeuJioGi+4hSPfIuAJ/lVTmOimkHRqIW6Bd5iApAamclIrhrzKqqp8KAYWAQqBqBPwEITsrm3nz5jFixAgZE0cRhFrMmJoQhFpU/6cX8TtXGvImD14sPs3UiXoRRRD+9OFSHVAIKAQUAqeFgCAISclJASptQ8UwfNhwpWKoKbL/6wTBj4eh6wmMonQiUoog1HT2qPwKAYWAQqBuISAk3KEhoXiEuFhYwWma9K4be/1Y5s6bW6c6+z9lg1CnkD0LnVEE4SyAqqpUCCgEFAJ/IAL+TdcfgtlQM+vccsst/DD3hz+wJ6duShGEU2NUZ3IoglBnhkJ1RCGgEFAInCYCOj///DO9evbCbLFwy60388MPiiDUCNT/LyqG6oCiCEJ1UFJ5FAIKAYVA3Udg+fLlbNy4gQv6XcC57dopglCbIVMEoRw1RRBqM4NUGYWAQkAhUPcQ2LBhA6tWrWTQoIto2rSpIgi1GSJFEBRBqM28UWUUAgoBhUDdRsAwUDRsETRFEGozWIogKIJQm3mjyigEFAIKgb8SAsoGoRajpQiCIgi1mDaqiEJAIaAQ+EshoAhCLYZLEQRFEGoxbVQRhYBCQCFQpxHYsGE9hw8foWWLFrRo2VKpGGozWoogKIJQm3mjyigEFAIKgbqMQGFhAVOnTuWKy68gOiZGEYTaDJYiCIog1GbeqDIKAYWAQqAuIyCufBZxD8QtjknJyYog1GawFEFQBKE280aVUQgoBBQCdR2BosJCIiIiZJB9ZYNQi9FSBEERhFpMG1VEIaAQUAj8pRBQBKEWw6UIgiIItZg2qohCQCGgEPhLIaAIQi2GSxEERRBqMW1UEYWAQkAh8JdCQBGEWgyXIgiKINRi2qgiCgGFgELgL4WAIgi1GC5FEBRBqMW0UUUUAgoBhcBfCgFFEGoxXIogKIJQi2mjiigEFAIKgb8UAoog1GK4FEFQBKEW00YVUQgoBBQCfykEFEGoxXApglCRILhcLrxeby2QVEUUAgoBhYBCoK4icPsdf2PevHl1qnsayBgNdTYpglCRIDgcDjwed50dL9UxhYBCQCGgEKg5AnfedSfz58+vecGzWEIRhLMI7pmuWtwd7nG7MVvMyCvEVVIIKAQUAgqBvxQCuq4j/lXcfHVuvfVW5s6bW6eeRRGEOjUcv98ZSRA8HswmU90W+/yFMFVdVQgoBBQCfyQCLpeTuLi4Ck0KyfDIkSNZvGTxH9mVU7alCMIpIao7GfwEwWQy1Z1OqZ4oBBQCCgGFQLUREAQhJTUFp8PJunXr6Nq1Ky63iyFDhrBkyZJq1/NHZFQE4Y9A+Qy1cTYIQn5+PlFRUSf0UNNAfGezBRNss51BiYXO0aPpJCUllbWp615KSkoJCws7Q0ipahQCCgGFQN1EwE8QVq9azYb1Gzj//PNp3LSxIgi1GS5lpFiO2ukTBJ3t23ewfPnPuJwurrjyCjZu2MjFl1zM0qVL6X9hf7w+4wbR1qJFC2nYsCEtWrQAqTEzktfjwW63E1qLDV0Qj6efepqXxo0rq0+I1zZt2ki3bt2rNUVEHcXFxZjNZklgVFIIKAQUAn8VBPwEQZ66fMtqaWmpIgi1GUBFEKpHELKzsvh2+nR69erFuee2rbChGzXoUiIgiMCwYcOlq6RwmfxpyRIuvvhiPLqXIItFGs/Y7Q6sQUEs+WkJKSkpNG3aTH5u8X1/7NgxNm/ezEWDBuHx1WMxm+X3mrCP8BnhuF0u+Q4EBQUhrCrdHo/syYsvvMCLL70o/WccTofMv2XLFrp27Sa/93tpCBITZA3CarXhdrtkf81mC2azSboDnXPOOTRv3gJBZsR3oh2hfhF5PR4vNputNlNOlVEIKAQUAmcNAZfTyeEjh+W6509mk5knnnpCqRhqiroiCNUjCDNnzpQuMrGxMYwbNw5Nq2inIE7d06Z9S8eOHWnatGlZpfPmzuXSwZeycOEi+ve/kK+//oaEhATq169HRkYGMTGxrFmzmiGDh9AwJQWn08m8eXM5cuQIN954I7NmziI8IpxDhw4xZswYIiMjJTlZv34dO3fsJCs7mzFjrmXfvjSpb4uKjGTr1q08/czTTJgwgXPPbcexYxl07tSZbt0NCYJo79dff6VRo0ZER0XTq3dvJk+eRHJyMgcOHGDMtWP46uuviIuLp1vXrnwz9RuaN2/Otm3buOqqq/jmm29k2dGjR1dBlGo6A1V+hYBCQCFw5hAQBKFhakqATBaEBGHo0KHKSLGmMCuCUD2C8OOP85k9+3uaNWvK/fffj4ZWwW5AEIQ5c+bIE7fYTP1JEIRLLr2ERYsWcd5557Fm9RoGDhqEyL9gwQJ++20LY669lsR69crKZGdnsX7dei688EIWL17MoIsGsXfvXnbs2MHQocNkvj27d7Ny1SrspaX0u6AfO7bvYPhll8nT/QsvvMioUVdz/Hgm/S+8kKzsLPbu3Ue3boYEYeOGDVIS0Lp1a+bNn8eAAQPYtGkzvXv1YsXKFVitVo4ePUqrVq0pKS5m7dq1pDZKJTMzk969e7Nw4UKaNWtOnz69TyBKNZ1/Kr9CQCGgEDiTCJSpGAIqLS0pZchQZaRYY5wVQageQfB6PWRn5xAREUFwsBCtl9sMGDXolBSXyM1TbNjCXTI0NJSflvwkCYL4XGyuixYu4oILL5Dqgl9++YXc3Fz8Ljh+fX9ubo787tJLL+X77+cwoH9/tm3fhtvtoXfvXjJGw/Tp3zJw4EBWrVpF48ZN2L59G7169cbhsPPBBx9w0003yTpGjBjBhg0bpC2BnyAI6UNwcLC0ffhx/o+SiPy0dKnc8FesWCElIIJQ1KuXSHh4BIsXL2LU1aOkukI8k9vtliqIHj16SkmCSgoBhYBCoK4goAjCGRwJRRCqRxCqB7nO7t17yMhIlxKG9h3ac/TIUVq1bsWuXbto2bKlFP8LW4WGyQ2xO+xSZZCTk0NwcAiNGzeWzQgR2fJffpFkYN++feTm5GILtkn1hclklnmEROFYRoa0D2jRsgVul5udu3ZKlcGRo0el3cOqVSsxaSbqN6gvT/qpqamy7OHDh7BYgkhMTGDHjp20atVK2igUFhZIAtSuXTspLdi2dZv8PW1/miQxoSGhNGjQgLT9+6WdQqdOnbAGWc+gB0b1UFa5FAIKAYXAyRAQBEG4OHopD5nv9XgRkRSVm2MN540iCGeSINQQfJVdIaAQUAgoBM4oAkJ6a7NZfdFwDUNF8dn111/PgoULzmhbp1uZioNwugj+geVP383xD+ysakohoBBQCCgETkBAkIHkhr44MD5XR4fdwbDhw6TdV11KiiDUpdE4RV8UQfgLDZbqqkJAIaAQqAIBP0FY8OMCli9fzvDhwzn33HMVQajNbFEqBqViqM28UWUUAgoBhUBdRCBQgrA/bb8MuyxstJQEoRajpQiCIgi1mDaqiEJAIaAQqJMIiEBwMrx9gKOZCAo3atQoZYNQ0xEbOmQIn/z73zUt9j+bX14TKoIUqKQQUAj8v0NAuBDL11/8rzp3vmsaulesGacPlZcTL4kzBVjiV2yhPK/fVl/De4Lz9en36uQ1BEYqDMz1Z6+fRrTa0kpxajTuvOtu5s6bdzYhqXHddd4G4bLhw/j8009r/GCnKmBMkjPw1pyqIfW9QkAhoBA4QwjoXi+7d++WhwT/vSknq9rgERpBViuNGhkuxJWTf7MM3ExPtjbqgQTBt3OITb/qVE4Q/AGFjdBt5eGFzxAkZdWcsJmJkO+V2hPu3WeELZ1G50+26Y694QZmf//9adR85ovWeYIw4rLLmDJ58pl/clWjQkAhoBA4iwiIC81E1M8zeT272Mi3bttWJj0QG+CuXbtJTEgwYvtrEGQJkvFC/CkkNIQmjZuUSR69upeDBw7KIGgiVsjOnTvJL8g3ApX9zv6978BBGUAtbV+aDGIWEhJCVGREpZitotXyw9evK1ZgdzhkVwRBMJs0+vbte1ZQP3DwAPv3H6BZs2YkB9wWe1Yaq2WlRUVF8h4Gi9lCSUkJ4RERhIWFUi+xHqOvu47vZs+uZc1np9hfiiAcPnJEBvIR8fdFMJyWLVpQUloi4/YPHDBQRtKLiY6REz4vL48u53WR0f3EzX9FRYXs37+ffn37sX3HdgoLC+nSpYuc8GeR1J6dUVO1KgQUAnUeARGGfM2aNTz++ONlfZ0yZQp9zu9DZGSUJA4i6mlaWpoMfy7WrJiYGIqLiokQd5pUoUKoiiCIMOYtW7Vi5coV0p++e/ce8rK1kxEEISHIOJZB+tF0OnTsyIH9+8k4doyePXpUuECoMsA7du+VovE9e/bI/rZs2Qqb1YJ2MlWHBmlp+yksKJJVieBlIqiZUBufjbR02VJ+Wf4LF19yCV06d5YX0p0pcibqEs9t3GxbnkRQORG19bIRI/hl+XJatW4t9x8R3C06KkpeYR8onRFjLMLEi/tuBEELDQtFBEkSQeIUQajFrAiUIAgCIGLyp6am8Ntvv9GieQsOHz5MZlaWZGEinvWw4cPRdS+bNm2Skf3EJUIiyt7OnbvkPQWtWrby/b2T9u3b16JHqohCQCGgEPh9BAQxEDeMSpshk0bX87piCbIwa9Z38j6S888/X65lWZmZMnR4u/bteffdd7jzzjvZu2evXLuq0pVXSRB27JAbl9h8RJvikBR4k2llCYIQsefl5cqDkSAkYpMT6oro6OjftWvYtnMXWZlZFBUXEREeQddu3X6fIPjkBnn5BbJe8fybNm2gd6/eJ4DncruZNm2avEZ+2NChMmS6OMTVJK1bv46NGzfK+sVGLe6BESHbT0elIMYgNiaGZT//zOrVq2h3bjsGDxksI9GKJC60W7psmbxTZvGSxfTvP0DeJSMiy4q9JrFeYoUDqIhKO3XaNJlfHE5FiPv+/fvLOaAIQk1G25c3kCDkFxSwbt1a2rRuw8FDB+V1vxvWb5ATQITYFUMmXjRxV4CYGMG2YDmA4p6ApKQk4uPiJXM7fvw4sbGxhvRAJYWAQkAhcIYR2Lhpo9ysRRKbTMcOHeV6IzYTEWq3bdtz5SEmIz2dnr160rBhQ7Zv207nzp1ZuXKlvNlUXKFeOZ2MIIjrgsUpV6TIqCiSGjQoK1qZIAgtwrJlS8nJzuHyyy9n3vz55Ofncc2o0fJwdbK0YfNv8sAlLPBF/r59+xkqht8xlvR6ddasXcv69Rvo2KGdPJSJU/UJSRhTinr8RtjCVKCGNmLivpYVv/7KRRdfJG+HFQRD3DRb03qqen5xrb2480VIqgOJ26bNm8jPLyAhPp59aftkCHmxJ4m+XHPNKFJSUioQBEHicnJyCY8IIzs7m6QGSZLYydtnlYqh5m+hskGoOWaqhEJAIfDnIvDdd9/Ju0yGDxtunGIlU4CiomJMJo2gIKvcGMRdJw67nfDwcCkNFVea5+TmEB8fX+XGdiJBgFUrVyJIgF+cLjbw1JRyo8QTCYLGwgULpQ5c3LAqbnQV1w1fceWVPglCFcaEGuTk5eFwOMsMDUWfI8LCT+lNIe5eWfrTT/Tu04dGvvtWzsboGJtvjjwEBtpgnKm2hATbZrVJguBXG4iL4Y4dyyQpOYnCgnxJfoSap7CoUF5AFx4eBrphsCnsRQryC+QdNC63UxLI8LBw2rRtI4mCIgi1GClFEGoBmiqiEFAI/E8iUJkgVOchT1AxVOGuWLGeqglCVbIFaY549hwTqvN4dSCP32Pj1B4d5Z09Ma8iCLUYyuSkZLp36xFQUoihfH9KV0UdDZMhGjsTzr4BdRhuOUY6+TtQc1fJwHp9B4sKyBivp3aiDlL30rGBhY6pUbVz0RT+t14z36zPCmD9JvRKj+Bnx35RWgX3JJm5imcO+Mj/fL+HWbnr04mTwqjKyGH0LaDyMkfw6k0m8SwmwfgrZQ8UizZt0sSwBxOu5dWrtjyXpuF0ujhy5JCsQ2BW3Rkh+hbYnph6/tKG1NbwXxdzW9NOFDcbnfid1nzPdKpHOl1L5Spjc/j6f8I7GSiODnxf/Z/7fgq9fY3HotKDyvcooD2/21/lzwMGswzR8tZPhq9v7PxxCXwztqo+V+V+V+Va5ZuE5e+GbxMJeOdEq0IKIWdqha6dHC0hWQgNFWJ9o4DmO9Eas736KHurgkLMTd801HT/ydpYuyRC1ai+8vpzqvnq/17zqUOMJk7sXDWaLm+qgpqkwltpvJO+6gPnU/lS5G/7ZC1WCVxAr41yK1evlDfd1qV0umvDWX8WqzWYyPDosnYCX26x8Mtl1Ke3qtl0P0nXpZusUa8pYAJWPYlPDBxSHUD89ZZN9ErERrxyBkGoWJvm9XBpYw+DW4dXp5kT8gicijzBPLO4sHzh1E1UfvErL/hGb3yTv2xxqVi9bjKwMPIaC1vV4yEeyiQJity/qiB1RvAVoz2P2OBN5rLXX7hoGZtw9bZhYXwlRLonLFRyQZAo09FnrFqd+VMZK9EXcdGKuMpartmirWomQ+cakDlg7sngNghyA+KZTZIgVFX3yeegfPZTkGY/STlVvt97pKraqareyhtz2fsbsJGbxXHUP9WqeFxZR/UhlkGCApMkHpVx94l/NfwkLGC+B7jsVcTAW+UcrmqLqPw++Wlh4Bw2sBHzXvRBl30sD0Ik5m8VG2DAtA4MWFT1ObZ8npjkO+xf+k9uc1B5zKsiCAZ5NXIKgiD+82+cJwtUVJ16q/MKla+jRpsn1GssSNVKgfOkAu6VDmpirvub8q1gv9uEJKVV9KBsTsi9y6ixoChfeuLVpfSXIAjhYeLEXDFVdVKrzgJ/SvDrAEHQJfsOZONGr8ULcek5bi6tLUHw6hR5g3l2kUEQ5JpTiSBUdRqsLkEwBDrVJAi/MxCBBEEsXyYtICrb7xGEgNksNlW5PpyETBhdNTaCju07yLzVmT9VLZLCS2bXrl01JgiyzcDNqtJBxE8QfMuvsdSc8MbWjqSe8j04SQb//AgM0nMyciHx9G/Q/k0kQMJSgdjLsfARTN8zek8Ic+PrVA1IWGWMT0YQfG+YD99qEoSqFv5qAFuZIMhwPr4dTvdJC6Q0Sff4Gk09+QAAIABJREFUajMIghbwHsjnktIlIxhQZYJQHgDJP7N9enBdxyxJSO0JQgWpjBxX3xm+7OWo2bZSpWSiGjgGEoTAbVhiousnDeFUVdWBxF4cxHyLh086Xc4+5Lz3HyDNJml0KQzhhduq0+Fg/4EDdOzQgSNHj5CVlcXYMdfx5Rdfyuude/TsycoVK6Qho/Bm6dWrFw5HKRvWr5PNKYJQjUGvnEVIECJ8EoSK4sJAyug3Aqk+Y6zYjm9xkoy8nJZXUDFUsSgJxlxVqurjQD1dhehjmgd5PtY9uE3ixTXL192fjD4YZEF8UxVB8GpCChDMLq0pxYT6RH6inJfm3jSivNnGBiglCDaeWVyAt+wUIZ7ZhHidvJixhoaREGeiXfIxmqVGkJEO83/Jwu6J/J3R0/CYdBxxqcQ0706Jw4495xi6PR9L3lGsjgLjffP/PwAgP4JCXCiIkXgWT2gDzLEpeHGjYymTINjceTgztvsWzqqxF5uKeCJ3dAiucJuAAMwmTEHCY0XHkm/Hlm2vIFpt366dr2c+KqR5MOlg0UzEBbmoZ3LhDQoh1wNHS7yyj7ocUKMPdrsgCD4JAsZziG9dZhueiDjsweG4TG7MXhdRIsRqXg5B/uUrcLL4HkmMvhHzRkMIDkLDIolLrEdofAIZe3fiLLVTWlyEB5Ps5++lVq1aEp8QT0J8Ai63Sy5awspaGJsFGlv9XvhZs0cjxBpKsGbFarYRhIl0xzGcXkHedLyat2yDK6+zXAImZpZX13BEJBLcfTBxnTtgCgJn9m6Kfl6Aa/duLE45asYzlxmB+d9An9QJsXCLndNEVGwzoqKak350DU5HjnTTM5vciNOxR4T0DZAuisHw+sZEfCtE7F6zlajYKFom5dM0qZiokGiWr85m2+EQTEJU7n9hTyolLz95G6uHfy///QGRJ2y/6N2vUgooIp6j/D2pVFclsisJgn9zFvPOeMkrqFrLSJhvnkl8y6oVG2lFzaxf1VbV2+WRKq9yA73K8+5Uc/FkyPhfgXK1mrEGV46CKNeQgEo0rQoVTADJrpGkKaBek5+YSbzLiZWEN2DlEFhc2P9C0tPTpZecwFqoxLdt3y5dR5s2bcKoq0dx2223kdwwmQfuf4BXXnmFRx99hNdfe42bb7mZffvSmDp1qsS1sCgPp5Ig1Iwl2AIIgv/UYvBTY3KYTSYaJCXLwBQistfs7+fUrAFNo925bejYoT3z5s4jOye3an1WFW/MlZdfwfRvv5XtCTcVEWykYXIye9L2ndAHMbHLqyhfXB69vS1dO3bE68xn/k/bOJKty5fA5dVZuS6NYqdZHhXEy1IVQTC2KTM5lgQmaH8jx5ZCVFw45pBgoqPMXL7ndVpm/+wjCF4fQSjEE0AQ5IJpMhPavBMP3jmQS5vvZVtxLNM3xbHrh2nY92zgWGHI7+Jqj09l8PPv8+TAFhx3ujhYaievwMX0GYtZNflNIoszpbg8MMqaeNv8VMh48YzNIaz3TTS85Dax/eEWpx3fYh+Tt4PlE2/Fqpec1B1L4qFpWAeei9apodwwCLURlRCHiCWfs3gD7plrMQeoSvwEQfRO9EeK9PHQLy6I4Uka9UMs2Oonke/0MmnzUZalO/BIMmckI86GQRDkxqKbKA6Pw9XnGtzJjdBCTOgWB2jF4MwjeNcOgn5aSrDbXaWOVmLi29CGjb2BuO6DiYhPZH6hjSHB+WQez2DZe+M4uG/fSXW8/rl2z71307xZM4YOHSoXt4yMdL766mv+/dHHOJ1O3wlUbPRVEy5BgtvGNad9XGuCLaHyea1hQZxzQTO0EDObN23iP7On4fGduqS9RyV5r66ZsUc1IPX28bibtqHEXILX6yQ0OItEbRf2eTM48PVazMJAXg6CSY5BBeGsIGVyN/Pi0ayMuPpdEut1Zv2vn5Fx/ADh4Q3ZvfVzzJoHT9kCX76ai81CqO7kY4YncOl1V3NDP40w/TCL8jrz1ZfLiTu0mN2HvOger0FFylzvTpz6/s1JyhoCycgpzq1CGnZC+F+50xv4/56boTEtAkIYV9CcGafeE9QZfvVrwG4ZuJFXld9o58T5cNoEIbC/5fy6DFz/vClruwpGUdGlsvyWB/9cketIFVO5otTjxAy/p2KoPPqBSpmmzZpJ91VxAVPDhimEhYbKGD2CMFw5cqT02rjlllu4ZvQ1Mmrlvn37SNu3jxHDhzH7+9kIN9Cp06ZLvIskQRCHl7qTaiYL+hP6XRVBEN2YOPENunY9j5+XLeP2O/+vvSsBr6I62+/M3P1m31kTNjEBCSCbgFRBAXHBpxVE1LpgRVCx1YLYv79oq1Zq1V/bv7T9rXWpLRUFVEAURFbZl0DYAgFCQiD7fnPXmf8529y5N/cmAZFqzTyPJtzMnDtzzpnzvd/7vd93HqQL5a7dezBhwvlV6SJ1EzpnpGHr1q2Ycf/9WLz4fVonwXhEm3TLly7Dli1b6OCS0p7PPPsshg8bhs/WrmmxSEYDCJuWTEevrHTImheyjVRPI4U9iJGyYMqMl7BxN/H+TVEBQp5pMLY5xsIRF4fPG3vC51PQfWAmrElx6JrpwPjP56BHAavvTRYfxiCEAwQ7nN264Pk3nsdg/2L85c3tKO/9EDrdcDe2fbISB38/F2ZvcyujL6G+/zhs/ugtdLcDC/e7UVtTjSSnHWP7xGP+q2+j8O0XYfeRimrCG+RQgS8CmibD1GU4zKm5sHbqBSm9L3z+RiRm9qEeo0a8+YZD2PmHyABBeF3uHvGwdkkE0mKBFCdcjS7EduuEuIx0BCQVdevzgY/3w2RYRYwAwaSpGGquR68YIDfRBEt9JQJWO3KGDAFMCuphwuMrDqLYZ9aBCwUIR46yPiZsjATUj5wOd+5NkC3N6JFqgQ/18Jv9OFtXCkV1wfrBJ4g5diJifJKxthoSUlJxx3+/iFWmvhjfLRarz3lwXScbtpc2oceWN/Hp4reh+gQNHTo8lK6XJMyZ8wiGDx+OIUOHUuPY1NSMouISzH/yKRw5lN8mQCDGZHT6YIzofRVcPg9tQ1IUjJo+Gum9M5Aal4Lc0UPgVf3MtnOjalzbA4oVne5agKqe16KxoQYmmx/ONDNMcVXoEnMUae4D2PXkCvhKePy1BUCQ4Ndi0DfnZsTEJUGSFcQkDYTFDBQdWgHN3AmxCdnYv+0paGoTNJ2aN/YJYXaAgGzF+B9PxzMze+HQ2sVYcrAv4q9/GBXmZOx9+Wdw5a0HofmpBkTmoCSSoTJYWcH4EaelLQNPAQIviawbdMg0fv99AwgMzAfHqAVAiLDiSCGaknYCBFpeITiIkXRCFwoQCDNAyiYTgJySkkprVxSXlMBiMaOkuASzH56NP/7xj5g9ezYWLVqEuXPnYgNxDiwmWgchLT0Da79Y1wEQLhRbCIAQvjHJkSMHkZqajDfffBP33Xc/XWh37t6DiRPPDyB06doVNdVVcLuaaVGNCRMm4sMPPmgBELj7G/L5u++8i1/Mn08/u3LIEHy5bh1eeeVlPDxnDq0IZjxCAULwL9tXzEIPmpVgjCUTxsCC2+57FZv21Ot0ZyQNwgrbZNSNmItBmbFwpAJPvboN5rROsCUlIqN7HCbnPYsrS5e2ChCIvzxx+k3405wYvL6sDP9c54LPFI+b5i3AWZcFHz9+D5zn8lsdwsZew/DsorcxOjMWN684i4UTOqHO14gpqQ68W1CH39z9Q9jOHg/SoIJL4O+tKlmROPBO3DTlbkwalobVe+vwr9XbYcu8gnqU5LSEpnwULpnPGYTQVZutMyqahnTG1Tdcg5G9crHm6E5s3bUNlq6dEdulCzQE4N5eAOsXBVC0oOgvCBAkWFQfbnNU4KrrJ0Cy2oEju1FRUoirxowgRe7pXa8sARbtOAEfzywIESkC8EsSKsbPA3oPRk6GBM1XiwFd4rCvrBhVcKGKAKWVq5C+51BIqEN0sAAIA8ZNgjT5cQSsTmQmxWBtqQ8zLrfjvfwKjEtw46M5U6A2N+liufABIu08OudhZF+ejavHXA2zyYSiajc+23YE504expI/vQifPxBVZEW9S03G6IyhePTBWZDjrSg/U4rjO0/glgduRFLPVOxavwczFzwCr8aKAkUECPYENE5+Gc1x3WE1K7Ce2QWt8SC6ThmK1NgCpDkLsGPeGviPehhbxhXw1JPkFL9fS8S1Exdgwtj+yMpKwxvv5SPgKkVsvB2NzX7U17lx8uh7qKnKJ8IHKkwNFSgS9kEDnIn451s/QUzgMOb9uQ7n6iWkDbwaudMfwPp/fICyt56G7PMw6l2EFWlMO6x3paA+ILjLYVBcez7rHaGxLxZAiPa9TNvAjvBQgHg06i2KLJIoDEJrz0VCM0HWp6X4kYVE2MH0P8HsAPEZ+Rkc95bIrD1hjPMJLYjnCQUIrY9eu2SdbbjeRuaUhpU6GITzeWWC5xoBgpEYmvHAvbDbbdi/fz8VipAJd66sHB98sPy8vojURfc0u3GisJCWvCSlOgsLC1u0oUXQIKxf9yUtC0qOcePGYcOGDUhITMTJolMtro8GEHZ8Mgvu1Gyc88UgAFbZ0QI3BsXV4e4Zv8amPQ36Ah4ZINyCWx5/GS8sP4xFT/TDNTM+huSMhxKXgMS0GPQ5+j5mev5KI5+EzmoMWFowCAT9vrTgSmT27IYDXeeiurwGmqagMaDg5OkqbPnz76AU72u1Xz2dL8PURSvwq2EO/PfmShQ3uFFa1YB3bu2NKrOGadfdBpzYy5JSw1LPWMMmOAZOx29/NQ/1DS7IphgsWLQGSMoCyZAgtGxi80GcWf1rmCOEGIwAoeegbCy841Hc9X/PoP5sGWwpKbCmJlEP0p93GratRZCjAASr6sOPHBUY96OpiJVUlG9bh7LSYgzK6U21EMTl2alm4KUdJ+FR2HiFAgQNfklGxYT5QK9c3Dq0G0xOCdmJJhytq8ahc8eQX3YaWLUSGbsORwUIZH3uNWAwcmY9jyWVdmQnWXCgOoBh6VbklTXiocQK/PWxH0MK+HUWwDhA4l15dM4jtMrotWPHosJrwbbDZ7B172E4VBe6N6/Eh6sOoaKKsUPMsw1q68nyLKvAqIwhmDvnCRQ3l8Fpd+DImoOY9sQ0JHRLwpola/DwCz+FpxWA4LMmo3rSK9CSu8NSXwpl/e9hqt2FrBfnIC6hFGnSGex95iu4i7w0JETCNCJUJCxzQEvEiLELkJKUgDGj+mHJJ4eQEivjivhYWMuP4mS9ik1Fq1B0djOvxicsETdINJqsYkB/B175zU04njoDOwoBJdAMj2rCuUYv9m/YhrNL/xey30NDHEZPs0U2BI9/s9BYcLk/P2kcu7dvA0DQQ/ftAgjGlThoxFl2hDjaBgjs2SOBBDYHI2kQvjMAoQ0r1AEQzstMRz9ZAITwWFl+fh7SO6Xhzb/+DffPuI82sHvXXoyfMKld30wQG6mX/fDDj2D1qlWoqKhAXGwsjRFFir/p093wbtx4wyS69Srxmkh5U1I6deLEifjok4/bDRB2fTILL1dchcPuzkiW6uDWrGjSrHjtyuP4r0fmUwZBHJEBws3I6zUTd4zqha0FpxAoPYYbspopDatpfiSafehX/DEK9u+iBqDBb24BEOwWDX9YeDn29VuEfVv2Y/XC5yCZzOg95np43QGUf7UKpmaizYh++GKS0OfF5fif67Pw8s5S/GRUVzy4rBgvDHWif2YcJk+dhabtn1JBJhGMscWBOHUsGKlKCmw5d2HKnfdh7a4ijO7XGcvW5cFjTWUhBmhI8hxB1dbXYNKaDCmobIEyAoTJd/4QTp+CSs2FFR+vhNluh5LooG2oxyrg3F9OGQRhCq/gIkXSikXz4TZ7JUYMyEHTwR2QPU2oUs3ISomjJBKRlH7oSsTGRhP8EgMIpGIe2euDZXAQBkFGxfgngD7DEePwYEDPWMSa/ChtqsPRykL4JBewcjXS9hDBZcs+FVOMdNPsX76AV8yj0TfRhPwqF4ZkOFBT60L6h09j/+4drP/C6ykYYsgPzZpJy8DeettUvLpsJ8ori5Buq0XXeBUPDC3A3U9uw1d5rOZ9JO+RLMgj0wfhsfsew4GifGT3z8bm5V8hZ3w/ZPbrgZK8Ijy68OfwgjEIvHADl9Yy7YzXkoCa8c9DS+4LnM6Do3gr5NLV6PHgtYhPaETVjjzUfFEFycPYDGpwWQEIPrASfGoCRo5bgJiYZAzo3xObthbiMu8x3Fr5FS67YRgq1+/CO4UH8I+GUvi4loWl3LEOJqDDJHnx65/1gb//JDTkPI6FP74H7pOHYet6GdKyB6P2WB7Ugt2QNL9B6Ciof8NAUXYh6Hcb5YoRN1iKWAxAN8kGgBDMZoj2prWlQYh2nWAQmEgx+CyRNQgtU6xJu0SDwIY4uAgKYSH93AAQIm0DbfTsjYxw+HrLxizyPYSGGFo+bbRwcFtGwQgA9fcvykVUHSNJsNlttAKl0+GkGwISDRxJUyS7aZJNmMh+GGRDJhKCIGCTlMMmzDL5m6uhkVbRrK2rQ1x8HKqqqjs0CG0NUqS/GzUIxr//+S9/QXp6OtZ8/hmmTZ+K1NQ0FB4/gRsmMY++rSM1LRXPPfccHpvzGDweNzMWraBn0Z5xAr722uuY8+ijdLIMHTqU7hJJhCibNjFRoPGIxiBs+HA2fld3DTJS0vFUz73YVRmD545chldzj+KXs5/E5n3VzJBKxPNumeZ42JSNLZZhKJc644S9H54dWoEZfSqgVp2kC62ty+U4W3AYOz5eDDkANAQEQAi+5EkODdNuisHO3L9hwNVX4sCatTDFJiExewA2v/UGKpe+Dqvaen5uQNLQcOXN+O2Lv0Kp6sCRM5VINst46fruqPMHcPOdP0fl+g8pvxnUaRN5OaHXCJ5WoKQPgjltILymeMCcCE9THVxw8swSFfH+E2g+vgRWqRmKCE3oteNZDnagZyLMGXGAVYZP8cNT64LJZoVqUphnWlIDR2E9FSkKWveKAVfoSzgRJw6yNCMLbiRrLsShGe6AipyUBGiSilOIwRtlJtTKBHAwP4BoEI5QgMAoZr8swzNgEppG3QHV7IMk1wOKDxqR6svNsPjrYX//I9hOFbUKEMgj3n7/TBT0GQvVkYCtZT7c0s0Gf3kJiv/+Wxw/diRiTTwxX8i9zZr1EJJTknHL5FuxeP1+XD+gFP0TvoLfpcJf58Vdv9iN7QcZCI0KEDIG44rUfoBsouVhTXYZqSM64fKBOagprMJPF86DD349vED2BCCFncicJayVT5bhzp0OV86dUMuPwNpUDUt5HqTKw1BlFdZAMyx1p2loQUBHlp7K/HPy/wAc6Jt9IyRzAmz2dMTFdsKYs5txs7cAuHksvMtW4VR1FebWl6FMDVD9AH0mQ8zaYm7CS08Mw+s74zHw8T/B1NyEvV+ux2VjJuHIyVIcfW0+LKV5HMAaifeQQHlo+IEErrjmQWRghL/7IuU2ZD3gGQmUqeAhhrb0C8w4ty5SbGvdo3M+Aiht6zry90gAwXidPn/CazhFaLy11MZwgKDrBwyi5mj3+3UBggiSMIgS+SDztGu3brj11slYvmw53WDr6aefxj333ovDhw8hOTkZK1esxO3TptEdHsmuwRWVFRgyZAjd7IpsrLV86VJMmTIF69evx8BBg7Dk/fdxIH8fPB0ixfZMxeA50QACPYMYTUlCfHwCMjI6wWwxYV9eXru+IC0tDWRvboIAhedHVctspWxp4IVSOVwla1xHjMrndgKEK/p1xTFrLzisVvTDaVRpdhxUu6GfVIRT+YfQ6Apu+BKxDgJZaDTgUMo1+LT7g3ggYSumZJvgTO0JTZHhKj6Eswd2Yt+2XdSANflFiCE4/RVFw91jgG3VvVCZ/UN0GfoD1FTXoGTjZ/Dt/BRmN9n5rfVVxS+r0BQFloG3YNTdDyAjzoIUEzAiuzfe3XoQK5/9GeyVp+CXSFybxdxob3OAQHOXKZOgQU0YAEvKMHiJh66YebwSsPmK4S76HGatWX95hdqdDA9Jp6MLoASYuiUAaXZq1BS+6Q2JGnvPVUM6XQtFJdkhbJDErp6kR2R6V+RMGcnw4sZYF3rYA7ApCk57gY9qzDirMdAi1OsMIDCRIr0HSYHXZEN9r1FQBo+EHO+EZvZDkhrhqymFtGUL4opOwuJnaX3hhx4LljRY7Fb0vnwgrr1nJryd+6H2iyXY/tlHOFt0Al5aTCnyMiY+HT16JBVKde+eiWMnT+KyjOPoat4Ak2M47v3ph9i2rwSNLpY+EDn+LKGbvTMGZvRHnMVJRVhkjBrjXfBLQMHxYygoI9qSUK+U9iQHCETx77YkwJ17DwLdh8N3rgSyvwmOQAOsrgqop1bD5ioXSYzcewwCBNqv1K4REaCELl2vwtjx85BbuAFjTn0OecwIOBubsPWLdZhXX4lqujawXg0CBLJWePCjsakoq5NxwDYE8VfdDltSCkrz96Nq7b8glR2BRVPpHA3mqAiTEbouGJ6Wjjn7ygjVT3lWTIsx/jcBBHKr7S0yFn7PlwIg6NqESCGGSwQQImXihAAh4s6YTRg9ejQ2btiI26fdjlWrVtHtr/MPHECPnj1x7FgBRgwfQbObMrMyUXqmFMQRGXnVSOw/sB+bN27C9dddh/SMDOzdswdujwerP1vZkcXQLuttOCm8kmLL6w0pQjR2ef7wWCwBreX46nnVUdJo2nquaAwCMSm0EBDdFlah1Kaf5uErUDSJLpo0AZAyCKIOglM3C8ScEUpblU2olxKRm9MF/XMyAcVJPRtJdePcqRLs276HxlVdJMSw1oWAwa4Qj8+uBCDLKpp9VmhmUj8gABOlr8my0BqeZk9OcuGJuVPI81iccMtWNFsSAWc8bLXFcLhraNoioRbZgkoWbGpRGVjQAtwISAhoZkgmCwU+xBjREAStJkjuiQMmeleMkKaUKe9D0jZhCkjbPpmYKRPMpB/p83IRmcpoVprjLAEsxKBxVoLnwGsKFXPJkgoHuY7UkICJtkP0KLRWAZ9rXo+XhRjYUEGjLIkMRQUCikLrIWiSH1C9kFUNij8AglnIOaxcLJ+B7HHYU/EiTqyYlQSzbIZm0uhGMLSkrUrCLiRzoPVCSQqhNk3Em5fh8fpxw7W5mHn/GBzMr8aCF9+hNR3EYQQI7E0S/Uv6QaHjYZVMsCl21AYaoFLPmfRhsBIAA9gkJ58V9hHAj9RL8EhWNKUPhbPXMCjeeljqzsB7/EuYAk30m2gaom7b2Tiw0Sf/JyabUP/kUGCNyUJfWcYsRwC5P7gaJRu3YHHVGSz3kkwZsxiKMGBL+swLh0mFVzXDAxvVpciqDwplPViFQTLuJOOFJ94a0AZfW4gjoReAEvP5uwEQpAutSnSJGAQ95BGlDsI3rUGgTkIrtR7EKkKcDrLz5u7du2nho/KKcroRE9ntkuzMSZzPrB5ZNIywe9duTJ06FX9/7+80BE1qJZw6cYJq1nJy+iE3NxdLly3FcVLjpINBaMuUhv6dAARRSdGYqx2JhqKvbxulZSN9u8FHiHpzbQEEej9i/YhYVCk6ZcXtCqWwhd/EYnCh3qGiaZiY5eOlliN4npoGhzMG9lgnK5vCy9b63X7UN9QDgQAaAzJ+sZaIsHglRfrlhjKsbeRxR9JnCIDAup/dlzGtiPybCJgEQ8NLutCFl0TxiXiMgIuICcx6vQGyYAf09olynHjwhFWhpUo1EvU0gkPef1SJz8IYQkBGjY4YL0liIle6MLB22nuIUz1eH44WHKN1FmiRFWLYmKVstSlyD6ICHilSJY723gEDtDopr099ZpTZwZialodeUySssmFwDBlEYDBKzA8DGOffQLuRzFs9JOAnpQoYu0KFoJFz6kPviAURCFghtT4Iq0TAAa3yz+dTiG6F3JfK+i5Jk5BhsaIhEECx5qOzlwFRBuGM+4KI8uWsb5g+ItTgkCsJOGdzidxPVJq5DYBgDCuEVwINjgsDvhcWYiB9ZCzlFjndNXzkyROGCy5bm6TG9zgku4QTKhHTFL9miEG/Hw4SjGvON61BaI8tEJoTs8UMspujyWRGfFwcamprEAiQDBrm8BEQQXZ5LD5dTHfrJEez202ziWhQVVHovhpEbN/Q2Iimpjp4fR2lltu7/tLzBEAIL+RiBAghKZD/JoDQ1kNFZxDYlSx2xhZaY0qSbjR4KGFqr0ZM7W+JXAyEn0wWPVYJTnj+3GirKhpVBx5apVFJGT2DGk8iaOTGhOezR3uetgCC8X6Ni4sOEPiixuKtEuJSusKe0p2HeVoux6RP2BFMISNFnerLTsNdc5aZVYsDyVn9wwACu4r5hMwYSKofAa+Per7kE09tGVwNNbh60hR4CYBRg3s+GJ+/Zd40709+u+6mGuzeuAr22ETEdu7NPM42QjLs3liCXM2ZAvga6/SvbC9AIO8EqVBoPCLtbyD+3tZ+C/p4kUqF3ftAsidCVkm/t8w3D/lSPkbErNYWHYXfU0/LegkBJr1D7pVFFqRpUEiGCTUsnLfQFMrUJHfvC9kWwwGvPrvoLwz/Mu2JrPngaqyHwjNL6s+egOr3UgOfkNkfis2ui/PoXie821hqHmeDVB98PjdklY1MQ/EhfV+R8Pfh28UgEEAaBAjR3lE2584PINC+4XNZkA/R2r9YGgS9r8NZhEsUYmjr/WtXmmO0BVSs0WF/JzaMFkr6tgGEnJyc8+fk23j4i/ln4vkRpBXuBwnykZGgoZ7jhXx/W5PCuHpfSIe1uSUq1w5xlrnFIwg/MdPpQbeWW1OEnt/KDaqSCVtLqZ/Gj/DwQVtPF9WnaqPbQ9PnxMlxqV3gTOkaKeLIT4nAlEBDXdlpNNWcY76txYm0nv2js0dcFU28Q1IvnYRUyKxprimDq74a3foOREBitHTEI/wWeBeJnlK9LpSfOAhbXDISO/dgTbRnQnFPq6rkOHyNNHLe5kG8k9YMQOiXh49lywchZ2N7AAAE20lEQVQJMlbkSnY+8c1TuveG4kxgj6E309pDMY++sugofM1E9Mg8+OBhnNnGdoQ/HzybhZYI4yMhPYsBhNAnEW+DzpOw8WyshayYoKh+1Jw9hYCfaCskpGT1g2ILhuWMjyRKmdPPAh74vAxUEGNXdZqIQKO8D4aP9fXHsBuncSDD2TQxP0SWhXgzaDtaLA2XMU+WlZVm04lpa9hP/ldatSp0TBgY48yHYIf0cwSrZmBaDQwSg1qiPWP6oeF3Y1vGh+TDq1/PbiRkPkf4qMV8b0m8hb5sIWu9yFDRW2EsLgvLiVE21rAwMnuGlngmkGiG/UUwwsbriQbGaG941gn/Lsq4Gb5X3ANj9FibHk9lxOWBcmg0ZfliwI82l5F2nyCNGDGiLYvQ7sY6TuzogY4e+GZ7gILlC2DJvtm76mj94vVAEgs5hIAAEepgmhniNAUFkdzo6+AkFEAIwEDNNQ37hJ0vrLbheqEEEdNM3Auz99zoRwAKQXAQDiQjpyy21mcRQ3QhgECAWSOAMKb8hob5GEgzaNQEwyeMt274+TmMXtWdT2q46TnMgDMwx79Pb0OkqYo2yL/5+VSXo6G5ueTiTZVL0FIHQLgEndzxFR09cLF6oAMgXKye/Ha2IyGZiSVbgABWG4KZ3nAAwbK5OHpgfIPY2IkbdR1Q6IDAyBdwA84ZCR0gCF83jIkIAlQjgxE5HyeIZdtDqRnHhAOAlpRC0EBTSy3826A3r0MHDgqCBp0JaNnBAIRQ2ujt6FUzg5tfCTAQ8pPrYFg7BkAggAP9nG1ipl9HROLNxd/OiRflrjoAwndquDpu9vveAx0A4T97BkhIYQwB/S8YSmC/C5DAfxpAQPB8mofBwxFcgUMNv0hvDDIIDHCIYEbwnCBjwEM54SEKDlMEUAgFDGJ8goDgQtMqQ0PHYXG9MDqfYQGDx68bagEGePhBePR6OI0xAwIgUKOuA48Ixl8AAp1RIO0GdzNl4lT+GW2HgwT+09V8+js1gTsAwndquDpu9vveAx0A4T97BshSCk3jpAyAAAnid546yqy9IcwQHnbQgYPQIogQhQAH3GQbtAohYCGcMRC6B0Mhq+D5TM+gKxdChAZCu3C+7IEY42BmmK6PCakCyYy/8OIFKxD8zBAK0MWWIgzBAYPxehFCEFlAHHAYGQAGHljas2AHWBjBGG7ggIGDDY0LfYkQ0eUq+k5N4A6A8J0aro6b/b73QAdA+M+eAbKUqlehpKEEmQEFFjZgrAJjCMTPME0CLx4XZBuCYQCmXRBpp+xzPRTBQQAjGwzhivDqliKUYUxfNX4mwhLkJ2cehKT0/EYuTESoBwaCoCBciEgNth5W4NcL7YHQL+g/mVEPVmk0ChCN4QqmHWC1PWjVK16wSwCCYDtMpCj+HWQOGJhQaWq5y9Vyn57z65dLe3YHQLi0/d3xbR098LV6oAMgfK3u+9ZfrMhpZD9tLkLkYQYRciCf0hLSRHMgQAJnEzhrQOl+SQ7RJIjMBz0kIACGzjTwUEOEUEToNQZwYcyq0H83hBeCCkdDLkN7mQShIgjVGIiEEmaweeggJNvAIDDkSc+sPg3PSuAsAsMIwvALMSNnBXTQEBZeMIAPoS1gIQ1yHQMP9HMOICj4UNn23yxswWp3NLlOfuvnoPEG/x9PjIvMz14jmwAAAABJRU5ErkJggg==;" vertex="1" parent="1">
          <mxGeometry x="188.97" y="220" width="401.03" height="300" as="geometry" />
        </mxCell>
        <mxCell id="WBukCUw7L9f1w4DGZweY-9" style="edgeStyle=orthogonalEdgeStyle;rounded=0;orthogonalLoop=1;jettySize=auto;html=1;exitX=0.5;exitY=1;exitDx=0;exitDy=0;entryX=1;entryY=0.5;entryDx=0;entryDy=0;" edge="1" parent="1" source="WBukCUw7L9f1w4DGZweY-5" target="WBukCUw7L9f1w4DGZweY-1">
          <mxGeometry relative="1" as="geometry" />
        </mxCell>
        <mxCell id="WBukCUw7L9f1w4DGZweY-10" style="edgeStyle=orthogonalEdgeStyle;rounded=0;orthogonalLoop=1;jettySize=auto;html=1;exitX=0.75;exitY=0;exitDx=0;exitDy=0;entryX=0.75;entryY=0;entryDx=0;entryDy=0;" edge="1" parent="1" source="WBukCUw7L9f1w4DGZweY-5" target="WBukCUw7L9f1w4DGZweY-1">
          <mxGeometry relative="1" as="geometry" />
        </mxCell>
        <mxCell id="WBukCUw7L9f1w4DGZweY-12" value="Text" style="edgeLabel;html=1;align=center;verticalAlign=middle;resizable=0;points=[];" vertex="1" connectable="0" parent="WBukCUw7L9f1w4DGZweY-10">
          <mxGeometry x="-0.2957" relative="1" as="geometry">
            <mxPoint as="offset" />
          </mxGeometry>
        </mxCell>
        <mxCell id="WBukCUw7L9f1w4DGZweY-13" style="edgeStyle=orthogonalEdgeStyle;rounded=0;orthogonalLoop=1;jettySize=auto;html=1;exitX=1;exitY=0.5;exitDx=0;exitDy=0;entryX=0;entryY=0.5;entryDx=0;entryDy=0;" edge="1" parent="1" source="WBukCUw7L9f1w4DGZweY-5" target="WBukCUw7L9f1w4DGZweY-1">
          <mxGeometry relative="1" as="geometry" />
        </mxCell>
        <mxCell id="WBukCUw7L9f1w4DGZweY-5" value="draw.io&amp;nbsp;&lt;br&gt;" style="image;html=1;image=img/lib/clip_art/networking/Wireless_Router_128x128.png" vertex="1" parent="1">
          <mxGeometry x="160" y="90" width="80" height="80" as="geometry" />
        </mxCell>
        <mxCell id="WBukCUw7L9f1w4DGZweY-14" value="Learning draw.io&lt;br&gt;" style="text;html=1;align=center;verticalAlign=middle;resizable=0;points=[];autosize=1;" vertex="1" parent="1">
          <mxGeometry x="590" y="50" width="100" height="20" as="geometry" />
        </mxCell>
        <mxCell id="WBukCUw7L9f1w4DGZweY-17" style="edgeStyle=orthogonalEdgeStyle;rounded=0;orthogonalLoop=1;jettySize=auto;html=1;entryX=0;entryY=0.5;entryDx=0;entryDy=0;entryPerimeter=0;" edge="1" parent="1" source="WBukCUw7L9f1w4DGZweY-15" target="WBukCUw7L9f1w4DGZweY-16">
          <mxGeometry relative="1" as="geometry" />
        </mxCell>
        <mxCell id="WBukCUw7L9f1w4DGZweY-15" value="Space + Mouse&amp;nbsp;" style="text;html=1;align=center;verticalAlign=middle;resizable=0;points=[];autosize=1;" vertex="1" parent="1">
          <mxGeometry x="50" y="580" width="100" height="20" as="geometry" />
        </mxCell>
        <mxCell id="WBukCUw7L9f1w4DGZweY-16" value="Pan" style="text;html=1;align=center;verticalAlign=middle;resizable=0;points=[];autosize=1;" vertex="1" parent="1">
          <mxGeometry x="230" y="580" width="40" height="20" as="geometry" />
        </mxCell>
      </root>
    </mxGraphModel>
  </diagram>
</mxfile>
